<?xml version="1.0" standalone="no"?>
<!DOCTYPE svg PUBLIC "-//W3C//DTD SVG 1.1//EN" "http://www.w3.org/Graphics/SVG/1.1/DTD/svg11.dtd" >
<svg xmlns="http://www.w3.org/2000/svg" xmlns:xlink="http://www.w3.org/1999/xlink" version="1.1">
<metadata>
Created by FontForge 20170731 at Tue May 23 21:11:00 2017
 By Aleksey,,,
Copyright (c) 2016 by Zetafonts. All rights reserved.
</metadata>
<defs>
<font id="Florentia-Medium" horiz-adv-x="1685" >
  <font-face 
    font-family="Florentia Med"
    font-weight="500"
    font-stretch="normal"
    units-per-em="2000"
    panose-1="2 0 5 3 9 0 0 2 0 4"
    ascent="1600"
    descent="-400"
    x-height="1025"
    cap-height="1381"
    bbox="-359 -664 2943 1974"
    underline-thickness="100"
    underline-position="-300"
    unicode-range="U+0020-F7A2"
  />
<missing-glyph horiz-adv-x="605" 
 />
    <glyph glyph-name="ij" unicode="ij" horiz-adv-x="1186" 
d="M121 1330q0 55 41.5 89.5t123.5 34.5q79 0 119 -35q36 -33 36 -89q0 -52 -36 -85q-41 -36 -119 -36q-81 0 -125 36q-40 31 -40 85zM733 1330q0 55 41.5 89.5t123.5 34.5q79 0 119 -35q36 -33 36 -89q0 -52 -36 -85q-41 -36 -119 -36q-81 0 -125 36q-40 31 -40 85z
M1029 815q-3 -69 -3 -159q0 -186 -1 -247v-91q-1 -33 -1 -72q-1 -16 -1 -37q-4 -145 -19.5 -239t-51.5 -154q-38 -63 -102 -93t-165 -30q-94 0 -162 31q-29 13 -52 32l52 101q16 -22 59 -34q22 -6 44 -6q51 0 79 34q52 64 66 255q6 95 6 217v333q0 87 -7 236l-68 4
q-54 2 -83 2q-76 0 -170 -6l-36 -3q-4 -70 -5 -118q-3 -76 -3 -167v-233q0 -137 8 -267l3 -39l5 -65h-279q9 113 14 221q3 68 3 150v239q0 129 -9 298l-3 47l-5 70h901q-9 -71 -14 -210z" />
    <glyph glyph-name=".notdef" horiz-adv-x="605" 
 />
    <glyph glyph-name=".null" horiz-adv-x="0" 
 />
    <glyph glyph-name="nonmarkingreturn" horiz-adv-x="666" 
 />
    <glyph glyph-name="space" unicode=" " horiz-adv-x="605" 
 />
    <glyph glyph-name="exclam" unicode="!" horiz-adv-x="631" 
d="M477 1455q-24 -124 -38 -317q-13 -168 -21 -372q-9 -212 -12 -439l-183 -3q-4 207 -14 440q-10 232 -19 373q-14 210 -28 318h315zM186 176q44 36 130 36q82 0 121 -33.5t39 -89.5q0 -52 -37 -85q-41 -36 -123 -36q-84 0 -130 36q-41 32 -41 85t41 87z" />
    <glyph glyph-name="quotedbl" unicode="&#x22;" horiz-adv-x="754" 
d="M328 1462q-24 -225 -37 -383q-7 -89 -12 -165h-142q-12 173 -27 342l-22 206h240zM681 1459q-21 -183 -37 -383q-7 -88 -12 -165h-142q-12 173 -27 342l-22 206h240z" />
    <glyph glyph-name="numbersign" unicode="#" horiz-adv-x="1154" 
d="M1076 938v-145l-60 4l-133 7q-24 0 -36 1l-78 -277l83 4q74 3 112 7v-145l-59 4q-47 3 -130 6l-38 2q-41 -158 -68 -283l-18 -90q-7 -34 -8 -33h-155q1 0 13 34q30 88 70 220l46 154q-34 2 -53 2h-54q-54 0 -148 -2q-40 -153 -68 -284l-14 -63l-6 -27l-7 -34h-154
q2 2 11 33q29 85 70 219q22 73 45 153l-74 -3l-56 -3l-47 -3v144q51 -5 123 -9l89 -4l77 277q-56 -2 -75 -2l-56 -3l-46 -3v143q27 -2 122 -8q49 -4 89 -5q37 140 76 314q7 29 8 37l23 103h156q-43 -120 -93 -286q-15 -49 -50 -170q43 -1 130 -1q84 0 124 1q45 180 77 316
l24 102q8 38 7 38h156l-9 -27l-58 -184l-41 -132l-34 -110l83 4q74 3 112 7zM728 807q-34 2 -53 2h-54q-55 0 -149 -2l-78 -282h256z" />
    <glyph glyph-name="dollar" unicode="$" horiz-adv-x="1183" 
d="M1131 390q0 -98 -42.5 -176t-119.5 -133q-60 -44 -138 -71t-166 -37q2 -75 4 -110l9 -144h-148q8 108 13 249q-122 2 -239 37q-149 44 -261 133l63 145q89 -86 230 -140q56 -23 111 -35t100 -13q1 30 1 91v436q-118 61 -193 107q-148 88 -208 196q-32 57 -32 135
q0 75 28 143q55 135 241 184q70 19 158 23l-3 64l-9 145h148l-3 -47q-5 -108 -7 -161q207 -12 386 -109l-64 -146q-24 21 -70 44t-101 42q-82 28 -155 37v-4q-3 -97 -3 -195v-211q151 -75 230 -124q146 -92 208 -211q32 -66 32 -144zM548 925v223q0 46 -2 130
q-61 -9 -106 -37q-34 -22 -52 -56.5t-18 -79.5q0 -40 30.5 -75.5t88.5 -70.5q35 -22 59 -34zM855.5 230.5q22.5 40.5 22.5 85.5q0 51 -31 96t-88 88q-45 32 -98 62v-376q0 -54 1 -80q76 16 129 54q42 30 64.5 70.5z" />
    <glyph glyph-name="percent" unicode="%" horiz-adv-x="1863" 
d="M1037 977q84 142 158 295q23 45 46 97q6 11 16 33h196q-78 -112 -175 -266q-48 -76 -96 -159l-348 -572q-74 -125 -156 -293q-34 -69 -61 -131h-196q39 57 147 226l26 41l23 37q36 58 72 120zM301.5 684.5q-73.5 21.5 -126.5 64.5q-117 93 -117 264q0 93 33.5 162
t94.5 113q57 41 132 61.5t160 20.5q88 0 161.5 -21t126.5 -64q56 -45 86 -111.5t30 -153.5q0 -94 -33 -162.5t-94 -112.5q-57 -41 -132.5 -61.5t-160.5 -20.5q-87 0 -160.5 21.5zM330 817q53 -60 144 -60q41 0 77.5 16t62.5 48q57 68 57 198q0 129 -61 198q-53 59 -143 59
q-41 0 -77.5 -15.5t-62.5 -46.5q-57 -70 -57 -189q0 -142 60 -208zM1224.5 12.5q-73.5 21.5 -126.5 64.5q-117 93 -117 265q0 179 128 273q57 42 132 62.5t160 20.5q88 0 161.5 -21t126.5 -64q56 -45 86 -111.5t30 -154.5q0 -92 -33.5 -160.5t-94.5 -113.5
q-56 -41 -132 -61.5t-161 -20.5q-86 0 -159.5 21.5zM1253 145q53 -60 143 -60q89 0 141 64q56 67 56 198t-59 198q-53 59 -144 59q-41 0 -77 -16t-62 -47q-58 -69 -58 -199q0 -131 60 -197z" />
    <glyph glyph-name="ampersand" unicode="&#x26;" horiz-adv-x="1697" 
d="M1672 148q-41 -90 -112.5 -134.5t-163.5 -44.5q-95 0 -171.5 25.5t-141.5 73.5q-39 27 -75 65q-58 -46 -129 -86q-139 -78 -262 -78q-143 0 -263 36q-135 41 -211 125q-86 96 -86 238q0 149 109 261q94 98 286 182q-68 57 -106 121q-57 93 -57 196q0 155 128 234
q51 31 114 45.5t125 14.5q76 0 134.5 -21.5t98.5 -58.5q36 -34 55 -78t19 -88q0 -120 -86 -213q-50 -53 -115 -88q79 -64 161 -173q38 -51 71 -103.5t86 -141.5l21 -35l11 -19q57 67 109 144q125 182 201 374l112 -74q-153 -319 -333 -528l-22 -25q47 -71 82 -112
q84 -100 165 -100q60 0 112 47q19 18 35 38.5t36 50.5zM516 1180q0 -78 51 -147q36 -49 101 -94q136 91 136 249q0 61 -48 104q-20 17 -44 25.5t-45 8.5q-65 0 -107 -37q-44 -39 -44 -109zM931 221q-18 23 -52 73q-47 70 -85 133q-98 158 -183 254q-29 31 -53 51
q-120 -71 -185.5 -159t-65.5 -190q0 -76 31.5 -131.5t86.5 -90.5q48 -31 107.5 -46.5t117.5 -15.5q130 0 281 122z" />
    <glyph glyph-name="quotesingle" unicode="'" horiz-adv-x="385" 
d="M311 1462q-21 -183 -37 -383l-13 -165h-142q-12 173 -27 342q-9 100 -21 206h240z" />
    <glyph glyph-name="parenleft" unicode="(" horiz-adv-x="621" 
d="M377 -462q-80 112 -144 260q-62 144 -98 305q-45 191 -45 403q0 205 47 406q36 155 103 306q65 146 150 260h197q-64 -112 -118 -265q-50 -146 -80 -306q-37 -202 -37 -401q0 -194 36 -396q28 -159 79 -306q48 -147 115 -266h-205z" />
    <glyph glyph-name="parenright" unicode=")" horiz-adv-x="616" 
d="M244 1493q80 -114 143 -260q63 -148 99 -305q45 -198 45 -403t-47 -405q-36 -156 -103 -307q-65 -146 -150 -260h-197q64 114 117 265q55 159 82 306q36 195 36 401q0 194 -36 396q-25 142 -79 305q-52 151 -115 267h205z" />
    <glyph glyph-name="asterisk" unicode="*" horiz-adv-x="1031" 
d="M186 600q92 97 143 157q27 32 91 105q-183 44 -347 78l60 184q101 -48 195 -88l129 -57l-13 156q-7 88 -21 202h193q-2 -15 -4 -43q-12 -106 -18 -180q-5 -67 -13 -131l56 25q106 45 168 72l104 46l60 -184q-171 -33 -346 -75q34 -37 96 -108q72 -82 142 -159l-156 -113
q-93 167 -181 305l-78 -131l-102 -175z" />
    <glyph glyph-name="plus" unicode="+" horiz-adv-x="787" 
d="M693 756v-138q-53 4 -187 11q-19 1 -61 1q1 -81 5 -163l6 -88h-138q4 48 11 188q1 20 1 64q-69 -1 -144 -5l-21 -1l-87 -5v136q86 -6 186 -9l67 -2q-1 50 -6 162l-5 87h137q-6 -76 -10 -186q-1 -20 -1 -63q79 1 159 5z" />
    <glyph glyph-name="comma" unicode="," horiz-adv-x="525" 
d="M155 237q46 28 118 28q75 0 119 -33q53 -41 53 -134q0 -79 -34 -159q-27 -64 -74 -122q-49 -60 -108 -104l-81 41q107 107 143 196q17 42 17 71q-7 -1 -30 -1q-44 0 -89 14q-51 16 -74 57q-13 22 -13 54q0 59 53 92z" />
    <glyph glyph-name="hyphen" unicode="-" horiz-adv-x="732" 
d="M56 588q61 -5 185 -8q74 -2 119 -2q124 0 217 5q37 1 89 5v-133q-22 1 -89 5q-112 6 -219 6q-124 0 -216 -5l-86 -4v131z" />
    <glyph glyph-name="period" unicode="." horiz-adv-x="491" 
d="M123 184.5q43 34.5 128 34.5q83 0 123 -35q37 -33 37 -89q0 -51 -37 -84q-41 -36 -123 -36q-84 0 -130 36q-41 32 -41 84q0 55 43 89.5z" />
    <glyph glyph-name="slash" unicode="/" horiz-adv-x="727" 
d="M426 1018q44 123 106 326q14 45 43 145h158q-37 -87 -119 -295q-41 -106 -65 -176l-249 -664q-50 -142 -106 -323q-28 -94 -41 -143h-158q39 94 118 292q42 109 64 174z" />
    <glyph glyph-name="zero" unicode="0" horiz-adv-x="1212" 
d="M827.5 1358.5q96.5 -48.5 164.5 -138.5q68 -91 104 -220t36 -291q0 -170 -38 -307.5t-109 -235.5q-69 -95 -165.5 -146t-211.5 -52q-119 3 -216.5 53t-166.5 142q-71 94 -108 227.5t-37 300.5t39.5 301.5t112.5 228.5q72 93 169.5 141.5t210.5 48.5q119 -4 215.5 -52.5z
M422 221q37 -67 85.5 -98t104.5 -29q66 0 115.5 42t82.5 122q64 156 64 438q0 312 -82 466q-34 65 -81.5 94.5t-102.5 29.5q-135 0 -204 -160q-66 -154 -66 -434q0 -318 84 -471z" />
    <glyph glyph-name="one" unicode="1" horiz-adv-x="688" 
d="M16 1130l-43 147l43 9q188 37 306.5 64t235.5 63l-17 -441v-398q0 -212 8 -414l9 -160h-304l7 160q7 169 11 414l9 653z" />
    <glyph glyph-name="two" unicode="2" horiz-adv-x="1049" 
d="M985 172v-172h-956l1 113q73 93 150 183q181 216 280 345q131 170 182 301q26 69 26 128q0 83 -42 130q-35 38 -96 55q-40 11 -101 11q-73 0 -170 -54q-37 -20 -66.5 -42.5t-40.5 -35.5l-104 115q18 28 65 57t114 54q67 24 140 38t139 14q81 2 156 -12.5t133 -50.5
q138 -84 142 -265q1 -143 -113 -334q-47 -79 -109.5 -160t-143.5 -175q-76 -89 -132 -152q-72 -80 -112 -132v-8q224 4 439 24q94 8 219 25z" />
    <glyph glyph-name="three" unicode="3" horiz-adv-x="1118" 
d="M1015 419q0 -98 -43.5 -180.5t-123.5 -142.5q-80 -61 -189 -93.5t-237 -32.5q-85 0 -168 26q-67 21 -133 58q-64 37 -117 84l97 111q37 -43 82 -74t105 -54q59 -24 137 -24q84 0 147.5 30.5t104.5 84.5q34 43 51 98.5t17 113.5l-1 24q-3 59 -31.5 110.5t-80.5 89.5
q-53 39 -128 59.5t-167 17.5h-1l-2 106q13 -1 37 -1q70 0 127.5 18.5t99.5 51.5q43 34 66.5 82t23.5 102q0 45 -18 84t-52 66q-67 51 -175 51q-103 0 -182 -35q-48 -21 -82 -53l-65 107q7 11 32 30q53 41 178 65q65 13 161 13q202 0 324 -70q147 -85 147 -252
q0 -63 -29.5 -122t-82.5 -104q-74 -63 -173 -83q34 -7 70 -18q126 -41 194 -118q80 -91 80 -226z" />
    <glyph glyph-name="four" unicode="4" horiz-adv-x="1159" 
d="M901 358v-24q0 -133 9 -241l9 -93h-314q8 66 15 199q3 60 3 135v24l-589 2v106l573 913h315q-12 -144 -18 -329q-3 -87 -3 -167v-381q110 9 164 15l71 9v-169zM623 484v403q0 111 -2 168l-3 83q0 11 -1 16l-428 -685q205 4 434 15z" />
    <glyph glyph-name="five" unicode="5" horiz-adv-x="1113" 
d="M980.5 668.5q39.5 -80.5 39.5 -179.5q0 -133 -47 -233t-132 -166q-79 -61 -186.5 -91.5t-229.5 -30.5q-101 0 -189 39q-67 30 -119 74q-18 15 -30 29q-11 13 -11 14l98 107q24 -38 56.5 -66t77.5 -49t108 -21q58 0 117.5 23t108.5 67q53 48 83.5 120t30.5 167
q0 74 -27 131t-75 96q-45 36 -104 54.5t-123 18.5q-37 0 -111 -13q-50 -10 -116 -27l-4 648h748l2 -209q-192 16 -438 20q-31 1 -96 1q-64 0 -97 -1v-309q47 16 94 25q58 13 132 13q91 0 177 -29t153 -84q70 -58 109.5 -138.5z" />
    <glyph glyph-name="six" unicode="6" horiz-adv-x="1234" 
d="M1134 422q0 -113 -39 -199t-110 -144q-66 -54 -154.5 -81.5t-189.5 -28.5h-2h-2v0q-105 1 -198.5 30.5t-162.5 87.5q-76 63 -118 159.5t-42 224.5q1 327 129 542q114 193 326 287q190 84 449 86l22 -142q-223 1 -369 -95q-127 -84 -197 -247q-38 -87 -60 -192
q23 36 54 62q81 70 201 70q103 0 187.5 -25.5t145.5 -75.5q130 -109 130 -319zM878 421q0 156 -83 236q-36 34 -84 51t-99 17q-48 0 -90.5 -20t-74.5 -58q-72 -85 -72 -237q0 -165 72 -244q61 -68 171 -68t177 66q83 81 83 257z" />
    <glyph glyph-name="seven" unicode="7" horiz-adv-x="1167" 
d="M1155 1380l-114 -215l-650 -1164h-188q-1 1 19 37l134 239q25 44 135 237l69 121l94 163q10 16 14 24l43 75q43 73 57 98l98 169q-213 -2 -451 -12q-171 -7 -271 -13l1 241h1010z" />
    <glyph glyph-name="eight" unicode="8" horiz-adv-x="1254" 
d="M1115.5 542q28.5 -55 28.5 -131q0 -101 -38 -183t-109 -140t-170 -89.5t-218 -31.5q-103 0 -194 29t-159 82q-69 54 -107.5 126.5t-38.5 158.5q0 101 67 185q50 62 147 119q72 39 151 65q-60 24 -103.5 45.5t-77.5 46.5q-52 38 -80 88.5t-27 118.5q2 87 37.5 158
t99.5 122q62 49 145.5 75t179.5 26q88 0 165.5 -26t135.5 -73q57 -46 88.5 -108t31.5 -130q0 -101 -84 -190q-62 -65 -157 -114l-40 -20q85 -29 141.5 -53.5t102.5 -58.5q54 -42 82.5 -97zM429 1060q0 -69 29 -118t83 -85q48 -31 104 -53q45 30 88 73q62 58 91 124
q16 33 16 72q0 108 -74 166q-30 23 -64.5 34.5t-65.5 11.5t-66 -12.5t-66 -37.5q-75 -63 -75 -175zM883 370q0 72 -28 126t-81 95q-52 40 -149 83q-63 -30 -118 -74q-59 -48 -92 -101q-42 -67 -42 -137q0 -69 24 -120.5t66 -86.5q36 -31 79.5 -46t83.5 -15q36 0 80.5 15.5
t81.5 46.5q95 77 95 214z" />
    <glyph glyph-name="nine" unicode="9" horiz-adv-x="1227" 
d="M1086 1142.5q42 -94.5 42 -222.5q-4 -331 -130 -543q-114 -194 -328 -289q-192 -86 -450 -88l-21 157q15 -1 44 -1q188 0 321 88q125 82 202 251q37 81 63 188q-20 -35 -47 -57q-76 -67 -209 -71q-213 0 -332 99q-131 107 -131 315q0 114 39 198.5t110 140.5
q66 51 154 77t190 27h2h2v0q106 -1 199 -28.5t163 -84.5q75 -62 117 -156.5zM798 737q71 78 71 228q0 166 -72 246q-63 70 -171 70q-112 0 -176 -59q-84 -77 -84 -252q0 -156 84 -233q72 -66 182 -66q104 0 166 66z" />
    <glyph glyph-name="colon" unicode=":" horiz-adv-x="491" 
d="M123 1018q43 34 128 34q83 0 123 -35q37 -33 37 -88q0 -54 -37 -85q-42 -35 -123 -35q-83 0 -130 35q-41 31 -41 85q0 55 43 89zM123 184.5q43 34.5 128 34.5q83 0 123 -35q37 -33 37 -89q0 -51 -37 -84q-41 -36 -123 -36q-84 0 -130 36q-41 32 -41 84q0 55 43 89.5z" />
    <glyph glyph-name="semicolon" unicode=";" horiz-adv-x="528" 
d="M160 1018q43 34 128 34q83 0 123 -35q37 -33 37 -88q0 -54 -37 -85q-42 -35 -123 -35q-83 0 -130 35q-41 31 -41 85q0 55 43 89zM155 213q46 28 118 28q75 0 119 -33q53 -41 53 -134q0 -79 -34 -159q-27 -64 -74 -122q-49 -60 -108 -104l-81 41q107 107 143 196
q17 42 17 71q-7 -1 -30 -1q-44 0 -89 14q-51 16 -74 57q-13 22 -13 54q0 59 53 92z" />
    <glyph glyph-name="less" unicode="&#x3c;" horiz-adv-x="1098" 
d="M93 732l170 73l75 32l77 34l45 20l31 14l69 30l97 44l41 19q46 21 138 66q49 24 147 74v-138l-148 -65l-138 -60q-179 -78 -299 -135l-160 -77l75 -35q57 -28 85 -40l85 -39l75 -35q110 -49 277 -122l148 -64v-140l-147 74l-38 19q-32 16 -100 48l-71 33q-26 12 -67 30
l-69 31l-76 33l-123 53l-29 13l-170 74v136z" />
    <glyph glyph-name="equal" unicode="=" horiz-adv-x="839" 
d="M92 890q82 -6 185 -9q74 -2 120 -2q124 0 217 5l88 6v-134q-76 6 -186 10q-74 2 -121 2q-124 0 -216 -5l-87 -5v132zM92 587q61 -5 185 -8q74 -2 120 -2q124 0 217 5q35 1 88 5v-133q-76 6 -186 10q-74 2 -121 2q-124 0 -216 -5l-87 -5v131z" />
    <glyph glyph-name="greater" unicode="&#x3e;" horiz-adv-x="1098" 
d="M986 598l-170 -73q-74 -31 -152 -66l-76 -34q-42 -18 -136 -60q-48 -21 -142 -67l-66 -33l-147 -74v138l119 52q110 48 167 74q187 82 299 135l160 77l-75 35l-85 39l-86 40l-75 35l-138 61q-31 14 -60.5 26.5t-56.5 24.5l-169 74v139q98 -50 147 -74q60 -31 137 -66
q77 -36 138 -63l145 -64q68 -32 152 -67q56 -25 170 -73v-136z" />
    <glyph glyph-name="question" unicode="?" horiz-adv-x="890" 
d="M74 1392q65 29 142 45t155 16q94 0 179.5 -25t149.5 -76q63 -50 98 -126t35 -178q0 -114 -71 -188q-24 -26 -50.5 -45t-78.5 -53q-11 -6 -23 -14q-51 -33 -84.5 -59t-57.5 -60q-48 -68 -48 -161q0 -23 3 -49l-206 -1q-11 66 -11 113q0 88 30 153q19 44 49.5 78.5
t73.5 68.5q48 38 73 56q82 61 114 132q18 41 18 98q0 77 -25.5 128t-70.5 77q-51 30 -123 30q-31 0 -71 -7q-48 -10 -88 -29t-61 -41zM226 177q45 37 130 37q83 0 124 -36q37 -33 37 -89q0 -55 -37 -85q-43 -35 -124 -35q-83 0 -130 35q-41 31 -41 85t41 88z" />
    <glyph glyph-name="at" unicode="@" horiz-adv-x="1776" 
d="M1081 150q-30 50 -30 130q-37 -68 -111 -113q-91 -55 -216 -55q-62 0 -111 18.5t-82 54.5q-62 65 -62 181q0 52 19 99t59 82q84 72 233 72q55 0 146 -7q95 -7 121 -11v54q0 81 -39 131q-47 58 -148 58q-57 0 -110 -16t-111 -51l-40 93q120 77 289 77q175 0 273 -77
q49 -39 75 -94t26 -124l-3 -329q0 -53 7 -73q12 -36 47 -36q17 0 40 6t46 18q62 34 96 98q43 81 43 212q-1 127 -43.5 236t-123.5 189q-84 82 -202.5 127t-268.5 46q-140 0 -270 -45q-170 -59 -269 -188q-122 -159 -122 -407q0 -128 45 -243t129 -202q86 -90 205.5 -141
t263.5 -52h12q95 0 187 20q118 26 207 78l22 -92q-98 -54 -198.5 -79.5t-209.5 -25.5h-16q-160 0 -299 53t-243 151q-105 100 -162.5 236.5t-57.5 301.5q0 249 113 422q103 156 288 237q171 75 384 75q160 0 296.5 -47t236.5 -136q101 -92 156 -223.5t55 -295.5
q-1 -121 -36.5 -210.5t-99.5 -147.5q-58 -53 -136 -79.5t-166 -26.5q-92 0 -134 71zM1046 506l-25 3q-37 5 -86 8q-32 2 -57 2q-38 0 -69 -5q-81 -13 -115 -70q-18 -31 -18 -78q0 -66 51 -105q21 -16 45.5 -24t46.5 -8q49 0 90.5 15t72.5 42q30 25 46.5 57.5t17.5 65.5v97z
" />
    <glyph glyph-name="A" unicode="A" horiz-adv-x="1472" 
d="M847 1380l372 -908q79 -193 151 -336q41 -81 70 -136h-360q2 0 -6 26q-13 46 -54 169l-40 120q-15 3 -85 8q-53 4 -169 4h-178q-97 0 -142 -4l-77 -6l-40 -99q-30 -71 -68 -169l-19 -49h-182l12 24q38 73 78 156q44 90 108 229l51 113l371 858h207zM377 447q48 -3 85 -3
h76h190q153 0 208 4l-276 691z" />
    <glyph glyph-name="B" unicode="B" horiz-adv-x="1308" 
d="M175 932q0 163 -12 307q-3 55 -11 141h125q47 0 133 2t127 2t61 1q80 2 126 2q20 0 72 -2q76 -8 141.5 -35t113.5 -70q48 -44 74.5 -100t26.5 -120q0 -63 -25.5 -115.5t-73.5 -92.5q-97 -79 -260 -97q203 -19 309 -91q132 -91 132 -262q0 -93 -38.5 -170t-112.5 -131
q-76 -56 -185.5 -84t-248.5 -25q-208 8 -311 8h-180q10 180 14 284q3 80 3 163v485zM468 1273l-17 1v-483h30q8 -1 29 -1q10 0 17 1h23q14 0 21 1h15q20 0 49.5 5.5t60.5 16.5q78 28 126 82q58 67 57 166q-4 109 -75 164q-69 52 -189 52q-33 0 -52 -1q-41 -3 -78 -3z
M878 591q-62 54 -174 77q-81 15 -185 15h-68v-201v-106q0 -55 2 -145l1 -49l3 -75q28 0 82 -2q32 -2 49 -2l36 1q332 8 332 299q0 120 -78 188z" />
    <glyph glyph-name="C" unicode="C" horiz-adv-x="1333" 
d="M1264 72q-96 -58 -250 -88q-77 -16 -183 -16q-163 0 -301 50.5t-239 144.5q-102 95 -157 226.5t-55 289.5q0 249 110 423q101 158 276 237q162 73 361 73q162 0 315 -47q62 -20 114 -47l-68 -141q0 1 -26 18q-67 43 -182 73q-63 16 -137 16q-123 0 -225 -56
q-117 -65 -183 -189q-78 -143 -78 -357q0 -123 32.5 -229.5t93.5 -186.5q61 -81 146.5 -126t185.5 -46q139 0 279 61q56 24 81 41q29 18 29 19z" />
    <glyph glyph-name="D" unicode="D" horiz-adv-x="1567" 
d="M174 943q0 118 -11 301q-3 54 -11 136h175q55 0 127 4l85 4l87 3q75 4 138 4q168 0 303 -45t229 -132q94 -88 143 -216.5t49 -293.5q0 -160 -46.5 -292.5t-136.5 -228.5q-93 -98 -229 -151t-310 -53q-10 0 -56 2l-77 3q-58 2 -89 4l-92 4l-85 3q-27 1 -69 1h-141
q10 186 14 291q3 81 3 162v490zM447 1257v-804q0 -67 4 -179q1 -15 1 -43q1 -24 2 -50.5t3 -54.5l267 -4q97 -1 182.5 37.5t150.5 113.5q67 77 104 185.5t37 245.5q0 116 -26.5 217t-80.5 174q-125 166 -369 166z" />
    <glyph glyph-name="E" unicode="E" horiz-adv-x="1169" 
d="M162 934q0 162 -12 306q-4 58 -11 140h908v-155q-130 13 -347 22q-112 4 -260 6v-464q264 6 372 10l68 3l89 5v-155q-185 10 -325 15q-125 4 -204 5l1 -547q233 4 440 17q96 4 176 12v-154h-912q10 180 14 284q3 80 3 163v487z" />
    <glyph glyph-name="F" unicode="F" horiz-adv-x="1174" 
d="M175 935q0 161 -12 305q-4 58 -11 140h909v-154q-159 15 -384 24q-74 3 -224 5v-465q262 5 372 10l68 3l89 5v-155q-189 10 -324 14q-125 4 -205 5v-225q0 -162 12 -306q4 -73 12 -141h-319q10 180 14 284q3 80 3 163v488z" />
    <glyph glyph-name="G" unicode="G" horiz-adv-x="1507" 
d="M1240 1185l-39 20q-81 39 -190 65q-64 14 -125 14q-122 0 -219.5 -44.5t-165.5 -125.5q-66 -78 -101 -184.5t-35 -227.5q0 -124 36.5 -233t104.5 -191q67 -83 159 -131t199 -52q159 0 287 71q-7 59 -12 202q-6 132 -6 303h248v-273q0 -119 6 -215q3 -48 7 -73
q-63 -40 -139 -69t-175 -51q-98 -22 -227 -22q-158 0 -296.5 52t-242.5 148q-106 98 -165 232.5t-59 295.5q0 252 128 425q114 156 311 231q156 59 334 59q37 0 55 -1q112 -9 252 -40l91 -24q30 -9 43 -14z" />
    <glyph glyph-name="H" unicode="H" horiz-adv-x="1658" 
d="M1483 451q0 -175 11 -309q6 -93 11 -142h-300v643q-87 4 -146 5l-63 1q-106 2 -164 2q-72 0 -186 -2l-55 -1q-54 -1 -138 -5v-196q0 -174 11 -306q6 -94 11 -141h-317q10 180 14 284q3 80 3 163v482q0 162 -12 308q-3 56 -11 142h301v-598q89 -4 140 -5l55 -1
q114 -2 186 -2q86 0 224 2q91 1 147 4v154q0 162 -12 306q-3 55 -11 141h318q-9 -119 -14 -284q-3 -81 -3 -163v-482z" />
    <glyph glyph-name="I" unicode="I" horiz-adv-x="618" 
d="M171 940q0 134 -10 302l-9 138h314q-12 -128 -16 -279q-3 -78 -3 -161v-493q0 -155 9 -306q6 -92 10 -141h-314q10 130 16 284q3 80 3 163v493z" />
    <glyph glyph-name="J" unicode="J" horiz-adv-x="663" 
d="M187 47q29 127 29 359v502q0 134 -8 318l-8 154h311l-1 -22q-4 -57 -8 -152q-2 -38 -3.5 -92.5t-2.5 -82.5l-1 -54q-2 -82 -2 -119v-501q0 -333 -126 -491q-109 -137 -320 -158q-26 -2 -38 -2q-69 0 -131 26q-28 10 -43 22q-15 10 -18 9l33 88q10 3 34 3q64 -2 128 9
q42 8 77 26q69 32 98 158z" />
    <glyph glyph-name="K" unicode="K" horiz-adv-x="1541" 
d="M1530 34l-5 -27q-28 -14 -99 -23q-38 -5 -80 -5q-123 0 -226 120q-95 110 -169 317q-42 97 -101 151q-41 37 -93 54q-17 5 -31 7h-16q-56 0 -110 -44l-29 -24l-109 -124q0 -166 11 -293q5 -76 12 -143h-331q8 108 15 287q3 80 3 163v479q0 162 -12 308q-4 74 -12 142h315
l-1 -740l456 511q61 69 128 151l63 78h207q-49 -40 -134 -128q-51 -55 -101 -115l-389 -440q36 20 76 36q56 21 124 21q45 0 92.5 -16t91.5 -50q103 -79 163 -226q54 -132 117 -235q50 -85 92 -128q48 -51 82 -64z" />
    <glyph glyph-name="L" unicode="L" horiz-adv-x="1116" 
d="M171 916q0 139 -10 315l-9 149q84 -2 125 -2q63 0 189 2q-11 -151 -15 -298q-3 -82 -3 -166v-469q0 -96 3 -180l2 -79l3 -65q240 4 427 16q98 4 184 12v-151h-915q10 130 16 284q3 80 3 163v469z" />
    <glyph glyph-name="M" unicode="M" horiz-adv-x="1944" 
d="M1495 165v106q-1 37 -1 117l-3 119l-12 320l-3 64q-2 92 -4 132l-3 55l-34 -70q-22 -43 -39 -82l-42 -86l-39 -82l-334 -758h-190l-355 857q-29 65 -51 123l-44 103l-1 -28l-3 -54l-6 -98l-12 -466q-2 -84 -2 -125q0 -73 2 -173q0 -76 1 -101l1 -38h-181l3 24
q7 80 13 167l4 62l12 186l6 125l11 339q4 113 4 252v69l-3 156h363q11 -65 78 -251q42 -114 137 -355l13 -33l29 -72l27 -67.5t33 -81.5l91 -227l264 616q46 112 126 322q19 49 40 108q15 41 14 41h353q-7 -79 -7 -198l-1 -88q0 -103 4 -192l18 -455q3 -115 19 -306
q7 -90 13 -141h-311l1 21v58q0 53 1 86z" />
    <glyph glyph-name="N" unicode="N" horiz-adv-x="1523" 
d="M1246 0q-242 257 -416 436q-120 125 -216 221q-120 120 -188 183q-78 73 -121 101l8 -423q11 -231 23 -369q4 -69 9 -109l3 -40h-191q0 49 3 142l1 54q4 172 4 281v457q0 152 -7 329l-6 117h123q249 -267 423 -449q161 -171 319 -331q158 -162 204 -199l-10 461
q-10 232 -23 376l-3 36q-10 100 -11 106h192q0 -46 -1 -80l-6 -252q-2 -98 -2 -144v-457q0 -197 7 -330q3 -78 7 -117h-125z" />
    <glyph glyph-name="O" unicode="O" 
d="M1146 1361.5q141 -50.5 244 -145.5q104 -95 160 -228t56 -293q0 -235 -109 -407q-100 -157 -278 -241q-167 -79 -371 -79q-167 0 -308 49.5t-244 143.5q-104 94 -160.5 226t-56.5 292q0 231 110 405q101 158 279 245q84 41 178 62t193 21q166 0 307 -50.5zM732.5 1267.5
q-57.5 -16.5 -110.5 -49.5q-118 -72 -187 -198q-78 -145 -78 -333q0 -123 33 -230t95 -187q64 -83 154 -128.5t201 -46.5q85 0 171 36.5t155 107.5q75 77 118.5 190.5t43.5 260.5q0 122 -33 230t-95 189q-64 83 -154 128.5t-200 46.5q-56 0 -113.5 -16.5z" />
    <glyph glyph-name="P" unicode="P" horiz-adv-x="1298" 
d="M452 440q0 -151 9 -302q5 -89 10 -138h-311q0 28 3 79l10 251q2 96 2 144v445q0 162 -12 313q-4 61 -11 148h187q99 0 176 7t154 7q273 0 419 -114q67 -54 101 -130.5t34 -170.5q0 -145 -113 -240q-104 -88 -284 -124q-107 -22 -233 -22q-57 0 -141 7v-160zM549 1273
q-53 -5 -97 -5v-572q40 -2 78 -2q116 0 213 30q120 37 172 130q28 49 28 122q0 296 -312 302q-30 0 -82 -5z" />
    <glyph glyph-name="Q" unicode="Q" 
d="M1146 1361.5q141 -50.5 244 -145.5q104 -95 160 -228t56 -293q0 -229 -100 -396q-93 -155 -256 -238q60 -5 124.5 -28t144.5 -63l146 -76q168 -90 335 -131q95 -23 197 -23q188 0 344 22q129 18 215 49q96 32 143 71l44 -85q-69 -62 -180 -112q-112 -50 -238 -77
q-166 -36 -349 -36q-231 0 -430 79q-81 32 -155.5 72.5t-175.5 103.5q-105 65 -177.5 106t-153.5 76q-46 -19 -111 -30q-56 -11 -125 -11q-167 0 -308 50.5t-244 144.5q-104 95 -161 228t-57 293q0 234 115 406q104 158 283 242q83 39 176 59.5t187 20.5q166 0 307 -50.5z
M846 1284q-53 0 -108.5 -16t-108.5 -47q-121 -73 -191 -196q-82 -146 -82 -336q0 -122 33 -229.5t95 -188.5q63 -83 150.5 -129t193.5 -47h12q86 0 171.5 35.5t154.5 105.5q75 76 118.5 190t43.5 264q0 121 -33 229t-93 190q-62 82 -149.5 128t-193.5 47h-13z" />
    <glyph glyph-name="R" unicode="R" horiz-adv-x="1487" 
d="M1452 5q-23 -8 -46 -13q-38 -8 -78 -8q-41 0 -76 5q-116 27 -224 175q-45 61 -88 138.5t-91 176.5q-42 70 -78 101q-21 17 -48.5 27t-67.5 15q-64 -2 -97 -2h-108v-175q0 -172 11 -304q6 -94 11 -141h-315l2 21l8 138q3 70 7 217q1 39 1 118v431q0 161 -12 310
q-3 57 -11 145q174 0 307 5t235 5q553 0 553 -398q0 -125 -93 -213q-90 -84 -245 -123q78 -7 139 -46q73 -48 116 -149q65 -147 119 -236q52 -86 93 -129q46 -51 81 -64zM550 1268l-55 -4q-36 -2 -45 -2v-545q63 -3 82 -3q51 0 108 6q138 15 222 69q107 70 107 201
q0 282 -334 282q-23 0 -85 -4z" />
    <glyph glyph-name="S" unicode="S" horiz-adv-x="1219" 
d="M129 283q89 -87 229 -140q59 -23 116.5 -35.5t102.5 -12.5q73 0 133.5 17t103.5 48q42 30 64 70.5t22 85.5q0 51 -31 96t-88 88q-51 37 -123 76l-19 10q-177 93 -261 143q-148 88 -208 196q-32 57 -32 135q0 75 28 143q56 136 240 184q93 25 232 25q237 0 438 -110
l-63 -146q-24 21 -70 44t-101 42q-56 19 -110 30t-94 11q-110 0 -175 -42q-34 -22 -52 -56.5t-18 -79.5q0 -40 30.5 -75.5t88.5 -70.5q51 -32 122 -66q179 -87 280 -148q146 -92 208 -211q32 -66 32 -144q0 -98 -42.5 -176t-119.5 -133q-78 -56 -184 -84.5t-225 -28.5
q-130 0 -256 37q-151 45 -262 133z" />
    <glyph glyph-name="T" unicode="T" horiz-adv-x="1128" 
d="M425 1261q-128 -6 -278 -22q-34 -4 -50 -5l-78 -9v155h1089v-155q-99 14 -252 27l-155 9v-816q0 -136 8 -304l9 -141h-310q10 178 14 284q3 80 3 161v816z" />
    <glyph glyph-name="U" unicode="U" horiz-adv-x="1606" 
d="M429 687q0 -305 102 -448q101 -144 321 -144q207 0 319 129q126 145 127 455v247q0 135 -10 309l-9 145h184q-11 -143 -15 -291q-3 -81 -3 -163v-250q0 -371 -168 -547q-156 -162 -462 -162q-258 0 -409 88q-138 80 -195 232q-51 132 -51 329v305q0 114 -9 312l-8 147
h302q-10 -186 -13 -294q-3 -82 -3 -165v-234z" />
    <glyph glyph-name="V" unicode="V" horiz-adv-x="1459" 
d="M819 -1l-207 1l-372 908q-94 224 -151 336q-41 81 -70 136h360v-1q0 -2 5 -22q14 -53 46 -153q47 -146 79 -235q23 -64 48 -126l242 -601l287 686q66 170 117 305l21 57l34 90h181l-12 -24l-32 -64q-25 -50 -97 -203q-63 -131 -106 -231z" />
    <glyph glyph-name="W" unicode="W" horiz-adv-x="2064" 
d="M1340 0q-14 35 -26 75q-11 33 -13 40q-46 137 -69 203q-34 97 -64 172l-128 323l-128 -307q-74 -192 -113 -297q-52 -142 -78 -209h-257l-303 940q-58 181 -120 339q-32 76 -44 101h351q4 -19 14 -59l20 -77q23 -95 70 -254q3 -13 7 -23l92 -306l50 -166l69 -233l390 904
l115 1l354 -898l185 606q65 212 102 362l25 105l8 38h193q-43 -109 -107 -282l-57 -162l-167 -489q-54 -151 -108 -330l-24 -87l-8 -30h-231z" />
    <glyph glyph-name="X" unicode="X" horiz-adv-x="1444" 
d="M591 699l-162 228q-110 155 -246 328q-58 74 -101 125h385l23 -41q56 -99 160 -264q52 -84 123 -190q82 107 172 231q102 141 134 187q23 31 39 56l14 21h229q-86 -101 -121 -145l-118 -145q-60 -72 -129 -161l-134 -173l4 -5q1 -3 4 -6.5t6 -7.5l23 -31l99 -139l87 -123
q132 -188 243 -324q67 -82 100 -120h-383q-1 2 -7.5 13t-21.5 36q-46 79 -192 304q-82 128 -142 215q-92 -115 -199 -258l-125 -166l-38 -51l-50 -68l-18 -25h-230l16 18l106 122q69 80 162 194l87 108z" />
    <glyph glyph-name="Y" unicode="Y" horiz-adv-x="1239" 
d="M744 676q0 -56 2 -186l1 -105q1 -131 7 -266l3 -66l1 -20q1 -30 4 -33h-300l2 20l8 136q3 67 7 212q1 39 1 116v159l-179 294q-115 188 -209 325q-56 81 -83 118h373q0 -4 22 -47q47 -100 152 -299q46 -88 120 -221l84 131l158 248q70 110 102 163q15 24 14 25h196
l-29 -38q-74 -98 -175 -242q-74 -106 -109 -161z" />
    <glyph glyph-name="Z" unicode="Z" horiz-adv-x="1263" 
d="M222 277q62 101 104 175l294 493q81 130 191 317q-277 -5 -529 -22q-101 -8 -171 -15v156q95 -1 252 -1h193q56 -1 147 -1h112h92h82q55 0 85 1h101q-63 -90 -152 -240q-51 -87 -108 -196l-275 -492q-118 -209 -182 -338q334 5 571 22q122 8 188 16v-154l-1171 2
q69 105 176 277z" />
    <glyph glyph-name="bracketleft" unicode="[" horiz-adv-x="764" 
d="M172 808q0 156 -4 284l-3 95q-1 75 -5 157l-3 80l-2 29h120h98q60 0 158 2q78 0 157 4v-131q-82 10 -142 15q-55 4 -88 5q-4 -67 -5 -128l-3 -74q-4 -103 -4 -239v-870q0 -131 4 -227l4 -103l3 -86q93 5 162 11l29 3l40 5v-129l-115 2q-138 2 -239 2h-179l2 38l12 302
q3 91 3 182v771z" />
    <glyph glyph-name="backslash" unicode="\" horiz-adv-x="770" 
d="M606 354q46 -129 123 -323l20 -49q17 -44 39 -94h-157q-37 130 -88 292q-17 53 -59 174l-250 664q-47 134 -124 326l-60 145h159q30 -112 90 -295q18 -56 59 -176z" />
    <glyph glyph-name="bracketright" unicode="]" horiz-adv-x="745" 
d="M572 160q0 -156 4 -283l3 -94q1 -74 5 -159l3 -60l1 -20l1 -30h-172q-97 0 -241 -2l-121 -3v130q84 -10 143 -14q41 -5 87 -6q4 64 9 202q4 103 4 240v869q0 132 -4 229l-3 67q-1 59 -5 120q-90 -4 -162 -11l-29 -3l-40 -5v129q85 -3 226 -3q38 -1 130 -1h178
q-9 -148 -14 -340q-3 -91 -3 -182v-770z" />
    <glyph glyph-name="asciicircum" unicode="^" horiz-adv-x="1180" 
d="M666 1379l56 -118l20 -41l34 -69q11 -25 35 -73l35 -70l31 -65q32 -67 66 -127q33 -59 69 -128q12 -24 30.5 -56.5t28.5 -51.5l17 -30l-177 2q-26 58 -47.5 102.5t-37.5 78.5l-32 66l-57 114l-144 280l-139 -280q-46 -89 -115 -232q-21 -43 -61 -129l-178 -2
q20 35 131 240l14 26q36 68 65 127l67 135l35 73l34 69l77 159h143z" />
    <glyph glyph-name="underscore" unicode="_" horiz-adv-x="850" 
d="M30 -124q78 -5 236 -8q94 -2 151 -2q155 0 273 5q46 1 114 5v-124q-30 1 -115 5q-144 6 -275 6q-158 0 -273 -5l-111 -4v122z" />
    <glyph glyph-name="grave" unicode="`" horiz-adv-x="613" 
d="M320 1390q26 -43 63 -93q14 -21 35 -45l130 -149h-169l-122 129q-43 43 -110 97q-37 30 -65 49z" />
    <glyph glyph-name="a" unicode="a" horiz-adv-x="1180" 
d="M773 0l1 12q0 17 1 28q3 66 3 78l2 64q-67 -99 -176 -154q-104 -52 -219 -52q-154 0 -238 78q-88 82 -88 242q0 61 19.5 118t61.5 103q100 107 306 107q53 0 151 -7l33 -2q85 -6 153 -14v72q0 125 -65 193q-29 31 -69.5 46t-87.5 15q-90 0 -174 -32q-73 -28 -120 -63
l-47 117q73 47 167.5 73.5t207.5 26.5q214 0 324.5 -97t110.5 -282v-265q0 -139 7 -265q1 -55 6 -91q3 -37 6 -49h-276zM783 486q-24 4 -112 11q-86 7 -145 7q-129 0 -183 -78q-35 -51 -35 -126q0 -85 68 -139q27 -22 58.5 -33t59.5 -11q62 0 115 19t92 53q37 33 58 75.5
t24 90.5v131z" />
    <glyph glyph-name="b" unicode="b" horiz-adv-x="1305" 
d="M1142 154q-105 -146 -312 -168q-35 -5 -61 -5q-34 0 -69 6q-116 10 -193 67q-65 48 -101 119l3 -52q2 -52 4 -75l3 -46h-278q9 113 14 221q3 68 3 150v608q0 183 -8 347l-5 94q-3 33 -4 33h278q-9 -102 -14 -278q-3 -87 -3 -195v-137q48 90 125 141q98 65 242 65
q119 0 209 -38.5t150 -111.5q58 -71 86.5 -169.5t28.5 -218.5q0 -222 -98 -357zM917 783q-73 110 -204 110q-123 0 -199 -63q-106 -87 -115 -282v-81q9 -187 114 -273q42 -35 94 -50t106 -15q65 0 115.5 27.5t84.5 79.5q34 50 51.5 119.5t17.5 153.5q0 172 -65 274z" />
    <glyph glyph-name="c" unicode="c" horiz-adv-x="1073" 
d="M904 1006q55 -18 98 -42l-48 -123q-85 49 -181 73q-51 13 -109 13q-64 0 -125.5 -27t-108.5 -80q-51 -58 -79 -142t-25 -191q1 -78 23 -147.5t64 -122.5q44 -56 105.5 -87t140.5 -32q83 0 194 48q41 18 74.5 37.5t46.5 30.5l41 -104q-21 -21 -58.5 -43.5t-85.5 -42.5
q-112 -47 -219 -48q-125 0 -231 32t-184 95q-82 67 -127 166.5t-45 232.5q0 185 88 315q81 119 221 177q131 55 290 55q119 -1 240 -43z" />
    <glyph glyph-name="d" unicode="d" horiz-adv-x="1314" 
d="M92 729.5q29 98.5 87 169.5q125 150 368 150q136 0 231 -65q75 -52 125 -140v136q0 178 -8 344q-3 62 -6 96l-3 33h279q-9 -101 -14 -277q-3 -87 -3 -197v-608q0 -137 8 -267l9 -104h-279l3 45q1 9 2 22t2 32l3 73q-44 -76 -100 -118q-78 -58 -193 -68q-35 -5 -64 -5
q-28 0 -66 5q-207 22 -312 168q-98 135 -98 357q0 120 29 218.5zM339.5 355.5q17.5 -69.5 51.5 -119.5q33 -52 84 -79.5t116 -27.5q75 0 134 25q75 32 118 98q53 81 60 207v97q-11 190 -115 275q-77 62 -197 62q-67 0 -118 -28.5t-85 -81.5q-33 -51 -49.5 -121t-16.5 -153
q0 -84 17.5 -153.5z" />
    <glyph glyph-name="e" unicode="e" horiz-adv-x="1209" 
d="M331 460q4 -93 33.5 -162t78.5 -115q45 -42 102 -63.5t119 -21.5q83 0 192 48q39 17 71 36.5t46 31.5l42 -104q-22 -22 -58 -44.5t-81 -41.5q-115 -47 -218 -48q-126 0 -233 32t-185 96q-82 67 -126.5 167t-44.5 231q0 186 87 314q79 115 219 177q126 56 290 56
q108 0 202 -31q120 -39 187 -112q82 -89 82 -221q0 -117 -83 -169.5t-262 -53.5zM824 872q-31 26 -71 40t-82 15q-58 0 -115.5 -21.5t-103.5 -63.5q-50 -45 -81.5 -111t-37.5 -152l421 -1q54 0 91 25q49 33 49 101q0 106 -70 168z" />
    <glyph glyph-name="f" unicode="f" horiz-adv-x="803" 
d="M759 1303q-29 23 -67 34q-21 6 -45 6q-57 0 -92 -13t-57 -46q-23 -35 -33.5 -97t-11.5 -162h94q58 0 85 1h72h55v-68q-1 -23 -1 -69q-2 1 -35 4q-42 4 -133 9l-34 2l-103 3v-536q0 -137 8 -267l9 -104h-279q9 113 14 221q3 68 3 150v537h-167l1 80q23 20 75 31q29 6 72 6
h19q2 223 96 329q97 108 305 108q65 0 121 -20q31 -11 47 -19z" />
    <glyph glyph-name="g" unicode="g" horiz-adv-x="1308" 
d="M98.5 741q29.5 96 87.5 164q125 144 355 144q151 0 248 -65q66 -44 113 -126l-4 47l-1 77q-1 11 -1 28q-2 16 -2 15h277q-4 -9 -7 -52q-6 -91 -8 -224q-1 -44 -1 -125v-527q0 -246 -158 -355q-129 -90 -360 -90h-31q-110 1 -227 36q-110 32 -174 81l49 119
q49 -43 150 -75q102 -34 195 -34q74 0 136 23q74 27 120 92q53 75 53 194v128q-42 -82 -116 -132q-102 -69 -249 -69q-115 0 -203.5 37t-149.5 106q-60 67 -90.5 161.5t-30.5 209.5q0 116 29.5 212zM344.5 380.5q17.5 -67.5 51.5 -115.5q34 -50 84.5 -77t115.5 -27
q130 0 209 71q103 94 103 305q0 204 -105 295q-43 36 -97 52t-111 16q-133 0 -203 -107q-65 -99 -65 -264q0 -81 17.5 -148.5z" />
    <glyph glyph-name="h" unicode="h" horiz-adv-x="1315" 
d="M1199 22l2 -22h-278q2 0 9 97q7 91 7 298v216q0 276 -224 276q-61 0 -117.5 -26t-101.5 -72t-70.5 -103.5t-26.5 -118.5v-196q0 -137 8 -267l9 -104h-279q9 113 14 221q3 68 3 150v616q0 178 -8 340q-3 60 -6 94l-3 32h279q-9 -98 -14 -254q-3 -76 -3 -166v-189
q55 84 152 139q113 64 257 64q204 0 297 -109q80 -94 80 -273v-255q0 -184 8 -316q3 -49 6 -72z" />
    <glyph glyph-name="i" unicode="i" horiz-adv-x="565" 
d="M159 610q0 129 -9 298l-3 47l-5 70h279q-10 -141 -13 -254q-3 -76 -3 -167v-233q0 -137 8 -267l3 -39l5 -65h-279q9 113 14 221q3 68 3 150v239zM165.5 1419.5q41.5 34.5 123.5 34.5q79 0 119 -35q36 -33 36 -89q0 -52 -36 -85q-41 -36 -119 -36q-81 0 -125 36
q-40 31 -40 85q0 55 41.5 89.5z" />
    <glyph glyph-name="j" unicode="j" horiz-adv-x="595" 
d="M194.5 1419.5q41.5 34.5 123.5 34.5q79 0 119 -35q36 -33 36 -89q0 -52 -36 -85q-41 -36 -119 -36q-81 0 -125 36q-40 31 -40 85q0 55 41.5 89.5zM181 656q0 112 -9 263l-3 42l-5 64h283q-9 -71 -14 -210q-3 -69 -3 -159q0 -186 -1 -247v-91q-1 -33 -1 -72q-1 -16 -1 -37
q-4 -145 -19.5 -239t-51.5 -154q-38 -63 -102 -93t-165 -30q-94 0 -162 31q-29 13 -52 32l52 101q16 -22 59 -34q22 -6 44 -6q51 0 79 34q52 64 66 255q6 95 6 217v333z" />
    <glyph glyph-name="k" unicode="k" horiz-adv-x="1330" 
d="M1295 58q6 0 16 2l-2 -61q-44 -15 -104 -20q-34 -3 -79 -3q-105 0 -198 81t-149 221q-50 104 -122 141q-39 20 -86 20q-36 0 -84 -31q-17 -12 -38 -31l1 1l-49 -47q1 -115 9 -227l9 -104h-282q8 74 15 222q3 68 3 150v663q0 127 -9 298l-9 120h282q-11 -118 -15 -258
q-3 -76 -3 -166v-509l337 340q43 45 86 107q28 40 41 60h286q-76 -57 -167 -135q-37 -32 -75 -68l-284 -276q21 8 49 15q37 8 76 8q88 0 167 -76q71 -69 145 -213q51 -90 102 -144q42 -46 78 -65q29 -15 53 -15z" />
    <glyph glyph-name="l" unicode="l" horiz-adv-x="548" 
d="M149 1038q0 129 -9 298l-3 47l-5 70h279q-9 -98 -14 -254q-3 -76 -3 -166v-662q0 -137 8 -267l9 -104h-279q9 113 14 221q3 68 3 150v667z" />
    <glyph glyph-name="m" unicode="m" horiz-adv-x="1894" 
d="M154 586q0 208 -8 328q-7 111 -9 111h278l-3 -42q-1 -10 -5 -90q0 -14 -2 -56q48 88 128 144q94 67 208 67q144 0 225 -65q67 -53 92 -153q51 93 134 149q101 69 234 69q193 0 274 -117q61 -88 61 -251v-299q0 -172 7 -284l3 -35q1 -28 5 -62h-278q9 114 14 220
q3 68 3 150v241q0 141 -32 204q-19 36 -52.5 53.5t-86.5 17.5q-59 0 -108 -27.5t-85 -77.5q-36 -49 -55.5 -114t-19.5 -139v-147q0 -172 7 -284l3 -35q1 -28 5 -62h-278q9 114 14 220q3 68 3 150v241q0 70 -7.5 120t-25.5 84q-19 36 -52.5 53.5t-86.5 17.5q-47 0 -91.5 -22
t-80.5 -62t-59 -92t-29 -109v-230q0 -137 8 -267l9 -104h-278q9 113 14 221q3 68 3 150v215z" />
    <glyph glyph-name="n" unicode="n" horiz-adv-x="1310" 
d="M154 586q0 208 -8 328q-7 111 -9 111h278l-3 -42q-1 -12 -5 -94q0 -13 -2 -55q22 38 58 75.5t83 66.5q116 71 252 71q181 0 278 -88q102 -93 102 -280v-284q0 -193 7 -303l5 -70l2 -22h-277q9 115 13 214q2 94 2 168v229q0 276 -223 276q-61 0 -116.5 -26t-98.5 -72
q-44 -46 -68.5 -103.5t-25.5 -118.5v-196q0 -137 8 -267l9 -104h-278q9 113 14 221q3 68 3 150v215z" />
    <glyph glyph-name="o" unicode="o" horiz-adv-x="1320" 
d="M1206.5 275q-44.5 -101 -127.5 -169q-80 -65 -188 -97.5t-235 -32.5q-117 0 -222.5 31.5t-184.5 94.5q-85 68 -132.5 171.5t-47.5 243.5q0 132 45 233t128 169q79 65 187 97.5t235 32.5q118 0 223 -31.5t184 -94.5q85 -68 132.5 -171.5t47.5 -243.5q0 -132 -44.5 -233z
M964 685q-27 79 -74 134q-47 53 -107 80.5t-122 27.5t-120 -23t-103 -69q-51 -51 -79.5 -129.5t-28.5 -182.5q0 -101 27.5 -181t75.5 -135q47 -54 107.5 -81.5t124.5 -27.5q63 0 120.5 23t101.5 69q49 52 76.5 131t27.5 185q0 100 -27 179z" />
    <glyph glyph-name="p" unicode="p" horiz-adv-x="1321" 
d="M1212 297.5q-29 -97.5 -87 -168.5q-60 -74 -150 -113.5t-208 -39.5q-149 0 -246 67q-79 53 -122 143v-240q0 -137 8 -267l9 -104h-279q9 113 14 221q3 67 3 150v613q0 238 -7 349q-7 118 -10 118h279l-3 -39q-3 -30 -5 -132q48 85 123 133q98 61 236 61
q119 0 208.5 -38.5t149.5 -111.5q58 -71 87 -170t29 -218q0 -116 -29 -213.5zM965.5 662q-16.5 70 -49.5 121q-34 53 -85 81.5t-117 28.5q-127 0 -206 -70q-108 -96 -109 -308q0 -216 105 -312q79 -74 209 -74q65 0 116 27.5t85 79.5q68 101 68 273q0 83 -16.5 153z" />
    <glyph glyph-name="q" unicode="q" horiz-adv-x="1319" 
d="M109.5 729q29.5 99 87.5 170q60 73 149.5 111.5t207.5 38.5q138 0 235 -61q76 -49 123 -133l-3 80l-3 52l-3 38h279q-9 -91 -14 -264q-3 -87 -3 -202v-618q0 -137 8 -267l9 -104h-279q9 113 14 221q3 67 3 150v245q-43 -90 -123 -143q-99 -67 -243 -67
q-118 0 -207.5 39.5t-149.5 113.5q-58 71 -87.5 169t-29.5 213q0 119 29.5 218zM355.5 355.5q17.5 -69.5 51.5 -119.5q33 -52 84 -79.5t116 -27.5q79 0 140 28q77 34 121 109q51 90 52 232q0 224 -105 322q-78 73 -208 73q-67 0 -118 -28.5t-85 -81.5q-66 -101 -66 -274
q0 -84 17.5 -153.5z" />
    <glyph glyph-name="r" unicode="r" horiz-adv-x="840" 
d="M154 634q0 134 -9 287l-3 39l-5 65h281q-3 -31 -8 -133q-4 -59 -5 -111q39 108 101 174q89 94 208 94q62 0 110 -21q17 -7 37 -20l-79 -192q-24 19 -64 30q-25 5 -51 5q-102 0 -175 -88q-34 -40 -57 -93t-33 -110v-189q0 -137 8 -267l3 -39l5 -65h-281q9 113 14 221
q3 68 3 150v263z" />
    <glyph glyph-name="s" unicode="s" horiz-adv-x="928" 
d="M86 205q92 -58 206 -90q60 -17 123 -17q88 0 144 33q63 37 63 108q0 32 -21 59t-61 52q-38 24 -85 47q-126 59 -194 99q-103 59 -145 141q-23 44 -23 98q0 83 37 143.5t103 100.5q59 36 132.5 53t149.5 17q108 0 214 -43q47 -20 81 -43l-51 -130q-47 51 -128 80
q-44 15 -100 15q-82 0 -133 -27q-29 -15 -45 -39t-16 -57q0 -28 21.5 -51.5t62.5 -47.5q36 -21 85 -43q118 -53 195 -98q101 -59 146 -145q23 -48 23 -104q0 -87 -38.5 -152t-107.5 -108q-64 -39 -147 -59t-172 -20q-122 0 -258 50q-64 24 -112 50z" />
    <glyph glyph-name="t" unicode="t" horiz-adv-x="842" 
d="M43 987q23 20 72 31q27 5 69 6q0 108 35 223q15 46 25 64q11 23 12 22h177q0 -49 -1 -80q-2 -104 -2 -229h105q65 0 95 1h80h61v-66q-1 -21 -1 -65q-8 2 -40 3q-57 4 -189 9l-112 4v-368q0 -131 6 -211t23 -131q18 -56 54 -83t97 -28q57 0 107 18q38 14 55 29l3 -105
q-17 -18 -45.5 -30.5t-72.5 -21.5q-43 -10 -111 -10q-119 0 -191 34t-110 106q-35 66 -47.5 167.5t-12.5 261.5v375h-142z" />
    <glyph glyph-name="u" unicode="u" horiz-adv-x="1298" 
d="M1157 438q0 -176 8 -326q5 -68 9 -112h-278l3 42l3 58l3 89q-62 -104 -178 -161q-101 -50 -217 -50q-206 0 -300 114q-77 92 -77 253v285q0 155 -7 304l-5 69l-3 22h278q-1 0 -4 -46l-4 -49q-8 -102 -8 -288v-229q0 -276 224 -276q61 0 116.5 26t98.5 72q43 45 68 102.5
t26 117.5v199q0 116 -9 267l-3 42l-5 62h278q-9 -85 -14 -221q-3 -67 -3 -150v-216z" />
    <glyph glyph-name="v" unicode="v" horiz-adv-x="1084" 
d="M457 0l-237 579q-61 148 -146 322q-37 76 -65 125h307l15 -44q34 -105 118 -321q45 -116 108 -258l27 -59l24 -60l138 317q48 115 111 290q31 84 47 135h171q-61 -124 -134 -280q-38 -81 -68 -155l-253 -591h-163z" />
    <glyph glyph-name="w" unicode="w" horiz-adv-x="1762" 
d="M1061 785q29 -71 96 -265q58 -167 106 -276l128 305q35 86 67 169q5 11 22 55q33 84 56 150l11 30l19 54l7 19h170q-43 -86 -132 -280q-34 -72 -69 -155l-253 -591h-195l-213 585l-222 -585h-197l-237 579q-73 175 -144 322q-23 48 -62 125h306l15 -46q35 -102 95 -263
q34 -92 78 -198l118 -283l192 548z" />
    <glyph glyph-name="x" unicode="x" horiz-adv-x="1114" 
d="M413 277q-78 -99 -144 -195l-56 -82h-204q53 60 163 192q63 78 88 111l172 222l-124 175q-94 137 -184 254l-44 55l-15 16h338q0 -2 18 -32q29 -52 114 -186q44 -70 77 -118q69 91 170 228l57 78l21 30h198q-68 -76 -166 -193q-31 -36 -89 -110l-117 -150l175 -247
q103 -149 185 -253q31 -41 59 -72h-338q-50 101 -132 226q-40 60 -124 176z" />
    <glyph glyph-name="y" unicode="y" horiz-adv-x="1096" 
d="M142 -192q20 -25 53 -42q40 -21 72 -21q51 0 94 47q48 54 103 177l-247 608q-72 175 -145 324q-36 74 -64 124h308q0 -2 11 -37q30 -87 79 -215q55 -148 131 -329q50 -120 76 -179q11 26 45 105q5 11 9 21.5t9 21.5q37 91 64 151q51 123 87 219l35 95l28 77l19 52l6 18
h176q-44 -89 -111 -239l-18 -40q-39 -87 -68 -155l-252 -588q-45 -103 -86.5 -173.5t-84.5 -114.5q-44 -45 -93.5 -65t-107.5 -20q-56 0 -94.5 17t-80.5 52z" />
    <glyph glyph-name="z" unicode="z" horiz-adv-x="1032" 
d="M30 0q70 90 144 198q36 53 53 85l302 460q58 84 106 162q-212 -6 -392 -22l-34 -3q-96 -9 -109 -11v156h862q-57 -79 -108 -159q-23 -35 -76 -124l-287 -459q-41 -65 -53 -85l-49 -79q219 6 442 23l39 3q120 11 123 11v-156h-963z" />
    <glyph glyph-name="braceleft" unicode="{" horiz-adv-x="767" 
d="M602 -351q9 0 29 2l22 -96q-28 -4 -61 -4q-11 -1 -29 -1q-77 0 -138 14q-91 19 -143 71q-67 66 -66 179l29 509q1 79 -45 114q-37 28 -97 28v115q60 0 97 28q46 35 45 114l-29 511q-1 151 108 217q78 47 210 47q31 0 79 -2l29 -2l11 -1l-22 -97q-24 2 -32 2
q-77 0 -104 -49q-14 -24 -18.5 -59t-4.5 -87l30 -495q4 -88 -66 -137q-49 -34 -142 -48h-3q49 -9 82 -20q78 -26 112 -85q18 -32 17 -78l-30 -495q0 -48 4 -81.5t17 -58.5q28 -55 109 -55z" />
    <glyph glyph-name="bar" unicode="|" horiz-adv-x="492" 
d="M190 1110q0 149 -10 325l-9 145h148q-9 -122 -14 -295q-3 -84 -3 -175v-964q0 -147 8 -323l9 -143h-148q10 126 16 292q3 83 3 174v964z" />
    <glyph glyph-name="braceright" unicode="}" horiz-adv-x="767" 
d="M664 588v-115q-60 0 -97 -28q-49 -37 -45 -114l28 -509q1 -114 -64 -179q-53 -52 -145 -71q-61 -14 -138 -14q-19 0 -57 2l-32 3l21 96q20 -2 29 -2q80 0 110 55q13 26 17 60t3 80l-29 495q-1 83 64 130q46 33 137 51l10 2q-41 5 -77 16q-82 24 -117 86q-19 31 -17 83
l29 495q1 51 -3.5 86t-18.5 60q-14 24 -39 36.5t-66 12.5q-8 0 -32 -2l-21 97l12 1q52 3 67 4h40q131 0 210 -47q108 -65 107 -217l-28 -511q-4 -77 45 -114q37 -28 97 -28z" />
    <glyph glyph-name="asciitilde" unicode="~" horiz-adv-x="1059" 
d="M90 548q22 104 70 163q70 86 192 86q45 0 88.5 -12t101.5 -35t101.5 -35t89.5 -12q53 0 88 30q12 11 19.5 24.5t15.5 32.5h98q-7 -40 -24 -81.5t-46 -76.5q-73 -89 -196 -89q-45 0 -92.5 12.5t-112.5 36.5l-20 7q-50 18 -72 27q-44 15 -73 15q-57 0 -91 -29
q-14 -12 -24 -27t-20 -37h-93z" />
    <glyph glyph-name="exclamdown" unicode="&#xa1;" horiz-adv-x="589" 
d="M422.5 849.5q-43.5 -34.5 -127.5 -34.5q-82 0 -121.5 34t-39.5 89q0 26 9.5 48.5t28.5 38.5q41 35 123 35q85 0 130 -35q20 -16 30.5 -38.5t10.5 -48.5q0 -54 -43.5 -88.5zM134 -428q21 109 38 317q11 133 21 373q9 212 12 439l183 2q4 -207 14 -440q10 -228 19 -373
q14 -209 28 -318h-315z" />
    <glyph glyph-name="cent" unicode="&#xa2;" horiz-adv-x="1077" 
d="M961.5 66.5q-37.5 -22.5 -85.5 -42.5q-80 -33 -161 -44l4 -85l9 -145h-152q6 69 11 192l2 36q-216 17 -348 125q-82 67 -127 166.5t-45 232.5q0 185 88 315q81 119 221 177q97 40 210 51l-3 80l-9 145h152q-10 -142 -13 -223q93 -7 194 -41q55 -18 98 -42l-48 -123
q-85 49 -181 73q-27 8 -66 11q-2 -82 -2 -127v-578q0 -80 1 -118q69 10 146 44q41 18 75 37.5t47 30.5l41 -104q-21 -21 -58.5 -43.5zM593 106q1 37 1 114v578l-1 119q-92 -24 -158 -97q-51 -58 -79.5 -142t-25.5 -191q1 -78 23 -147.5t64 -122.5q70 -90 176 -111z" />
    <glyph glyph-name="sterling" unicode="&#xa3;" horiz-adv-x="1098" 
d="M1092 63q-72 -50 -153 -72q-74 -22 -189 -22q-52 0 -100 9t-130 28q-75 18 -128 27t-107 9q-58 0 -135 -20q-74 -21 -117 -53l-26 112l7 -3l-8 10q60 33 101 75.5t66 105.5q39 97 39 252l-86 -3q-19 -1 -66 -4v130q39 -6 148 -7q0 10 -2 32q-10 107 -10 178
q0 565 448 565h2q162 0 293 -39q54 -16 93 -38l-61 -138q-70 55 -176 85q-57 15 -129 15h-2v0q-66 2 -104.5 -37.5t-56.5 -116.5q-14 -59 -19 -136.5t-8 -207.5l-1 -47q-3 -73 -11 -118q104 1 211 5q74 3 153 8l-26 -135q-113 10 -362 10q-32 -171 -101 -268
q-31 -45 -67.5 -77.5t-80.5 -58.5l-8 -5q61 25 126 34q67 15 122 15q13 0 35 -2q33 -3 62 -9t54 -13t34 -9q44 -12 76.5 -18.5t69.5 -6.5q71 0 143 18q105 26 160 74z" />
    <glyph glyph-name="currency" unicode="&#xa4;" horiz-adv-x="1345" 
d="M505.5 217q-73.5 18 -136.5 53q-42 -42 -75 -78q-33 -38 -58 -64l-52 -58l-93 93q28 24 109 100l68 65q-141 122 -141 332q0 207 133 332q-83 78 -127 118l-51 46l93 93q38 -44 110 -121q33 -36 74 -77q66 38 143.5 58t158.5 20q86 0 166.5 -20.5t147.5 -61.5l125 131
l15 16q36 40 53 60l92 -92q-50 -44 -116 -106q-46 -44 -74 -72q126 -120 126 -317t-118 -320q58 -58 137 -128l36 -32l20 -18l-94 -93q-54 62 -115 126l-51 54l-26 26q-70 -42 -154 -62.5t-174 -20.5q-78 0 -151.5 18zM479 396q37 -41 85 -62t99 -21t98.5 21.5t85.5 65.5
q83 96 83 268q0 86 -22.5 152.5t-63.5 111.5q-38 41 -85.5 62t-99.5 21q-50 0 -97.5 -22t-84.5 -65q-83 -96 -83 -261q0 -178 85 -271z" />
    <glyph glyph-name="yen" unicode="&#xa5;" horiz-adv-x="1237" 
d="M1226 1380l-13 -17q-60 -80 -90 -122q-94 -129 -138 -193q-40 -58 -72 -109l-126 -191q78 1 161 5q82 3 124 7v-144q-134 9 -268 14l-64 1q0 -46 2 -148q124 2 206 6q82 3 124 7v-145q-134 9 -268 14l-60 1q1 -25 1 -75q1 -39 2 -82.5t3 -89.5l3 -66l1 -20q1 -30 4 -33
h-300l2 20l8 136q3 67 7 210l-182 -6l-123 -7v144q144 -10 269 -13q24 0 37 -1v1v147l-183 -6l-123 -7v143q109 -8 242 -12l-115 188q-115 188 -209 325q-56 81 -83 118h374q0 -4 21 -47q39 -84 153 -299q46 -88 120 -221l84 131l82 130l44 69l93 146l41 66q15 24 14 25h195
z" />
    <glyph glyph-name="brokenbar" unicode="&#xa6;" horiz-adv-x="486" 
d="M312 1580q-5 -84 -8 -252q-2 -100 -2 -161q0 -191 4 -292q1 -52 5 -123h-136l9 219l2 38q2 100 2 160q0 167 -5 292q-4 90 -5 119h134zM312 508q-5 -84 -8 -252q-2 -100 -2 -161q0 -190 4 -291q1 -52 5 -123h-136l9 212l2 44q2 100 2 160q0 167 -5 292q-4 90 -5 119h134z
" />
    <glyph glyph-name="section" unicode="&#xa7;" horiz-adv-x="1092" 
d="M980 458q-53 -85 -159 -131q36 -45 55.5 -91.5t19.5 -102.5q0 -85 -30 -154t-89 -119q-125 -105 -363 -105q-142 0 -264 27q-62 13 -108 28l31 140q93 -47 219 -74q65 -14 132 -14q114 0 178 59q29 26 43.5 59.5t14.5 70.5q0 42 -24 79.5t-69 74.5q-40 33 -96 67
q-55 32 -113.5 68.5t-106.5 70.5q-117 83 -165 178q-27 53 -27 120q0 46 11 87q24 96 109 164q45 36 109 58q-44 47 -68 98.5t-24 111.5q0 162 111 252q114 91 335 91q109 0 209 -27q43 -12 74 -27l-26 -132q-1 0 -21 13q-37 25 -111 46q-51 14 -114 14q-45 0 -77 -6
q-68 -15 -104 -44q-49 -39 -49 -102q0 -42 24.5 -77.5t70.5 -70.5q44 -33 98 -64l18 -10q136 -76 206 -123q117 -79 167 -181q26 -57 26 -123q0 -114 -53 -199zM730 707q-28 25 -65 49.5t-90 55.5l-22 13q-48 27 -82.5 49t-64.5 48q-45 -13 -80 -46q-40 -37 -40 -90
q0 -80 76 -141q24 -20 53 -37.5t56.5 -32t35.5 -19.5q9 -4 27 -14q115 -62 170 -122q45 26 69 68t24 87q0 70 -67 132z" />
    <glyph glyph-name="dieresis" unicode="&#xa8;" horiz-adv-x="965" 
d="M201 1379q38 38 109 38q69 0 101 -37q29 -35 29 -94q0 -57 -29 -90q-32 -38 -101 -38q-73 0 -109 38q-35 34 -35 90q0 58 35 93zM536 1379q36 38 107 38q70 0 104 -37q31 -35 31 -94q0 -56 -31 -90q-33 -38 -104 -38q-72 0 -107 38q-32 33 -32 90q0 58 32 93z" />
    <glyph glyph-name="copyright" unicode="&#xa9;" horiz-adv-x="1718" 
d="M847 -32q-160 0 -299.5 51t-242.5 147q-105 97 -162.5 231.5t-57.5 296.5q0 241 113 412q101 153 284 233q166 73 373 73h16q160 0 300 -51.5t243 -147.5q105 -99 162.5 -233t57.5 -295q0 -241 -112 -411q-100 -151 -284 -232q-169 -74 -375 -74h-16zM248 457
q45 -110 128 -193q86 -85 205.5 -132.5t262.5 -48.5h12q143 0 271 43q168 55 267 177q121 151 121 386q0 124 -45 234t-128 193q-86 85 -205 132.5t-263 48.5h-11q-144 0 -271 -42q-171 -58 -267 -178q-122 -150 -122 -387q0 -123 45 -233zM1144 994q-6 -14 -13 -25
q-5 -7 -8.5 -8.5t-9.5 -1.5q-3 2 -25 14q-47 22 -112 36q-34 7 -75 7q-55 0 -105.5 -21.5t-90.5 -64.5q-43 -46 -66.5 -114t-21.5 -154q0 -63 19 -120.5t56 -101.5q37 -46 91.5 -71t122.5 -25q63 0 154 40q32 14 58.5 29t38.5 24l35 -84q-15 -15 -46.5 -33t-69.5 -34
q-96 -40 -172 -40q-103 0 -192.5 26.5t-156.5 78.5q-70 54 -108 135t-38 186q0 111 40 195t111 140q67 53 154.5 79.5t185.5 26.5q103 0 192 -36q44 -18 73 -35z" />
    <glyph glyph-name="ordfeminine" unicode="&#xaa;" horiz-adv-x="898" 
d="M871 776q-27 -17 -75 -29t-108 -12q-83 0 -132 49q-15 15 -27 37q-37 -28 -83 -49q-89 -43 -183 -43q-113 0 -167 31q-62 36 -62 123q0 98 45 151q47 57 165 79l271 46q-3 73 -25 110q-32 54 -112 54q-63 0 -146 -38q-61 -28 -114 -69l-24 90q77 56 178 86q98 29 178 29
q165 0 233 -77q33 -37 47.5 -91t14.5 -128v-172q0 -57 22 -87q18 -25 51 -25q17 0 37 7zM461 869q34 18 54 33v166l-165 -37q-61 -15 -88 -42.5t-27 -82.5q0 -45 35 -62q23 -11 78 -11q41 0 113 36z" />
    <glyph glyph-name="guillemotleft" unicode="&#xab;" horiz-adv-x="975" 
d="M131 574q17 21 37.5 46t44.5 56q59 77 105 147l40 62l26 41l105 -82l-248 -321l248 -320l-105 -83l-42 70q-44 76 -160 221l-92 112zM534 574q17 21 37.5 46t44.5 56q59 77 105 147l40 62l26 41l105 -82l-248 -321l248 -320l-105 -83l-42 70q-44 76 -160 221l-92 112z
" />
    <glyph glyph-name="logicalnot" unicode="&#xac;" horiz-adv-x="1241" 
d="M1091 956q-6 -60 -11 -164q-2 -64 -2 -104q0 -93 6 -191l6 -79h-155l7 80q8 98 8 191q0 104 -4 159q-338 -4 -638 -20q-148 -7 -279 -18v146h1062z" />
    <glyph glyph-name="uni00AD" unicode="&#xad;" horiz-adv-x="673" 
d="M79 584q63 -6 151 -9q62 -2 102 -2q108 0 183 5q32 1 72 5v-134q-40 4 -154 11q-62 2 -104 2q-93 0 -181 -6l-69 -5v133z" />
    <glyph glyph-name="registered" unicode="&#xae;" horiz-adv-x="1718" 
d="M847 -32q-160 0 -299.5 51t-242.5 147q-105 97 -162.5 231.5t-57.5 296.5q0 241 113 412q101 153 284 233q166 73 373 73h16q160 0 300 -51.5t243 -147.5q105 -99 162.5 -233t57.5 -295q0 -241 -112 -411q-100 -151 -284 -232q-169 -74 -375 -74h-16zM248 457
q45 -110 128 -193q86 -85 205.5 -132.5t262.5 -48.5h12q143 0 271 43q168 55 267 177q121 151 121 386q0 124 -45 234t-128 193q-86 85 -205 132.5t-263 48.5h-11q-144 0 -271 -42q-171 -58 -267 -178q-122 -150 -122 -387q0 -123 45 -233zM1270 303q-25 -8 -55 -12
q-26 -2 -42 -2q-69 0 -131 72q-56 62 -102 180q-14 36 -25.5 57t-25.5 33q-15 13 -36 18t-54 5q-8 1 -26 1q-17 0 -27 -1l-28 -1l-29 1v-94q0 -79 6 -177q4 -53 7 -82h-183q1 21 5 82q5 82 5 177v279q0 78 -6 180l-6 84q128 0 218 2q41 0 55 1q13 1 35 1q160 4 247 -63
q40 -31 59.5 -74.5t19.5 -95.5q0 -147 -184 -195q45 -5 73 -25q38 -26 61 -85q65 -149 125 -213q25 -28 47 -36zM755 1031q-34 -3 -66 -3v-312q24 -2 48 -2q31 0 64 3q82 7 129 38q62 40 62 113q0 77 -47.5 121.5t-135.5 44.5q-19 0 -54 -3z" />
    <glyph glyph-name="macron.231" unicode="&#xaf;" horiz-adv-x="839" 
d="M808 1332q-129 6 -236 8q-47 1 -151 1q-156 0 -274 -5l-114 -4v125q95 -5 239 -10q94 -2 151 -2q181 0 273 4q46 1 112 5v-122z" />
    <glyph glyph-name="degree" unicode="&#xb0;" horiz-adv-x="703" 
d="M81.5 1232q22.5 53 63.5 94q40 40 93.5 62.5t112.5 22.5t112 -22.5t94 -62.5q40 -41 62.5 -94.5t22.5 -112.5t-22.5 -112t-62.5 -93q-41 -41 -94 -63.5t-112 -22.5t-112.5 23t-93.5 63q-41 40 -63.5 93t-22.5 112q0 60 22.5 113zM190.5 1051q13.5 -32 37.5 -55
q23 -24 55 -37.5t68 -13.5q35 0 67 13.5t56 37.5q24 23 37.5 55t13.5 68t-13.5 68t-37.5 56q-25 24 -56.5 37t-66.5 13q-36 0 -67.5 -13t-55.5 -37t-37.5 -56t-13.5 -68t13.5 -68z" />
    <glyph glyph-name="plusminus" unicode="&#xb1;" horiz-adv-x="800" 
d="M195 754l-21 -1l-87 -5v136q86 -6 186 -9l67 -2q-1 50 -6 162l-5 87h137q-6 -87 -9 -186q-1 -20 -1 -63q80 1 158 5l88 6v-138q-53 4 -187 11q-19 1 -60 1q1 -81 5 -163q1 -35 5 -88h-138q4 48 11 188q1 20 1 64q-69 -1 -144 -5zM704 425v-133q-78 6 -187 10
q-74 2 -121 2q-124 0 -216 -5l-87 -5v131q61 -5 185 -8q74 -2 120 -2q124 0 217 5q37 1 89 5z" />
    <glyph glyph-name="uni00B2" unicode="&#xb2;" horiz-adv-x="759" 
d="M57 828q202 97 299 180q109 92 109 178q0 61 -44 100q-43 35 -104 35q-83 0 -152 -25q-31 -11 -49 -24l-18 73q61 38 155 57q49 10 119 10q66 0 121 -15.5t94 -45.5t59.5 -71.5t20.5 -91.5q0 -77 -64 -149q-53 -61 -147 -116q-79 -46 -161 -75q187 6 301 17q52 4 112 11
v-132h-651v84z" />
    <glyph glyph-name="uni00B3" unicode="&#xb3;" horiz-adv-x="749" 
d="M383 1305q-39 13 -106 13q-43 -2 -84 -12t-68 -23l-16 77q39 19 91 33q76 20 144 20q136 0 211 -38q84 -45 84 -130q0 -56 -54.5 -97t-150.5 -57q112 -7 177 -45q85 -49 85 -147q0 -84 -56 -135q-47 -43 -130 -63q-71 -17 -150 -17q-95 0 -186 27q-69 19 -125 44l17 87
l23 -7q59 -18 117 -27q41 -7 85 -7q35 0 63 4q80 11 119 59q20 25 20 56q0 33 -23 56q-44 42 -142 60q-50 8 -93 8l-18 88q94 5 158 36q31 15 48.5 34t17.5 40q0 44 -58 63z" />
    <glyph glyph-name="acute" unicode="&#xb4;" horiz-adv-x="613" 
d="M564 1378q-61 -44 -120 -97q-20 -17 -52 -49l-125 -129h-167l129 149q34 41 67 90q22 32 32 48z" />
    <glyph glyph-name="uni00B5" unicode="&#xb5;" horiz-adv-x="1380" 
d="M1217 -2h-278l3 43l3 59l3 89q-39 -66 -75.5 -108t-76.5 -67q-40 -24 -86 -35t-104 -11q-76 0 -122 23q-40 20 -61 54q0 -163 8 -337q3 -65 6 -102q1 -33 3 -35h-278q9 113 14 221q3 67 3 150v627q0 166 -9 339l-3 40q-1 32 -5 77h278q-1 0 -3 -32q-7 -71 -11 -231
q-3 -82 -3 -184v-165q0 -140 59 -219q61 -81 167 -81q60 0 115.5 31t99.5 84q42 51 66.5 114t25.5 125v187q0 116 -9 267l-3 42l-5 62h278q-9 -85 -14 -221q-3 -67 -3 -150v-216q0 -208 8 -328q7 -112 9 -112z" />
    <glyph glyph-name="paragraph" unicode="&#xb6;" horiz-adv-x="1101" 
d="M526 -291l4 172l2 70q0 55 2 125v43l-5 413q-105 0 -192 31t-151 88q-62 56 -95.5 132.5t-33.5 166.5q0 222 142 331q130 100 371 100h403q-11 -62 -17 -225q-3 -81 -3 -202v-1245h-132v1564h-156v-1564h-139z" />
    <glyph glyph-name="periodcentered" unicode="&#xb7;" horiz-adv-x="609" 
d="M163 558q49 39 140 39q89 0 133 -38q41 -35 41 -95q0 -57 -41 -91q-45 -39 -133 -39q-91 0 -140 39q-44 34 -44 91q0 59 44 94z" />
    <glyph glyph-name="cedilla" unicode="&#xb8;" horiz-adv-x="608" 
d="M103 -338q31 -14 77 -22q20 -4 47 -4q53 0 89 20q40 23 40 67q-1 38 -27.5 56.5t-71.5 18.5q-16 0 -24 -1l-80 -5l70 208q8 6 46 4q27 -3 38 -4l-39 -131l64 3q78 2 125 -34q52 -39 52 -109q0 -68 -49 -112q-42 -39 -109 -58q-57 -17 -106 -17q-67 0 -131 16
q-29 8 -50 16z" />
    <glyph glyph-name="uni00B9" unicode="&#xb9;" horiz-adv-x="620" 
d="M10 1272l232 106l216 2q-9 -60 -14 -162q-3 -52 -3 -118v-101q0 -105 7 -184l3 -25q1 -19 5 -46h-232q9 84 13 144q2 60 2 102v115q0 50 -3 131l-3 38l-183 -116z" />
    <glyph glyph-name="ordmasculine" unicode="&#xba;" horiz-adv-x="920" 
d="M295 726.5q-71 21.5 -123 64.5q-54 45 -83.5 111.5t-29.5 154.5q0 180 124 273q55 41 128.5 61.5t156.5 20.5q177 0 281 -85q55 -45 84 -111.5t29 -153.5q0 -93 -33 -161.5t-92 -113.5q-55 -42 -128.5 -62t-157.5 -20q-85 0 -156 21.5zM322 860q53 -60 141 -60
q41 0 77 15.5t62 47.5q55 66 55 198t-58 198q-53 59 -143 59q-40 0 -75.5 -15.5t-61.5 -47.5q-57 -70 -57 -199q0 -130 60 -196z" />
    <glyph glyph-name="guillemotright" unicode="&#xbb;" horiz-adv-x="962" 
d="M397 482l-18 -23l-63 -78q-44 -53 -104 -145q-34 -51 -40 -62q-15 -26 -27 -43l-105 83l249 321l-249 320l105 82l42 -69q47 -79 161 -221l92 -112q-15 -17 -43 -53zM800 481q-54 -66 -80 -100q-44 -53 -104 -145q-34 -51 -40 -62q-15 -26 -27 -43l-105 83l249 321
l-249 320l105 82l42 -69q53 -88 161 -221l92 -112z" />
    <glyph glyph-name="onequarter" unicode="&#xbc;" horiz-adv-x="1490" 
d="M945 970l-343 -567q-66 -112 -155 -295l-61 -132h-202q79 120 173 269q58 93 95 158l343 567q79 137 157 297q3 6 51 108l11 24h203q-93 -135 -176 -269q-40 -64 -96 -160zM254 1252.5q0 9.5 -1 18.5l-182 -116l-39 117l230 106l226 2q-12 -64 -16 -163q-3 -52 -3 -118
v-100q0 -94 8 -184l3 -25q1 -19 5 -46h-242q9 84 13 143q2 60 2 102v114q0 49 -3 130q-1 10 -1 19.5zM1465 148h-133l4 -56l3 -33l5 -49h-241l7 80l4 58h-361v116l352 392l236 4q-5 -60 -11 -154q-2 -50 -2 -69v-150v-9q57 3 137 12v-142zM1118 269v13v143v48q-1 13 -1 30
q-1 9 -1 21l-228 -259q98 0 230 4z" />
    <glyph glyph-name="onehalf" unicode="&#xbd;" horiz-adv-x="1487" 
d="M777 971q81 137 158 296q24 50 62 131h195q-84 -121 -175 -268q-48 -76 -96 -159l-347 -572q-71 -120 -155 -292l-61 -131h-196q56 81 172 267q60 97 94 156zM14 1272l232 106l216 2q-9 -60 -14 -162q-3 -52 -3 -118v-101q0 -105 7 -184l3 -25q1 -19 5 -46h-231
q7 60 12 144q2 60 2 102v115q0 50 -3 131l-3 38l-183 -116zM809 86q203 97 298 179q109 93 109 178q0 61 -44 100q-41 35 -104 35q-83 0 -152 -25q-31 -11 -49 -24l-17 73q61 38 155 57q47 10 119 10q133 0 214 -61q80 -63 80 -162q0 -77 -64 -149q-56 -65 -146 -117
q-81 -46 -162 -75q187 6 301 17q54 4 113 11v-132h-651v85z" />
    <glyph glyph-name="threequarters" unicode="&#xbe;" horiz-adv-x="1638" 
d="M348 682q-90 0 -187 27q-60 17 -126 45l18 90q3 0 23 -6q50 -17 115 -28q39 -7 84 -7q33 0 61 4q79 11 118 57q20 23 20 54q0 34 -23 57q-42 42 -138 60q-50 8 -93 8l-17 89q93 5 156 36q31 15 47.5 34t16.5 40q0 43 -57 61q-34 11 -90 11q-49 0 -92.5 -9.5t-71.5 -23.5
l-17 79q32 17 93 33q76 20 143 20q135 0 212 -39q86 -44 86 -130q0 -55 -54.5 -96t-150.5 -58q109 -5 177 -45q85 -49 85 -147q0 -84 -56 -135q-46 -43 -132 -64q-71 -17 -150 -17zM1104 970l-343 -567q-66 -112 -155 -295q-33 -71 -60 -132h-202q60 89 173 269q8 12 11 19
q50 81 83 139l343 567q79 137 157 297q3 6 51 108l11 24h204q-93 -135 -176 -269q-39 -60 -97 -160zM1617 148h-132l4 -56l3 -33l5 -49h-242l7 80l4 58h-360v116l351 392l237 4q-5 -60 -11 -154q-2 -50 -2 -69v-150v-9q55 3 136 12v-142zM1270 269v13v143v48q-1 13 -1 30
q-1 9 -1 21l-228 -259q98 0 230 4z" />
    <glyph glyph-name="questiondown" unicode="&#xbf;" horiz-adv-x="880" 
d="M631 852q-45 -37 -130 -37q-84 0 -123 36q-37 34 -37 89q0 54 37 85q42 35 123 35q83 0 130 -35q41 -31 41 -85t-41 -88zM784 -363q-65 -29 -142 -45t-155 -16q-95 0 -180 25t-149 76q-64 50 -99 126t-35 178q0 60 19 106t54 83q28 29 59.5 51t91.5 60q49 31 83 58.5
t59 61.5q47 65 47 157q0 25 -3 52h207q11 -58 11 -114q0 -85 -29 -151q-20 -44 -50.5 -78t-73.5 -69l-73 -56q-83 -61 -114 -132q-19 -39 -19 -98q0 -77 25.5 -128t70.5 -77q50 -29 121 -29q39 0 73 7q48 9 88 28t61 41z" />
    <glyph glyph-name="Agrave" unicode="&#xc0;" horiz-adv-x="1472" 
d="M847 1380l372 -908q79 -193 151 -336q41 -81 70 -136h-360q2 0 -6 26q-13 46 -54 169l-40 120q-15 3 -85 8q-53 4 -169 4h-178q-97 0 -142 -4l-77 -6l-40 -99q-30 -71 -68 -169l-19 -49h-182l12 24q38 73 78 156q44 90 108 229l51 113l371 858h207zM377 447q48 -3 85 -3
h76h190q153 0 208 4l-276 691zM567 1829q26 -43 63 -93q14 -21 35 -45l130 -149h-169l-122 129q-43 43 -110 97q-37 30 -65 49z" />
    <glyph glyph-name="Aacute" unicode="&#xc1;" horiz-adv-x="1472" 
d="M847 1380l372 -908q79 -193 151 -336q41 -81 70 -136h-360q2 0 -6 26q-13 46 -54 169l-40 120q-15 3 -85 8q-53 4 -169 4h-178q-97 0 -142 -4l-77 -6l-40 -99q-30 -71 -68 -169l-19 -49h-182l12 24q38 73 78 156q44 90 108 229l51 113l371 858h207zM377 447q48 -3 85 -3
h76h190q153 0 208 4l-276 691zM1104 1805q-61 -44 -120 -97q-20 -17 -52 -49l-125 -129h-167l129 149q34 41 67 90q22 32 32 48z" />
    <glyph glyph-name="Acircumflex" unicode="&#xc2;" horiz-adv-x="1472" 
d="M847 1380l372 -908q79 -193 151 -336q41 -81 70 -136h-360q2 0 -6 26q-13 46 -54 169l-40 120q-15 3 -85 8q-53 4 -169 4h-178q-97 0 -142 -4l-77 -6l-40 -99q-30 -71 -68 -169l-19 -49h-182l12 24q38 73 78 156q44 90 108 229l51 113l371 858h207zM377 447q48 -3 85 -3
h76h190q153 0 208 4l-276 691zM799 1851l31 -44l31 -42l33 -44l157 -189h-171l-194 186l-201 -186h-103l155 189q20 25 62 86l28 44h172z" />
    <glyph glyph-name="Atilde" unicode="&#xc3;" horiz-adv-x="1472" 
d="M847 1380l372 -908q79 -193 151 -336q41 -81 70 -136h-360q2 0 -6 26q-13 46 -54 169l-40 120q-15 3 -85 8q-53 4 -169 4h-178q-97 0 -142 -4l-77 -6l-40 -99q-30 -71 -68 -169l-19 -49h-182l12 24q38 73 78 156q44 90 108 229l51 113l371 858h207zM377 447q48 -3 85 -3
h76h190q153 0 208 4l-276 691zM369 1525q15 102 57 168q55 88 156 88q39 0 73 -12.5t95 -40.5q40 -19 72 -29.5t64 -10.5q16 0 31 3q34 4 55 34q12 17 22 50h81q-15 -101 -56 -164q-59 -91 -161 -91q-38 0 -77.5 13t-90.5 37q-7 3 -12.5 5.5t-9.5 4.5q-46 22 -69.5 31
t-42.5 9q-48 0 -74 -29q-18 -20 -35 -66h-78z" />
    <glyph glyph-name="Adieresis" unicode="&#xc4;" horiz-adv-x="1472" 
d="M847 1380l372 -908q79 -193 151 -336q41 -81 70 -136h-360q2 0 -6 26q-13 46 -54 169l-40 120q-15 3 -85 8q-53 4 -169 4h-178q-97 0 -142 -4l-77 -6l-40 -99q-30 -71 -68 -169l-19 -49h-182l12 24q38 73 78 156q44 90 108 229l51 113l371 858h207zM377 447q48 -3 85 -3
h76h190q153 0 208 4l-276 691zM478 1741q38 38 109 38q69 0 101 -37q29 -35 29 -94q0 -57 -29 -90q-32 -38 -101 -38q-73 0 -109 38q-35 34 -35 90q0 58 35 93zM813 1741q36 38 107 38q70 0 104 -37q31 -35 31 -94q0 -56 -31 -90q-33 -38 -104 -38q-72 0 -107 38
q-32 33 -32 90q0 58 32 93z" />
    <glyph glyph-name="Aring" unicode="&#xc5;" horiz-adv-x="1472" 
d="M1074 26q-13 46 -54 169l-40 120q-15 3 -85 8q-53 4 -169 4h-178q-97 0 -142 -4l-77 -6l-40 -99q-30 -71 -68 -169l-19 -49h-182l12 24q38 73 78 156q44 90 108 229l51 113l336 776q-33 14 -57 31q-41 29 -64 71.5t-23 98.5q0 114 90 177q38 26 87 39t99 13
q53 0 102.5 -13.5t88.5 -40.5q41 -29 64.5 -72.5t23.5 -98.5q0 -116 -91 -177q-20 -14 -46 -24l340 -830q79 -193 151 -336q41 -81 70 -136h-360q2 0 -6 26zM633 1505q0 -60 34 -94q28 -29 70 -29q19 0 38 8t33 23q32 34 32 89q0 61 -34 95q-29 28 -71 28q-18 0 -36.5 -7.5
t-33.5 -22.5q-32 -34 -32 -90zM936 448l-276 691l-283 -692q48 -3 85 -3h76h190q153 0 208 4z" />
    <glyph glyph-name="AE" unicode="&#xc6;" horiz-adv-x="1931" 
d="M923 396q-111 3 -194 3h-54q-135 -2 -178 -5q-13 -1 -73 -7l-231 -387h-173l16 22l43 60l61 88q54 77 150 221q10 16 16 23q12 18 26.5 40.5t31.5 48.5l539 878h905v-155q-140 13 -347 21q-86 3 -260 7v-462q215 4 372 11l68 3l89 5v-156q-189 10 -324 14q-125 4 -205 5
v-225q0 -178 9 -320q256 4 436 16q81 4 172 11v-156h-912zM731 514h118q36 0 74 2v212v158q0 83 -1 114t-1 82l-3 112l-412 -677q31 -3 159 -3h66z" />
    <glyph glyph-name="Ccedilla" unicode="&#xc7;" horiz-adv-x="1333" 
d="M706 -24l-32 -107l64 3q78 2 125 -34q52 -39 52 -109q0 -68 -49 -112q-42 -39 -109 -58q-57 -17 -106 -17q-67 0 -131 16q-29 8 -50 16l39 88q31 -14 77 -22q20 -4 47 -4q53 0 89 20q40 23 40 67q-1 38 -27.5 56.5t-71.5 18.5q-16 0 -24 -1l-80 -5l67 198
q-198 45 -335 173q-102 95 -157 226.5t-55 289.5q0 249 110 423q101 158 276 237q162 73 361 73q162 0 315 -47q62 -20 114 -47l-68 -141q0 1 -26 18q-67 43 -182 73q-63 16 -137 16q-123 0 -225 -56q-117 -65 -183 -189q-78 -143 -78 -357q0 -123 32.5 -229.5t93.5 -186.5
q61 -81 146.5 -126t185.5 -46q139 0 279 61q56 24 81 41q29 18 29 19l61 -143q-96 -58 -250 -88q-77 -16 -183 -16q-61 0 -125 8z" />
    <glyph glyph-name="Egrave" unicode="&#xc8;" horiz-adv-x="1169" 
d="M162 934q0 162 -12 306q-4 58 -11 140h908v-155q-130 13 -347 22q-112 4 -260 6v-464q264 6 372 10l68 3l89 5v-155q-185 10 -325 15q-125 4 -204 5l1 -547q233 4 440 17q96 4 176 12v-154h-912q10 180 14 284q3 80 3 163v487zM477 1829q26 -43 63 -93q14 -21 35 -45
l130 -149h-169l-122 129q-43 43 -110 97q-37 30 -65 49z" />
    <glyph glyph-name="Eacute" unicode="&#xc9;" horiz-adv-x="1169" 
d="M162 934q0 162 -12 306q-4 58 -11 140h908v-155q-130 13 -347 22q-112 4 -260 6v-464q264 6 372 10l68 3l89 5v-155q-185 10 -325 15q-125 4 -204 5l1 -547q233 4 440 17q96 4 176 12v-154h-912q10 180 14 284q3 80 3 163v487zM975 1804q-61 -44 -120 -97
q-20 -17 -52 -49l-125 -129h-167l129 149q34 41 67 90q22 32 32 48z" />
    <glyph glyph-name="Ecircumflex" unicode="&#xca;" horiz-adv-x="1169" 
d="M162 934q0 162 -12 306q-4 58 -11 140h908v-155q-130 13 -347 22q-112 4 -260 6v-464q264 6 372 10l68 3l89 5v-155q-185 10 -325 15q-125 4 -204 5l1 -547q233 4 440 17q96 4 176 12v-154h-912q10 180 14 284q3 80 3 163v487zM693 1850l31 -44l31 -42l33 -44l157 -189
h-171l-194 186l-201 -186h-103l155 189q20 25 62 86l28 44h172z" />
    <glyph glyph-name="Edieresis" unicode="&#xcb;" horiz-adv-x="1169" 
d="M162 934q0 162 -12 306q-4 58 -11 140h908v-155q-130 13 -347 22q-112 4 -260 6v-464q264 6 372 10l68 3l89 5v-155q-185 10 -325 15q-125 4 -204 5l1 -547q233 4 440 17q96 4 176 12v-154h-912q10 180 14 284q3 80 3 163v487zM351 1751q38 38 109 38q69 0 101 -37
q29 -35 29 -94q0 -57 -29 -90q-32 -38 -101 -38q-73 0 -109 38q-35 34 -35 90q0 58 35 93zM686 1751q36 38 107 38q70 0 104 -37q31 -35 31 -94q0 -56 -31 -90q-33 -38 -104 -38q-72 0 -107 38q-32 33 -32 90q0 58 32 93z" />
    <glyph glyph-name="Igrave" unicode="&#xcc;" horiz-adv-x="618" 
d="M171 940q0 134 -10 302l-9 138h314q-12 -128 -16 -279q-3 -78 -3 -161v-493q0 -155 9 -306q6 -92 10 -141h-314q10 130 16 284q3 80 3 163v493zM161 1830q26 -43 63 -93q14 -21 35 -45l130 -149h-169l-122 129q-43 43 -110 97q-37 30 -65 49z" />
    <glyph glyph-name="Iacute" unicode="&#xcd;" horiz-adv-x="618" 
d="M171 940q0 134 -10 302l-9 138h314q-12 -128 -16 -279q-3 -78 -3 -161v-493q0 -155 9 -306q6 -92 10 -141h-314q10 130 16 284q3 80 3 163v493zM695 1805q-61 -44 -120 -97q-20 -17 -52 -49l-125 -129h-167l129 149q34 41 67 90q22 32 32 48z" />
    <glyph glyph-name="Icircumflex" unicode="&#xce;" horiz-adv-x="618" 
d="M171 940q0 134 -10 302l-9 138h314q-12 -128 -16 -279q-3 -78 -3 -161v-493q0 -155 9 -306q6 -92 10 -141h-314q10 130 16 284q3 80 3 163v493zM397 1851l31 -44l31 -42l33 -44l157 -189h-171l-194 186l-201 -186h-103l155 189q20 25 62 86l28 44h172z" />
    <glyph glyph-name="Idieresis" unicode="&#xcf;" horiz-adv-x="618" 
d="M171 940q0 134 -10 302l-9 138h314q-12 -128 -16 -279q-3 -78 -3 -161v-493q0 -155 9 -306q6 -92 10 -141h-314q10 130 16 284q3 80 3 163v493zM44 1744q38 38 109 38q69 0 101 -37q29 -35 29 -94q0 -57 -29 -90q-32 -38 -101 -38q-73 0 -109 38q-35 34 -35 90
q0 58 35 93zM379 1744q36 38 107 38q70 0 104 -37q31 -35 31 -94q0 -56 -31 -90q-33 -38 -104 -38q-72 0 -107 38q-32 33 -32 90q0 58 32 93z" />
    <glyph glyph-name="Eth" unicode="&#xd0;" horiz-adv-x="1565" 
d="M1437 1001.5q49 -128.5 49 -293.5q0 -160 -46.5 -292.5t-136.5 -228.5q-93 -98 -228.5 -151t-309.5 -53l-56 2l-77 3q-58 2 -89 4l-92 4l-85 3q-27 1 -69 1h-142q10 186 14 291q3 81 3 162v198l-27 -1l-115 -6v138q85 -6 142 -8v169q0 118 -11 301q-5 87 -10 136h174
q31 0 89 3q32 1 124 5q48 1 128 5l97 2q169 0 303.5 -45t227.5 -132q94 -88 143 -216.5zM1159.5 459q37.5 109 37.5 245q0 116 -26.5 217t-80.5 174q-125 166 -370 166l-274 -4v-489q149 0 295 6q77 4 117 7v-139l-118 7q-148 8 -294 8v-204q0 -95 3 -179q1 -15 1 -43
q1 -24 2 -50.5t3 -54.5l268 -4q96 -1 181.5 38t150.5 113q67 77 104.5 186z" />
    <glyph glyph-name="Ntilde" unicode="&#xd1;" horiz-adv-x="1523" 
d="M1246 0q-242 257 -416 436q-120 125 -216 221q-120 120 -188 183q-78 73 -121 101l8 -423q11 -231 23 -369q4 -69 9 -109l3 -40h-191q0 49 3 142l1 54q4 172 4 281v457q0 152 -7 329l-6 117h123q249 -267 423 -449q161 -171 319 -331q158 -162 204 -199l-10 461
q-10 232 -23 376l-3 36q-10 100 -11 106h192q0 -46 -1 -80l-6 -252q-2 -98 -2 -144v-457q0 -197 7 -330q3 -78 7 -117h-125zM423 1534q15 102 57 168q55 88 156 88q39 0 73 -12.5t95 -40.5q40 -19 72 -29.5t64 -10.5q16 0 31 3q34 4 55 34q12 17 22 50h81q-15 -101 -56 -164
q-59 -91 -161 -91q-38 0 -77.5 13t-90.5 37q-7 3 -12.5 5.5t-9.5 4.5q-46 22 -69.5 31t-42.5 9q-48 0 -74 -29q-18 -20 -35 -66h-78z" />
    <glyph glyph-name="Ograve" unicode="&#xd2;" 
d="M1146 1361.5q141 -50.5 244 -145.5q104 -95 160 -228t56 -293q0 -235 -109 -407q-100 -157 -278 -241q-167 -79 -371 -79q-167 0 -308 49.5t-244 143.5q-104 94 -160.5 226t-56.5 292q0 231 110 405q101 158 279 245q84 41 178 62t193 21q166 0 307 -50.5zM732.5 1267.5
q-57.5 -16.5 -110.5 -49.5q-118 -72 -187 -198q-78 -145 -78 -333q0 -123 33 -230t95 -187q64 -83 154 -128.5t201 -46.5q85 0 171 36.5t155 107.5q75 77 118.5 190.5t43.5 260.5q0 122 -33 230t-95 189q-64 83 -154 128.5t-200 46.5q-56 0 -113.5 -16.5zM699 1849
q26 -43 63 -93q14 -21 35 -45l130 -149h-169l-122 129q-43 43 -110 97q-37 30 -65 49z" />
    <glyph glyph-name="Oacute" unicode="&#xd3;" 
d="M1146 1361.5q141 -50.5 244 -145.5q104 -95 160 -228t56 -293q0 -235 -109 -407q-100 -157 -278 -241q-167 -79 -371 -79q-167 0 -308 49.5t-244 143.5q-104 94 -160.5 226t-56.5 292q0 231 110 405q101 158 279 245q84 41 178 62t193 21q166 0 307 -50.5zM732.5 1267.5
q-57.5 -16.5 -110.5 -49.5q-118 -72 -187 -198q-78 -145 -78 -333q0 -123 33 -230t95 -187q64 -83 154 -128.5t201 -46.5q85 0 171 36.5t155 107.5q75 77 118.5 190.5t43.5 260.5q0 122 -33 230t-95 189q-64 83 -154 128.5t-200 46.5q-56 0 -113.5 -16.5zM1243 1818
q-61 -44 -120 -97q-20 -17 -52 -49l-125 -129h-167l129 149q34 41 67 90q22 32 32 48z" />
    <glyph glyph-name="Ocircumflex" unicode="&#xd4;" 
d="M1146 1361.5q141 -50.5 244 -145.5q104 -95 160 -228t56 -293q0 -235 -109 -407q-100 -157 -278 -241q-167 -79 -371 -79q-167 0 -308 49.5t-244 143.5q-104 94 -160.5 226t-56.5 292q0 231 110 405q101 158 279 245q84 41 178 62t193 21q166 0 307 -50.5zM732.5 1267.5
q-57.5 -16.5 -110.5 -49.5q-118 -72 -187 -198q-78 -145 -78 -333q0 -123 33 -230t95 -187q64 -83 154 -128.5t201 -46.5q85 0 171 36.5t155 107.5q75 77 118.5 190.5t43.5 260.5q0 122 -33 230t-95 189q-64 83 -154 128.5t-200 46.5q-56 0 -113.5 -16.5zM930 1870l31 -44
l31 -42l33 -44l157 -189h-171l-194 186l-201 -186h-103l155 189q20 25 62 86l28 44h172z" />
    <glyph glyph-name="Otilde" unicode="&#xd5;" 
d="M1146 1361.5q141 -50.5 244 -145.5q104 -95 160 -228t56 -293q0 -235 -109 -407q-100 -157 -278 -241q-167 -79 -371 -79q-167 0 -308 49.5t-244 143.5q-104 94 -160.5 226t-56.5 292q0 231 110 405q101 158 279 245q84 41 178 62t193 21q166 0 307 -50.5zM732.5 1267.5
q-57.5 -16.5 -110.5 -49.5q-118 -72 -187 -198q-78 -145 -78 -333q0 -123 33 -230t95 -187q64 -83 154 -128.5t201 -46.5q85 0 171 36.5t155 107.5q75 77 118.5 190.5t43.5 260.5q0 122 -33 230t-95 189q-64 83 -154 128.5t-200 46.5q-56 0 -113.5 -16.5zM494 1540
q15 102 57 168q55 88 156 88q39 0 73 -12.5t95 -40.5q40 -19 72 -29.5t64 -10.5q16 0 31 3q34 4 55 34q12 17 22 50h81q-15 -101 -56 -164q-59 -91 -161 -91q-38 0 -77.5 13t-90.5 37q-7 3 -12.5 5.5t-9.5 4.5q-46 22 -69.5 31t-42.5 9q-48 0 -74 -29q-18 -20 -35 -66h-78z
" />
    <glyph glyph-name="Odieresis" unicode="&#xd6;" 
d="M1146 1361.5q141 -50.5 244 -145.5q104 -95 160 -228t56 -293q0 -235 -109 -407q-100 -157 -278 -241q-167 -79 -371 -79q-167 0 -308 49.5t-244 143.5q-104 94 -160.5 226t-56.5 292q0 231 110 405q101 158 279 245q84 41 178 62t193 21q166 0 307 -50.5zM732.5 1267.5
q-57.5 -16.5 -110.5 -49.5q-118 -72 -187 -198q-78 -145 -78 -333q0 -123 33 -230t95 -187q64 -83 154 -128.5t201 -46.5q85 0 171 36.5t155 107.5q75 77 118.5 190.5t43.5 260.5q0 122 -33 230t-95 189q-64 83 -154 128.5t-200 46.5q-56 0 -113.5 -16.5zM582 1758
q38 38 109 38q69 0 101 -37q29 -35 29 -94q0 -57 -29 -90q-32 -38 -101 -38q-73 0 -109 38q-35 34 -35 90q0 58 35 93zM917 1758q36 38 107 38q70 0 104 -37q31 -35 31 -94q0 -56 -31 -90q-33 -38 -104 -38q-72 0 -107 38q-32 33 -32 90q0 58 32 93z" />
    <glyph glyph-name="multiply" unicode="&#xd7;" horiz-adv-x="721" 
d="M626 863l-119 -108l-72 -70q51 -50 132 -124l58 -53l-94 -94l-52 59l-56 62l-68 72q-71 -74 -127 -135q-36 -39 -53 -60l-94 95q21 17 60 53l62 57q46 42 73 69q-50 48 -74 70q-67 60 -120 110l92 93q43 -48 111 -121q28 -32 70 -74q26 26 70 74l56 61l52 57z" />
    <glyph glyph-name="Oslash" unicode="&#xd8;" 
d="M1032 1390l16 45q15 44 23 63l157 -11q-7 -18 -37 -78l-26 -55q100 -39 182 -102t139 -147q119 -175 119 -410t-109 -407q-100 -157 -278 -241q-167 -79 -371 -79q-131 0 -245 33q-11 -28 -13 -36q-5 -19 -9 -28l-8 -24l-157 12l21 45l17 37l17 37q-185 86 -286 247
q-106 168 -106 388q0 231 110 405q101 158 279 245q84 41 178 62t193 21q107 0 194 -22zM738.5 1269.5q-54.5 -14.5 -106.5 -43.5q-117 -65 -184 -175q-82 -132 -89 -298q-1 -12 -1 -37q0 -43 5 -96q14 -124 63 -226.5t127 -171.5q100 233 229 539l92 218l40 98
q45 111 72 185q-73 22 -141 22q-52 0 -106.5 -14.5zM744 372q-52 -122 -96 -237q91 -40 191 -40q85 0 171 36.5t155 107.5q75 77 118.5 190.5t43.5 260.5q0 161 -62 294q-63 133 -175 206q-25 -56 -34 -79q-16 -40 -36 -84z" />
    <glyph glyph-name="Ugrave" unicode="&#xd9;" horiz-adv-x="1606" 
d="M429 687q0 -305 102 -448q101 -144 321 -144q207 0 319 129q126 145 127 455v247q0 135 -10 309l-9 145h184q-11 -143 -15 -291q-3 -81 -3 -163v-250q0 -371 -168 -547q-156 -162 -462 -162q-258 0 -409 88q-138 80 -195 232q-51 132 -51 329v305q0 114 -9 312l-8 147
h302q-10 -186 -13 -294q-3 -82 -3 -165v-234zM716 1830q26 -43 63 -93q14 -21 35 -45l130 -149h-169l-122 129q-43 43 -110 97q-37 30 -65 49z" />
    <glyph glyph-name="Uacute" unicode="&#xda;" horiz-adv-x="1606" 
d="M429 687q0 -305 102 -448q101 -144 321 -144q207 0 319 129q126 145 127 455v247q0 135 -10 309l-9 145h184q-11 -143 -15 -291q-3 -81 -3 -163v-250q0 -371 -168 -547q-156 -162 -462 -162q-258 0 -409 88q-138 80 -195 232q-51 132 -51 329v305q0 114 -9 312l-8 147
h302q-10 -186 -13 -294q-3 -82 -3 -165v-234zM1244 1807q-61 -44 -120 -97q-20 -17 -52 -49l-125 -129h-167l129 149q34 41 67 90q22 32 32 48z" />
    <glyph glyph-name="Ucircumflex" unicode="&#xdb;" horiz-adv-x="1606" 
d="M429 687q0 -305 102 -448q101 -144 321 -144q207 0 319 129q126 145 127 455v247q0 135 -10 309l-9 145h184q-11 -143 -15 -291q-3 -81 -3 -163v-250q0 -371 -168 -547q-156 -162 -462 -162q-258 0 -409 88q-138 80 -195 232q-51 132 -51 329v305q0 114 -9 312l-8 147
h302q-10 -186 -13 -294q-3 -82 -3 -165v-234zM916 1851l31 -44l31 -42l33 -44l157 -189h-171l-194 186l-201 -186h-103l155 189q20 25 62 86l28 44h172z" />
    <glyph glyph-name="Udieresis" unicode="&#xdc;" horiz-adv-x="1606" 
d="M429 687q0 -305 102 -448q101 -144 321 -144q207 0 319 129q126 145 127 455v247q0 135 -10 309l-9 145h184q-11 -143 -15 -291q-3 -81 -3 -163v-250q0 -371 -168 -547q-156 -162 -462 -162q-258 0 -409 88q-138 80 -195 232q-51 132 -51 329v305q0 114 -9 312l-8 147
h302q-10 -186 -13 -294q-3 -82 -3 -165v-234zM573 1742q38 38 109 38q69 0 101 -37q29 -35 29 -94q0 -57 -29 -90q-32 -38 -101 -38q-73 0 -109 38q-35 34 -35 90q0 58 35 93zM908 1742q36 38 107 38q70 0 104 -37q31 -35 31 -94q0 -56 -31 -90q-33 -38 -104 -38
q-72 0 -107 38q-32 33 -32 90q0 58 32 93z" />
    <glyph glyph-name="Yacute" unicode="&#xdd;" horiz-adv-x="1239" 
d="M744 676q0 -56 2 -186l1 -105q1 -131 7 -266l3 -66l1 -20q1 -30 4 -33h-300l2 20l8 136q3 67 7 212q1 39 1 116v159l-179 294q-115 188 -209 325q-56 81 -83 118h373q0 -4 22 -47q47 -100 152 -299q46 -88 120 -221l84 131l158 248q70 110 102 163q15 24 14 25h196
l-29 -38q-74 -98 -175 -242q-74 -106 -109 -161zM1026 1807q-61 -44 -120 -97q-20 -17 -52 -49l-125 -129h-167l129 149q34 41 67 90q22 32 32 48z" />
    <glyph glyph-name="Thorn" unicode="&#xde;" horiz-adv-x="1291" 
d="M1179.5 873.5q37.5 -77.5 37.5 -174.5q0 -157 -113 -252q-101 -85 -284 -117q-105 -19 -231 -19q-70 0 -140 6q1 -77 7 -176q6 -92 10 -141h-314q10 130 16 284q3 80 3 163v493q0 134 -10 302l-9 138h314q-12 -129 -16 -278q54 0 99 3q78 4 121 4q258 0 399 -104
q73 -54 110.5 -131.5zM944 692q0 146 -88 223q-85 73 -242 75q-19 1 -80 -1q-60 -2 -87 -2v-47v-493v-29h69q113 0 219 29q123 32 180 125q29 49 29 120z" />
    <glyph glyph-name="germandbls" unicode="&#xdf;" horiz-adv-x="1366" 
d="M1302 335q0 -136 -75 -224q-63 -74 -178 -111q-94 -30 -211 -30q-111 0 -218 37q-39 13 -66 26q-25 11 -23 11l28 126q31 -25 95 -44q62 -19 145 -19q55 0 118 12q58 19 96 59q45 48 45 122q0 94 -69 163q-28 27 -64.5 50t-86.5 50q-54 28 -89.5 49.5t-62.5 47.5
q-33 32 -51 68.5t-18 84.5q0 46 19.5 87t57.5 95l12 19q32 46 50 81q29 58 29 101q0 77 -57 120q-23 16 -53 24t-59 8q-63 0 -103 -29t-61 -83q-19 -48 -26 -112.5t-7 -152.5v-600q0 -150 9 -267l9 -104h-285q9 113 14 221q3 68 3 150v608v1v0q0 260 111 375
q56 58 139.5 85.5t198.5 27.5q72 0 156 -22q110 -29 174 -80q81 -66 81 -160q0 -76 -41 -147q-15 -25 -38 -55q-48 -57 -68 -99q-12 -25 -12 -55q0 -28 17.5 -50t50.5 -42q27 -18 69 -37q98 -48 158 -93q84 -65 119 -165q18 -55 18 -128z" />
    <glyph glyph-name="agrave" unicode="&#xe0;" horiz-adv-x="1180" 
d="M773 0l1 12q0 17 1 28q3 66 3 78l2 64q-67 -99 -176 -154q-104 -52 -219 -52q-154 0 -238 78q-88 82 -88 242q0 61 19.5 118t61.5 103q100 107 306 107q53 0 151 -7l33 -2q85 -6 153 -14v72q0 125 -65 193q-29 31 -69.5 46t-87.5 15q-90 0 -174 -32q-73 -28 -120 -63
l-47 117q73 47 167.5 73.5t207.5 26.5q214 0 324.5 -97t110.5 -282v-265q0 -139 7 -265q1 -55 6 -91q3 -37 6 -49h-276zM783 486q-24 4 -112 11q-86 7 -145 7q-129 0 -183 -78q-35 -51 -35 -126q0 -85 68 -139q27 -22 58.5 -33t59.5 -11q62 0 115 19t92 53q37 33 58 75.5
t24 90.5v131zM472 1497q26 -43 63 -93q14 -21 35 -45l130 -149h-169l-122 129q-43 43 -110 97q-37 30 -65 49z" />
    <glyph glyph-name="aacute" unicode="&#xe1;" horiz-adv-x="1180" 
d="M773 0l1 12q0 17 1 28q3 66 3 78l2 64q-67 -99 -176 -154q-104 -52 -219 -52q-154 0 -238 78q-88 82 -88 242q0 61 19.5 118t61.5 103q100 107 306 107q53 0 151 -7l33 -2q85 -6 153 -14v72q0 125 -65 193q-29 31 -69.5 46t-87.5 15q-90 0 -174 -32q-73 -28 -120 -63
l-47 117q73 47 167.5 73.5t207.5 26.5q214 0 324.5 -97t110.5 -282v-265q0 -139 7 -265q1 -55 6 -91q3 -37 6 -49h-276zM783 486q-24 4 -112 11q-86 7 -145 7q-129 0 -183 -78q-35 -51 -35 -126q0 -85 68 -139q27 -22 58.5 -33t59.5 -11q62 0 115 19t92 53q37 33 58 75.5
t24 90.5v131zM1011 1474q-61 -44 -120 -97q-20 -17 -52 -49l-125 -129h-167l129 149q34 41 67 90q22 32 32 48z" />
    <glyph glyph-name="acircumflex" unicode="&#xe2;" horiz-adv-x="1180" 
d="M773 0l1 12q0 17 1 28q3 66 3 78l2 64q-67 -99 -176 -154q-104 -52 -219 -52q-154 0 -238 78q-88 82 -88 242q0 61 19.5 118t61.5 103q100 107 306 107q53 0 151 -7l33 -2q85 -6 153 -14v72q0 125 -65 193q-29 31 -69.5 46t-87.5 15q-90 0 -174 -32q-73 -28 -120 -63
l-47 117q73 47 167.5 73.5t207.5 26.5q214 0 324.5 -97t110.5 -282v-265q0 -139 7 -265q1 -55 6 -91q3 -37 6 -49h-276zM783 486q-24 4 -112 11q-86 7 -145 7q-129 0 -183 -78q-35 -51 -35 -126q0 -85 68 -139q27 -22 58.5 -33t59.5 -11q62 0 115 19t92 53q37 33 58 75.5
t24 90.5v131zM709 1521l31 -44l31 -42l33 -44l157 -189h-171l-194 186l-201 -186h-103l155 189q20 25 62 86l28 44h172z" />
    <glyph glyph-name="atilde" unicode="&#xe3;" horiz-adv-x="1180" 
d="M773 0l1 12q0 17 1 28q3 66 3 78l2 64q-67 -99 -176 -154q-104 -52 -219 -52q-154 0 -238 78q-88 82 -88 242q0 61 19.5 118t61.5 103q100 107 306 107q53 0 151 -7l33 -2q85 -6 153 -14v72q0 125 -65 193q-29 31 -69.5 46t-87.5 15q-90 0 -174 -32q-73 -28 -120 -63
l-47 117q73 47 167.5 73.5t207.5 26.5q214 0 324.5 -97t110.5 -282v-265q0 -139 7 -265q1 -55 6 -91q3 -37 6 -49h-276zM783 486q-24 4 -112 11q-86 7 -145 7q-129 0 -183 -78q-35 -51 -35 -126q0 -85 68 -139q27 -22 58.5 -33t59.5 -11q62 0 115 19t92 53q37 33 58 75.5
t24 90.5v131zM264 1201q15 102 57 168q55 88 156 88q39 0 73 -12.5t95 -40.5q40 -19 72 -29.5t64 -10.5q16 0 31 3q34 4 55 34q12 17 22 50h81q-15 -101 -56 -164q-59 -91 -161 -91q-38 0 -77.5 13t-90.5 37q-7 3 -12.5 5.5t-9.5 4.5q-46 22 -69.5 31t-42.5 9q-48 0 -74 -29
q-18 -20 -35 -66h-78z" />
    <glyph glyph-name="adieresis" unicode="&#xe4;" horiz-adv-x="1180" 
d="M773 0l1 12q0 17 1 28q3 66 3 78l2 64q-67 -99 -176 -154q-104 -52 -219 -52q-154 0 -238 78q-88 82 -88 242q0 61 19.5 118t61.5 103q100 107 306 107q53 0 151 -7l33 -2q85 -6 153 -14v72q0 125 -65 193q-29 31 -69.5 46t-87.5 15q-90 0 -174 -32q-73 -28 -120 -63
l-47 117q73 47 167.5 73.5t207.5 26.5q214 0 324.5 -97t110.5 -282v-265q0 -139 7 -265q1 -55 6 -91q3 -37 6 -49h-276zM783 486q-24 4 -112 11q-86 7 -145 7q-129 0 -183 -78q-35 -51 -35 -126q0 -85 68 -139q27 -22 58.5 -33t59.5 -11q62 0 115 19t92 53q37 33 58 75.5
t24 90.5v131zM372 1415q38 38 109 38q69 0 101 -37q29 -35 29 -94q0 -57 -29 -90q-32 -38 -101 -38q-73 0 -109 38q-35 34 -35 90q0 58 35 93zM707 1415q36 38 107 38q70 0 104 -37q31 -35 31 -94q0 -56 -31 -90q-33 -38 -104 -38q-72 0 -107 38q-32 33 -32 90q0 58 32 93z
" />
    <glyph glyph-name="aring" unicode="&#xe5;" horiz-adv-x="1180" 
d="M773 0l1 12q0 17 1 28q3 66 3 78l2 64q-67 -99 -176 -154q-104 -52 -219 -52q-154 0 -238 78q-88 82 -88 242q0 61 19.5 118t61.5 103q100 107 306 107q53 0 151 -7l33 -2q85 -6 153 -14v72q0 125 -65 193q-29 31 -69.5 46t-87.5 15q-90 0 -174 -32q-73 -28 -120 -63
l-47 117q73 47 167.5 73.5t207.5 26.5q214 0 324.5 -97t110.5 -282v-265q0 -139 7 -265q1 -55 6 -91q3 -37 6 -49h-276zM783 486q-24 4 -112 11q-86 7 -145 7q-129 0 -183 -78q-35 -51 -35 -126q0 -85 68 -139q27 -22 58.5 -33t59.5 -11q62 0 115 19t92 53q37 33 58 75.5
t24 90.5v131zM511 1204q-49 14 -87 41q-41 29 -64 71.5t-23 98.5q0 114 90 177q38 26 87 39t99 13q53 0 102.5 -13.5t88.5 -40.5q41 -29 64.5 -72.5t23.5 -98.5q0 -116 -91 -177q-39 -26 -89 -39t-100 -13q-52 0 -101 14zM543 1327q28 -29 70 -29q19 0 38 8t33 23
q32 34 32 89q0 61 -34 95q-29 28 -71 28q-18 0 -36.5 -7.5t-33.5 -22.5q-32 -34 -32 -90q0 -60 34 -94z" />
    <glyph glyph-name="ae" unicode="&#xe6;" horiz-adv-x="1958" 
d="M539.5 621q51.5 -3 72.5 -4l33 -2q83 -6 156 -14q1 9 1 25l-1 12l1 12q0 133 -63 207q-60 70 -165 70q-91 0 -179 -31q-68 -24 -122 -64l-48 118q175 99 379 99q144 0 241 -52q83 -46 129 -127q79 88 192 133q115 46 247 46q106 0 206 -32q121 -39 195 -111
q86 -88 86 -213q0 -71 -24 -116.5t-72 -70.5q-45 -24 -111.5 -33.5t-162.5 -10.5l-458 -2q3 -85 30 -153t73 -115q45 -46 104.5 -70t127.5 -24q81 0 181 38q83 31 145 78l41 -104q-77 -60 -175 -97q-99 -37 -193 -37q-197 0 -345 78q-146 77 -211 208q-7 -21 -25 -49
t-45 -58q-74 -79 -157 -121q-114 -57 -238 -57q-64 0 -122 17t-102 52q-48 39 -75 101t-27 149q0 61 20.5 118t63.5 103q104 107 314 107q31 0 82.5 -3zM1625.5 802.5q-19.5 42.5 -54.5 70.5q-32 26 -72.5 40t-81.5 14q-58 0 -116 -22t-107 -64q-52 -45 -84.5 -111.5
t-37.5 -150.5l468 -1q14 0 31 6t33 19q41 34 41 101q0 56 -19.5 98.5zM798 461l-2 28l-33 4q-51 5 -108 8q-63 3 -102 3l-37 -3q-121 -9 -167 -84q-29 -47 -29 -117q0 -87 68 -139q28 -21 60.5 -32.5t60.5 -11.5q60 0 112 17.5t92 50.5q39 33 62 76.5t27 93.5z" />
    <glyph glyph-name="ccedilla" unicode="&#xe7;" horiz-adv-x="1077" 
d="M602 -22l-32 -109l64 3q78 2 125 -34q52 -39 52 -109q0 -68 -49 -112q-42 -39 -109 -58q-57 -17 -106 -17q-67 0 -131 16q-29 8 -50 16l39 88q31 -14 77 -22q20 -4 47 -4q53 0 89 20q40 23 40 67q-1 38 -27.5 56.5t-71.5 18.5q-16 0 -24 -1l-80 -5l65 194
q-166 26 -279 117q-82 67 -127 166.5t-45 232.5q0 185 88 315q81 119 221 177q131 55 290 55q119 -1 240 -43q55 -18 98 -42l-48 -123q-85 49 -181 73q-51 13 -109 13q-64 0 -125.5 -27t-108.5 -80q-51 -58 -79 -142t-25 -191q1 -78 23 -147.5t64 -122.5q44 -56 105.5 -87
t140.5 -32q83 0 194 48q41 18 74.5 37.5t46.5 30.5l41 -104q-21 -21 -58.5 -43.5t-85.5 -42.5q-112 -47 -219 -48q-18 0 -54 2z" />
    <glyph glyph-name="egrave" unicode="&#xe8;" horiz-adv-x="1209" 
d="M331 460q4 -93 33.5 -162t78.5 -115q45 -42 102 -63.5t119 -21.5q83 0 192 48q39 17 71 36.5t46 31.5l42 -104q-22 -22 -58 -44.5t-81 -41.5q-115 -47 -218 -48q-126 0 -233 32t-185 96q-82 67 -126.5 167t-44.5 231q0 186 87 314q79 115 219 177q126 56 290 56
q108 0 202 -31q120 -39 187 -112q82 -89 82 -221q0 -117 -83 -169.5t-262 -53.5zM824 872q-31 26 -71 40t-82 15q-58 0 -115.5 -21.5t-103.5 -63.5q-50 -45 -81.5 -111t-37.5 -152l421 -1q54 0 91 25q49 33 49 101q0 106 -70 168zM522 1497q26 -43 63 -93q14 -21 35 -45
l130 -149h-169l-122 129q-43 43 -110 97q-37 30 -65 49z" />
    <glyph glyph-name="eacute" unicode="&#xe9;" horiz-adv-x="1209" 
d="M331 460q4 -93 33.5 -162t78.5 -115q45 -42 102 -63.5t119 -21.5q83 0 192 48q39 17 71 36.5t46 31.5l42 -104q-22 -22 -58 -44.5t-81 -41.5q-115 -47 -218 -48q-126 0 -233 32t-185 96q-82 67 -126.5 167t-44.5 231q0 186 87 314q79 115 219 177q126 56 290 56
q108 0 202 -31q120 -39 187 -112q82 -89 82 -221q0 -117 -83 -169.5t-262 -53.5zM824 872q-31 26 -71 40t-82 15q-58 0 -115.5 -21.5t-103.5 -63.5q-50 -45 -81.5 -111t-37.5 -152l421 -1q54 0 91 25q49 33 49 101q0 106 -70 168zM1027 1474q-61 -44 -120 -97
q-20 -17 -52 -49l-125 -129h-167l129 149q34 41 67 90q22 32 32 48z" />
    <glyph glyph-name="ecircumflex" unicode="&#xea;" horiz-adv-x="1209" 
d="M331 460q4 -93 33.5 -162t78.5 -115q45 -42 102 -63.5t119 -21.5q83 0 192 48q39 17 71 36.5t46 31.5l42 -104q-22 -22 -58 -44.5t-81 -41.5q-115 -47 -218 -48q-126 0 -233 32t-185 96q-82 67 -126.5 167t-44.5 231q0 186 87 314q79 115 219 177q126 56 290 56
q108 0 202 -31q120 -39 187 -112q82 -89 82 -221q0 -117 -83 -169.5t-262 -53.5zM824 872q-31 26 -71 40t-82 15q-58 0 -115.5 -21.5t-103.5 -63.5q-50 -45 -81.5 -111t-37.5 -152l421 -1q54 0 91 25q49 33 49 101q0 106 -70 168zM719 1519l31 -44l31 -42l33 -44l157 -189
h-171l-194 186l-201 -186h-103l155 189q20 25 62 86l28 44h172z" />
    <glyph glyph-name="edieresis" unicode="&#xeb;" horiz-adv-x="1209" 
d="M331 460q4 -93 33.5 -162t78.5 -115q45 -42 102 -63.5t119 -21.5q83 0 192 48q39 17 71 36.5t46 31.5l42 -104q-22 -22 -58 -44.5t-81 -41.5q-115 -47 -218 -48q-126 0 -233 32t-185 96q-82 67 -126.5 167t-44.5 231q0 186 87 314q79 115 219 177q126 56 290 56
q108 0 202 -31q120 -39 187 -112q82 -89 82 -221q0 -117 -83 -169.5t-262 -53.5zM824 872q-31 26 -71 40t-82 15q-58 0 -115.5 -21.5t-103.5 -63.5q-50 -45 -81.5 -111t-37.5 -152l421 -1q54 0 91 25q49 33 49 101q0 106 -70 168zM380 1413q38 38 109 38q69 0 101 -37
q29 -35 29 -94q0 -57 -29 -90q-32 -38 -101 -38q-73 0 -109 38q-35 34 -35 90q0 58 35 93zM715 1413q36 38 107 38q70 0 104 -37q31 -35 31 -94q0 -56 -31 -90q-33 -38 -104 -38q-72 0 -107 38q-32 33 -32 90q0 58 32 93z" />
    <glyph glyph-name="igrave" unicode="&#xec;" horiz-adv-x="565" 
d="M159 610q0 129 -9 298l-3 47l-5 70h279q-10 -141 -13 -254q-3 -76 -3 -167v-233q0 -137 8 -267l3 -39l5 -65h-279q9 113 14 221q3 68 3 150v239zM151 1463q26 -43 63 -93q14 -21 35 -45l130 -149h-169l-122 129q-43 43 -110 97q-37 30 -65 49z" />
    <glyph glyph-name="iacute" unicode="&#xed;" horiz-adv-x="565" 
d="M159 610q0 129 -9 298l-3 47l-5 70h279q-10 -141 -13 -254q-3 -76 -3 -167v-233q0 -137 8 -267l3 -39l5 -65h-279q9 113 14 221q3 68 3 150v239zM675 1473q-61 -44 -120 -97q-20 -17 -52 -49l-125 -129h-167l129 149q34 41 67 90q22 32 32 48z" />
    <glyph glyph-name="icircumflex" unicode="&#xee;" horiz-adv-x="565" 
d="M159 610q0 129 -9 298l-3 47l-5 70h279q-10 -141 -13 -254q-3 -76 -3 -167v-233q0 -137 8 -267l3 -39l5 -65h-279q9 113 14 221q3 68 3 150v239zM394 1471l31 -44l31 -42l33 -44l157 -189h-171l-194 186l-201 -186h-103l155 189q20 25 62 86l28 44h172z" />
    <glyph glyph-name="idieresis" unicode="&#xef;" horiz-adv-x="565" 
d="M159 610q0 129 -9 298l-3 47l-5 70h279q-10 -141 -13 -254q-3 -76 -3 -167v-233q0 -137 8 -267l3 -39l5 -65h-279q9 113 14 221q3 68 3 150v239zM26 1379q38 38 109 38q69 0 101 -37q29 -35 29 -94q0 -57 -29 -90q-32 -38 -101 -38q-73 0 -109 38q-35 34 -35 90
q0 58 35 93zM361 1379q36 38 107 38q70 0 104 -37q31 -35 31 -94q0 -56 -31 -90q-33 -38 -104 -38q-72 0 -107 38q-32 33 -32 90q0 58 32 93z" />
    <glyph glyph-name="eth" unicode="&#xf0;" horiz-adv-x="1326" 
d="M1252 523q0 -140 -48 -244.5t-134 -173.5q-80 -64 -186.5 -96.5t-223.5 -32.5q-127 0 -234 31.5t-185 95.5q-82 67 -126.5 167t-44.5 232q0 126 44 223.5t123 165.5q75 64 176 97t217 33q73 0 139 -22.5t118 -62.5q54 -42 88 -101q-38 144 -116 253q-71 99 -168 163
l-18 -24q-51 -72 -74 -116l-96 68q28 30 87 104q15 18 14 17q-94 45 -212 63l25 109q150 -8 278 -53q16 22 25 33q15 21 34 46.5t41 55.5l90 -64q-63 -73 -95 -112q28 -14 41 -22q198 -113 304 -313q117 -220 117 -520zM962 329q28 75 28 171q0 98 -29 174.5t-80 128.5
q-47 48 -108 72.5t-123 24.5q-63 0 -120 -26.5t-101 -76.5q-47 -54 -73 -132t-26 -178q0 -99 27.5 -173t75.5 -123q44 -45 102.5 -68.5t120.5 -24.5q62 1 122 27.5t107 75.5q49 53 77 128z" />
    <glyph glyph-name="ntilde" unicode="&#xf1;" horiz-adv-x="1310" 
d="M154 586q0 208 -8 328q-7 111 -9 111h278l-3 -42q-1 -12 -5 -94q0 -13 -2 -55q22 38 58 75.5t83 66.5q116 71 252 71q181 0 278 -88q102 -93 102 -280v-284q0 -193 7 -303l5 -70l2 -22h-277q9 115 13 214q2 94 2 168v229q0 276 -223 276q-61 0 -116.5 -26t-98.5 -72
q-44 -46 -68.5 -103.5t-25.5 -118.5v-196q0 -137 8 -267l9 -104h-278q9 113 14 221q3 68 3 150v215zM329 1193q15 102 57 168q55 88 156 88q39 0 73 -12.5t95 -40.5q40 -19 72 -29.5t64 -10.5q16 0 31 3q34 4 55 34q12 17 22 50h81q-15 -101 -56 -164q-59 -91 -161 -91
q-38 0 -77.5 13t-90.5 37q-7 3 -12.5 5.5t-9.5 4.5q-46 22 -69.5 31t-42.5 9q-48 0 -74 -29q-18 -20 -35 -66h-78z" />
    <glyph glyph-name="ograve" unicode="&#xf2;" horiz-adv-x="1320" 
d="M1206.5 275q-44.5 -101 -127.5 -169q-80 -65 -188 -97.5t-235 -32.5q-117 0 -222.5 31.5t-184.5 94.5q-85 68 -132.5 171.5t-47.5 243.5q0 132 45 233t128 169q79 65 187 97.5t235 32.5q118 0 223 -31.5t184 -94.5q85 -68 132.5 -171.5t47.5 -243.5q0 -132 -44.5 -233z
M964 685q-27 79 -74 134q-47 53 -107 80.5t-122 27.5t-120 -23t-103 -69q-51 -51 -79.5 -129.5t-28.5 -182.5q0 -101 27.5 -181t75.5 -135q47 -54 107.5 -81.5t124.5 -27.5q63 0 120.5 23t101.5 69q49 52 76.5 131t27.5 185q0 100 -27 179zM547 1503q26 -43 63 -93
q14 -21 35 -45l130 -149h-169l-122 129q-43 43 -110 97q-37 30 -65 49z" />
    <glyph glyph-name="oacute" unicode="&#xf3;" horiz-adv-x="1320" 
d="M1206.5 275q-44.5 -101 -127.5 -169q-80 -65 -188 -97.5t-235 -32.5q-117 0 -222.5 31.5t-184.5 94.5q-85 68 -132.5 171.5t-47.5 243.5q0 132 45 233t128 169q79 65 187 97.5t235 32.5q118 0 223 -31.5t184 -94.5q85 -68 132.5 -171.5t47.5 -243.5q0 -132 -44.5 -233z
M964 685q-27 79 -74 134q-47 53 -107 80.5t-122 27.5t-120 -23t-103 -69q-51 -51 -79.5 -129.5t-28.5 -182.5q0 -101 27.5 -181t75.5 -135q47 -54 107.5 -81.5t124.5 -27.5q63 0 120.5 23t101.5 69q49 52 76.5 131t27.5 185q0 100 -27 179zM1062 1477q-61 -44 -120 -97
q-20 -17 -52 -49l-125 -129h-167l129 149q34 41 67 90q22 32 32 48z" />
    <glyph glyph-name="ocircumflex" unicode="&#xf4;" horiz-adv-x="1320" 
d="M1206.5 275q-44.5 -101 -127.5 -169q-80 -65 -188 -97.5t-235 -32.5q-117 0 -222.5 31.5t-184.5 94.5q-85 68 -132.5 171.5t-47.5 243.5q0 132 45 233t128 169q79 65 187 97.5t235 32.5q118 0 223 -31.5t184 -94.5q85 -68 132.5 -171.5t47.5 -243.5q0 -132 -44.5 -233z
M964 685q-27 79 -74 134q-47 53 -107 80.5t-122 27.5t-120 -23t-103 -69q-51 -51 -79.5 -129.5t-28.5 -182.5q0 -101 27.5 -181t75.5 -135q47 -54 107.5 -81.5t124.5 -27.5q63 0 120.5 23t101.5 69q49 52 76.5 131t27.5 185q0 100 -27 179zM762 1518l31 -44l31 -42l33 -44
l157 -189h-171l-194 186l-201 -186h-103l155 189q20 25 62 86l28 44h172z" />
    <glyph glyph-name="otilde" unicode="&#xf5;" horiz-adv-x="1320" 
d="M1206.5 275q-44.5 -101 -127.5 -169q-80 -65 -188 -97.5t-235 -32.5q-117 0 -222.5 31.5t-184.5 94.5q-85 68 -132.5 171.5t-47.5 243.5q0 132 45 233t128 169q79 65 187 97.5t235 32.5q118 0 223 -31.5t184 -94.5q85 -68 132.5 -171.5t47.5 -243.5q0 -132 -44.5 -233z
M964 685q-27 79 -74 134q-47 53 -107 80.5t-122 27.5t-120 -23t-103 -69q-51 -51 -79.5 -129.5t-28.5 -182.5q0 -101 27.5 -181t75.5 -135q47 -54 107.5 -81.5t124.5 -27.5q63 0 120.5 23t101.5 69q49 52 76.5 131t27.5 185q0 100 -27 179zM325 1195q15 102 57 168
q55 88 156 88q39 0 73 -12.5t95 -40.5q40 -19 72 -29.5t64 -10.5q16 0 31 3q34 4 55 34q12 17 22 50h81q-15 -101 -56 -164q-59 -91 -161 -91q-38 0 -77.5 13t-90.5 37q-7 3 -12.5 5.5t-9.5 4.5q-46 22 -69.5 31t-42.5 9q-48 0 -74 -29q-18 -20 -35 -66h-78z" />
    <glyph glyph-name="odieresis" unicode="&#xf6;" horiz-adv-x="1320" 
d="M1206.5 275q-44.5 -101 -127.5 -169q-80 -65 -188 -97.5t-235 -32.5q-117 0 -222.5 31.5t-184.5 94.5q-85 68 -132.5 171.5t-47.5 243.5q0 132 45 233t128 169q79 65 187 97.5t235 32.5q118 0 223 -31.5t184 -94.5q85 -68 132.5 -171.5t47.5 -243.5q0 -132 -44.5 -233z
M964 685q-27 79 -74 134q-47 53 -107 80.5t-122 27.5t-120 -23t-103 -69q-51 -51 -79.5 -129.5t-28.5 -182.5q0 -101 27.5 -181t75.5 -135q47 -54 107.5 -81.5t124.5 -27.5q63 0 120.5 23t101.5 69q49 52 76.5 131t27.5 185q0 100 -27 179zM416 1416q38 38 109 38
q69 0 101 -37q29 -35 29 -94q0 -57 -29 -90q-32 -38 -101 -38q-73 0 -109 38q-35 34 -35 90q0 58 35 93zM751 1416q36 38 107 38q70 0 104 -37q31 -35 31 -94q0 -56 -31 -90q-33 -38 -104 -38q-72 0 -107 38q-32 33 -32 90q0 58 32 93z" />
    <glyph glyph-name="divide" unicode="&#xf7;" horiz-adv-x="840" 
d="M318 1001.5q35 28.5 104 28.5q66 0 98 -28t32 -74q0 -43 -32.5 -70.5t-97.5 -27.5q-69 0 -104 27.5t-35 70.5q0 45 35 73.5zM112 748q86 -6 186 -9q74 -2 121 -2q127 0 220 5l88 6v-138q-30 3 -80 5.5t-85 4.5l-22 1q-76 2 -123 2q-109 0 -219 -6l-86 -5v136zM318 496
q35 28 104 28q66 0 98 -27.5t32 -73.5q0 -44 -32 -71t-98 -27q-69 0 -104 27t-35 71q0 45 35 73z" />
    <glyph glyph-name="oslash" unicode="&#xf8;" horiz-adv-x="1320" 
d="M114 751q45 100 128 168q80 64 189.5 97t237.5 33q55 0 116 -14q34 99 70 213l21 72h157q-26 -58 -63 -151l-11 -27l-52 -132q156 -51 245 -171q99 -133 99 -333q0 -132 -45 -232t-128 -168q-80 -65 -189 -97.5t-238 -32.5q-63 0 -114 13l-54 -166q1 2 -10 -33l-21 -72
h-158q30 66 72 173q20 49 48 122q-158 54 -245 172q-100 134 -100 334q0 132 45 232zM371 330q40 -85 106 -136l117 310l117 310l38 100q-54 13 -85 13q-63 0 -121.5 -23.5t-103.5 -69.5q-50 -52 -79.5 -127t-29.5 -171q0 -118 41 -206zM951 696q-36 79 -106 136l-231 -612
l-20 -54l-21 -55q34 -13 91 -13q63 0 121 23t102 69q49 51 76.5 125.5t27.5 173.5q0 117 -40 207z" />
    <glyph glyph-name="ugrave" unicode="&#xf9;" horiz-adv-x="1298" 
d="M1157 438q0 -176 8 -326q5 -68 9 -112h-278l3 42l3 58l3 89q-62 -104 -178 -161q-101 -50 -217 -50q-206 0 -300 114q-77 92 -77 253v285q0 155 -7 304l-5 69l-3 22h278q-1 0 -4 -46l-4 -49q-8 -102 -8 -288v-229q0 -276 224 -276q61 0 116.5 26t98.5 72q43 45 68 102.5
t26 117.5v199q0 116 -9 267l-3 42l-5 62h278q-9 -85 -14 -221q-3 -67 -3 -150v-216zM521 1497q26 -43 63 -93q14 -21 35 -45l130 -149h-169l-122 129q-43 43 -110 97q-37 30 -65 49z" />
    <glyph glyph-name="uacute" unicode="&#xfa;" horiz-adv-x="1298" 
d="M1157 438q0 -176 8 -326q5 -68 9 -112h-278l3 42l3 58l3 89q-62 -104 -178 -161q-101 -50 -217 -50q-206 0 -300 114q-77 92 -77 253v285q0 155 -7 304l-5 69l-3 22h278q-1 0 -4 -46l-4 -49q-8 -102 -8 -288v-229q0 -276 224 -276q61 0 116.5 26t98.5 72q43 45 68 102.5
t26 117.5v199q0 116 -9 267l-3 42l-5 62h278q-9 -85 -14 -221q-3 -67 -3 -150v-216zM1011 1433q-61 -44 -120 -97q-20 -17 -52 -49l-125 -129h-167l129 149q34 41 67 90q22 32 32 48z" />
    <glyph glyph-name="ucircumflex" unicode="&#xfb;" horiz-adv-x="1298" 
d="M1157 438q0 -176 8 -326q5 -68 9 -112h-278l3 42l3 58l3 89q-62 -104 -178 -161q-101 -50 -217 -50q-206 0 -300 114q-77 92 -77 253v285q0 155 -7 304l-5 69l-3 22h278q-1 0 -4 -46l-4 -49q-8 -102 -8 -288v-229q0 -276 224 -276q61 0 116.5 26t98.5 72q43 45 68 102.5
t26 117.5v199q0 116 -9 267l-3 42l-5 62h278q-9 -85 -14 -221q-3 -67 -3 -150v-216zM759 1518l31 -44l31 -42l33 -44l157 -189h-171l-194 186l-201 -186h-103l155 189q20 25 62 86l28 44h172z" />
    <glyph glyph-name="udieresis" unicode="&#xfc;" horiz-adv-x="1298" 
d="M1157 438q0 -176 8 -326q5 -68 9 -112h-278l3 42l3 58l3 89q-62 -104 -178 -161q-101 -50 -217 -50q-206 0 -300 114q-77 92 -77 253v285q0 155 -7 304l-5 69l-3 22h278q-1 0 -4 -46l-4 -49q-8 -102 -8 -288v-229q0 -276 224 -276q61 0 116.5 26t98.5 72q43 45 68 102.5
t26 117.5v199q0 116 -9 267l-3 42l-5 62h278q-9 -85 -14 -221q-3 -67 -3 -150v-216zM407 1408q38 38 109 38q69 0 101 -37q29 -35 29 -94q0 -57 -29 -90q-32 -38 -101 -38q-73 0 -109 38q-35 34 -35 90q0 58 35 93zM742 1408q36 38 107 38q70 0 104 -37q31 -35 31 -94
q0 -56 -31 -90q-33 -38 -104 -38q-72 0 -107 38q-32 33 -32 90q0 58 32 93z" />
    <glyph glyph-name="yacute" unicode="&#xfd;" horiz-adv-x="1096" 
d="M993 1475q-61 -44 -120 -97q-20 -17 -52 -49l-125 -129h-167l129 149q34 41 67 90q22 32 32 48zM142 -192q20 -25 53 -42q40 -21 72 -21q51 0 94 47q48 54 103 177l-247 608q-72 175 -145 324q-36 74 -64 124h308q0 -2 11 -37q30 -87 79 -215q55 -148 131 -329
q50 -120 76 -179q11 26 45 105q5 11 9 21.5t9 21.5q37 91 64 151q51 123 87 219l35 95l28 77l19 52l6 18h176q-44 -89 -111 -239l-18 -40q-39 -87 -68 -155l-252 -588q-45 -103 -86.5 -173.5t-84.5 -114.5q-44 -45 -93.5 -65t-107.5 -20q-56 0 -94.5 17t-80.5 52z" />
    <glyph glyph-name="thorn" unicode="&#xfe;" horiz-adv-x="1333" 
d="M1234 729q30 -99 30 -218q0 -116 -30 -213.5t-89 -168.5q-61 -74 -154 -113.5t-214 -39.5q-171 0 -277 86q-60 48 -100 124v-245q0 -150 9 -267l9 -104h-281q9 113 14 221q3 67 3 150v1104q0 140 -9 300l-3 41q-1 30 -5 68h281q-11 -106 -15 -242q-3 -75 -3 -165v-205
q40 76 100 123q106 84 277 84q122 0 214.5 -38.5t153.5 -111.5q59 -71 89 -170zM993 509q0 83 -17 153t-50 121q-35 53 -86.5 81.5t-119.5 28.5q-80 0 -143 -28q-80 -35 -124 -114q-53 -92 -53 -244q0 -211 109 -306q81 -72 211 -72q66 0 117.5 27.5t86.5 79.5
q69 101 69 273z" />
    <glyph glyph-name="ydieresis" unicode="&#xff;" horiz-adv-x="1096" 
d="M334 1408q38 38 109 38q69 0 101 -37q29 -35 29 -94q0 -57 -29 -90q-32 -38 -101 -38q-73 0 -109 38q-35 34 -35 90q0 58 35 93zM669 1408q36 38 107 38q70 0 104 -37q31 -35 31 -94q0 -56 -31 -90q-33 -38 -104 -38q-72 0 -107 38q-32 33 -32 90q0 58 32 93zM142 -192
q20 -25 53 -42q40 -21 72 -21q51 0 94 47q48 54 103 177l-247 608q-72 175 -145 324q-36 74 -64 124h308q0 -2 11 -37q30 -87 79 -215q55 -148 131 -329q50 -120 76 -179q11 26 45 105q5 11 9 21.5t9 21.5q37 91 64 151q51 123 87 219l35 95l28 77l19 52l6 18h176
q-44 -89 -111 -239l-18 -40q-39 -87 -68 -155l-252 -588q-45 -103 -86.5 -173.5t-84.5 -114.5q-44 -45 -93.5 -65t-107.5 -20q-56 0 -94.5 17t-80.5 52z" />
    <glyph glyph-name="Amacron" unicode="&#x100;" horiz-adv-x="1472" 
d="M847 1380l372 -908q79 -193 151 -336q41 -81 70 -136h-360q2 0 -6 26q-13 46 -54 169l-40 120q-15 3 -85 8q-53 4 -169 4h-178q-97 0 -142 -4l-77 -6l-40 -99q-30 -71 -68 -169l-19 -49h-182l12 24q38 73 78 156q44 90 108 229l51 113l371 858h207zM377 447q48 -3 85 -3
h76h190q153 0 208 4l-276 691zM440 1660q86 -8 143 -12q46 -2 64 -2h149q48 0 126 8l69 8v-131h-551v129z" />
    <glyph glyph-name="amacron" unicode="&#x101;" horiz-adv-x="1180" 
d="M773 0l1 12q0 17 1 28q3 66 3 78l2 64q-67 -99 -176 -154q-104 -52 -219 -52q-154 0 -238 78q-88 82 -88 242q0 61 19.5 118t61.5 103q100 107 306 107q53 0 151 -7l33 -2q85 -6 153 -14v72q0 125 -65 193q-29 31 -69.5 46t-87.5 15q-90 0 -174 -32q-73 -28 -120 -63
l-47 117q73 47 167.5 73.5t207.5 26.5q214 0 324.5 -97t110.5 -282v-265q0 -139 7 -265q1 -55 6 -91q3 -37 6 -49h-276zM783 486q-24 4 -112 11q-86 7 -145 7q-129 0 -183 -78q-35 -51 -35 -126q0 -85 68 -139q27 -22 58.5 -33t59.5 -11q62 0 115 19t92 53q37 33 58 75.5
t24 90.5v131zM342 1335q86 -8 143 -12q46 -2 64 -2h149q48 0 126 8l69 8v-131h-551v129z" />
    <glyph glyph-name="Abreve" unicode="&#x102;" horiz-adv-x="1472" 
d="M847 1380l372 -908q79 -193 151 -336q41 -81 70 -136h-360q2 0 -6 26q-13 46 -54 169l-40 120q-15 3 -85 8q-53 4 -169 4h-178q-97 0 -142 -4l-77 -6l-40 -99q-30 -71 -68 -169l-19 -49h-182l12 24q38 73 78 156q44 90 108 229l51 113l371 858h207zM377 447q48 -3 85 -3
h76h190q153 0 208 4l-276 691zM532 1802q4 -65 57 -103q24 -18 57 -27.5t70 -9.5q94 0 140 40q39 32 51 100l83 -11q-8 -127 -77 -198q-71 -73 -197 -73q-57 0 -105 18t-83 52q-77 73 -78 201z" />
    <glyph glyph-name="abreve" unicode="&#x103;" horiz-adv-x="1180" 
d="M773 0l1 12q0 17 1 28q3 66 3 78l2 64q-67 -99 -176 -154q-104 -52 -219 -52q-154 0 -238 78q-88 82 -88 242q0 61 19.5 118t61.5 103q100 107 306 107q53 0 151 -7l33 -2q85 -6 153 -14v72q0 125 -65 193q-29 31 -69.5 46t-87.5 15q-90 0 -174 -32q-73 -28 -120 -63
l-47 117q73 47 167.5 73.5t207.5 26.5q214 0 324.5 -97t110.5 -282v-265q0 -139 7 -265q1 -55 6 -91q3 -37 6 -49h-276zM783 486q-24 4 -112 11q-86 7 -145 7q-129 0 -183 -78q-35 -51 -35 -126q0 -85 68 -139q27 -22 58.5 -33t59.5 -11q62 0 115 19t92 53q37 33 58 75.5
t24 90.5v131zM445 1481q4 -65 57 -103q24 -18 57 -27.5t70 -9.5q94 0 140 40q39 32 51 100l83 -11q-8 -127 -77 -198q-71 -73 -197 -73q-57 0 -105 18t-83 52q-77 73 -78 201z" />
    <glyph glyph-name="Aogonek" unicode="&#x104;" horiz-adv-x="1472" 
d="M1341 -349q31 0 74 8l1 -133q-7 -7 -40 -13q-31 -6 -75 -6q-108 0 -178 41q-93 54 -93 167q0 96 67 173q49 57 136 103l19 9h-172q2 0 -6 26q-13 46 -54 169l-40 120q-15 3 -85 8q-53 4 -169 4h-178q-97 0 -142 -4l-77 -6l-40 -99q-30 -71 -68 -169l-19 -49h-182l12 24
q38 73 78 156q44 90 108 229l51 113l371 858h207l372 -908q79 -193 151 -336q41 -81 70 -136h-25l-22 -13q-40 -26 -83 -67q-52 -49 -75 -109q-13 -30 -13 -66q0 -46 30 -69q24 -19 66 -24q7 -1 23 -1zM936 448l-276 691l-283 -692q48 -3 85 -3h76h190q153 0 208 4z" />
    <glyph glyph-name="aogonek" unicode="&#x105;" horiz-adv-x="1180" 
d="M1050 -474q-7 -7 -40 -13q-31 -6 -75 -6q-108 0 -178 41q-93 54 -93 167q0 96 67 173q49 57 136 103l19 9h-113l1 12q0 17 1 28q3 66 3 78l2 64q-67 -99 -176 -154q-104 -52 -219 -52q-154 0 -238 78q-88 82 -88 242q0 61 19.5 118t61.5 103q100 107 306 107q53 0 151 -7
l33 -2q85 -6 153 -14v72q0 125 -65 193q-29 31 -69.5 46t-87.5 15q-90 0 -174 -32q-73 -28 -120 -63l-47 117q73 47 167.5 73.5t207.5 26.5q214 0 324.5 -97t110.5 -282v-265q0 -139 7 -265q1 -55 6 -91q3 -37 6 -49l-22 -13q-40 -26 -83 -67q-52 -49 -75 -109
q-13 -30 -13 -66q0 -46 30 -69q24 -19 66 -24q7 -1 23 -1q31 0 74 8zM783 486q-24 4 -112 11q-86 7 -145 7q-129 0 -183 -78q-35 -51 -35 -126q0 -85 68 -139q27 -22 58.5 -33t59.5 -11q62 0 115 19t92 53q37 33 58 75.5t24 90.5v131z" />
    <glyph glyph-name="Cacute" unicode="&#x106;" horiz-adv-x="1333" 
d="M1264 72q-96 -58 -250 -88q-77 -16 -183 -16q-163 0 -301 50.5t-239 144.5q-102 95 -157 226.5t-55 289.5q0 249 110 423q101 158 276 237q162 73 361 73q162 0 315 -47q62 -20 114 -47l-68 -141q0 1 -26 18q-67 43 -182 73q-63 16 -137 16q-123 0 -225 -56
q-117 -65 -183 -189q-78 -143 -78 -357q0 -123 32.5 -229.5t93.5 -186.5q61 -81 146.5 -126t185.5 -46q139 0 279 61q56 24 81 41q29 18 29 19zM1152 1807q-61 -44 -120 -97q-20 -17 -52 -49l-125 -129h-167l129 149q34 41 67 90q22 32 32 48z" />
    <glyph glyph-name="cacute" unicode="&#x107;" horiz-adv-x="1077" 
d="M908 1006q55 -18 98 -42l-48 -123q-85 49 -181 73q-51 13 -109 13q-64 0 -125.5 -27t-108.5 -80q-51 -58 -79 -142t-25 -191q1 -78 23 -147.5t64 -122.5q44 -56 105.5 -87t140.5 -32q83 0 194 48q41 18 74.5 37.5t46.5 30.5l41 -104q-21 -21 -58.5 -43.5t-85.5 -42.5
q-112 -47 -219 -48q-125 0 -231 32t-184 95q-82 67 -127 166.5t-45 232.5q0 185 88 315q81 119 221 177q131 55 290 55q119 -1 240 -43zM1023 1474q-61 -44 -120 -97q-20 -17 -52 -49l-125 -129h-167l129 149q34 41 67 90q22 32 32 48z" />
    <glyph glyph-name="Ccircumflex" unicode="&#x108;" horiz-adv-x="1333" 
d="M1264 72q-96 -58 -250 -88q-77 -16 -183 -16q-163 0 -301 50.5t-239 144.5q-102 95 -157 226.5t-55 289.5q0 249 110 423q101 158 276 237q162 73 361 73q162 0 315 -47q62 -20 114 -47l-68 -141q0 1 -26 18q-67 43 -182 73q-63 16 -137 16q-123 0 -225 -56
q-117 -65 -183 -189q-78 -143 -78 -357q0 -123 32.5 -229.5t93.5 -186.5q61 -81 146.5 -126t185.5 -46q139 0 279 61q56 24 81 41q29 18 29 19zM843 1860l31 -44l31 -42l33 -44l157 -189h-171l-194 186l-201 -186h-103l155 189q20 25 62 86l28 44h172z" />
    <glyph glyph-name="ccircumflex" unicode="&#x109;" horiz-adv-x="1077" 
d="M908 1006q55 -18 98 -42l-48 -123q-85 49 -181 73q-51 13 -109 13q-64 0 -125.5 -27t-108.5 -80q-51 -58 -79 -142t-25 -191q1 -78 23 -147.5t64 -122.5q44 -56 105.5 -87t140.5 -32q83 0 194 48q41 18 74.5 37.5t46.5 30.5l41 -104q-21 -21 -58.5 -43.5t-85.5 -42.5
q-112 -47 -219 -48q-125 0 -231 32t-184 95q-82 67 -127 166.5t-45 232.5q0 185 88 315q81 119 221 177q131 55 290 55q119 -1 240 -43zM706 1516l31 -44l31 -42l33 -44l157 -189h-171l-194 186l-201 -186h-103l155 189q20 25 62 86l28 44h172z" />
    <glyph glyph-name="Cdotaccent" unicode="&#x10a;" horiz-adv-x="1333" 
d="M1264 72q-96 -58 -250 -88q-77 -16 -183 -16q-163 0 -301 50.5t-239 144.5q-102 95 -157 226.5t-55 289.5q0 249 110 423q101 158 276 237q162 73 361 73q162 0 315 -47q62 -20 114 -47l-68 -141q0 1 -26 18q-67 43 -182 73q-63 16 -137 16q-123 0 -225 -56
q-117 -65 -183 -189q-78 -143 -78 -357q0 -123 32.5 -229.5t93.5 -186.5q61 -81 146.5 -126t185.5 -46q139 0 279 61q56 24 81 41q29 18 29 19zM722.5 1775.5q41.5 34.5 123.5 34.5q79 0 119 -35q36 -33 36 -89q0 -52 -36 -85q-41 -36 -119 -36q-81 0 -125 36q-40 31 -40 85
q0 55 41.5 89.5z" />
    <glyph glyph-name="cdotaccent" unicode="&#x10b;" horiz-adv-x="1077" 
d="M908 1006q55 -18 98 -42l-48 -123q-85 49 -181 73q-51 13 -109 13q-64 0 -125.5 -27t-108.5 -80q-51 -58 -79 -142t-25 -191q1 -78 23 -147.5t64 -122.5q44 -56 105.5 -87t140.5 -32q83 0 194 48q41 18 74.5 37.5t46.5 30.5l41 -104q-21 -21 -58.5 -43.5t-85.5 -42.5
q-112 -47 -219 -48q-125 0 -231 32t-184 95q-82 67 -127 166.5t-45 232.5q0 185 88 315q81 119 221 177q131 55 290 55q119 -1 240 -43zM550.5 1456.5q41.5 34.5 123.5 34.5q79 0 119 -35q36 -33 36 -89q0 -52 -36 -85q-41 -36 -119 -36q-81 0 -125 36q-40 31 -40 85
q0 55 41.5 89.5z" />
    <glyph glyph-name="Ccaron" unicode="&#x10c;" horiz-adv-x="1333" 
d="M1264 72q-96 -58 -250 -88q-77 -16 -183 -16q-163 0 -301 50.5t-239 144.5q-102 95 -157 226.5t-55 289.5q0 249 110 423q101 158 276 237q162 73 361 73q162 0 315 -47q62 -20 114 -47l-68 -141q0 1 -26 18q-67 43 -182 73q-63 16 -137 16q-123 0 -225 -56
q-117 -65 -183 -189q-78 -143 -78 -357q0 -123 32.5 -229.5t93.5 -186.5q61 -81 146.5 -126t185.5 -46q139 0 279 61q56 24 81 41q29 18 29 19zM678 1539l-31 44q-13 18 -24 32l-41 55l-155 190h169l195 -188l201 188h104l-157 -190q-20 -25 -62 -87l-28 -44h-171z" />
    <glyph glyph-name="ccaron" unicode="&#x10d;" horiz-adv-x="1077" 
d="M908 1006q55 -18 98 -42l-48 -123q-85 49 -181 73q-51 13 -109 13q-64 0 -125.5 -27t-108.5 -80q-51 -58 -79 -142t-25 -191q1 -78 23 -147.5t64 -122.5q44 -56 105.5 -87t140.5 -32q83 0 194 48q41 18 74.5 37.5t46.5 30.5l41 -104q-21 -21 -58.5 -43.5t-85.5 -42.5
q-112 -47 -219 -48q-125 0 -231 32t-184 95q-82 67 -127 166.5t-45 232.5q0 185 88 315q81 119 221 177q131 55 290 55q119 -1 240 -43zM508 1199l-31 44q-13 18 -24 32l-41 55l-155 190h169l195 -188l201 188h104l-157 -190q-20 -25 -62 -87l-28 -44h-171z" />
    <glyph glyph-name="Dcaron" unicode="&#x10e;" horiz-adv-x="1567" 
d="M174 943q0 118 -11 301q-3 54 -11 136h175q55 0 127 4l85 4l87 3q75 4 138 4q168 0 303 -45t229 -132q94 -88 143 -216.5t49 -293.5q0 -160 -46.5 -292.5t-136.5 -228.5q-93 -98 -229 -151t-310 -53q-10 0 -56 2l-77 3q-58 2 -89 4l-92 4l-85 3q-27 1 -69 1h-141
q10 186 14 291q3 81 3 162v490zM447 1257v-804q0 -67 4 -179q1 -15 1 -43q1 -24 2 -50.5t3 -54.5l267 -4q97 -1 182.5 37.5t150.5 113.5q67 77 104 185.5t37 245.5q0 116 -26.5 217t-80.5 174q-125 166 -369 166zM692 1533l-31 44q-13 18 -24 32l-41 55l-155 190h169
l195 -188l201 188h104l-157 -190q-20 -25 -62 -87l-28 -44h-171z" />
    <glyph glyph-name="dcaron" unicode="&#x10f;" horiz-adv-x="1314" 
d="M1298.5 1447q34.5 26 98.5 26q57 0 92 -28q40 -35 40 -106q0 -62 -27 -126q-22 -49 -60 -98q-38 -47 -87 -85l-63 34q87 86 117 160q13 32 13 57q-5 -1 -21 -1q-35 0 -68 11q-40 11 -59 42q-10 16 -10 39q0 49 34.5 75zM92 729.5q29 98.5 87 169.5q125 150 368 150
q136 0 231 -65q75 -52 125 -140v136q0 178 -8 344q-3 62 -6 96l-3 33h279q-9 -101 -14 -277q-3 -87 -3 -197v-608q0 -137 8 -267l9 -104h-279l3 45q1 9 2 22t2 32l3 73q-44 -76 -100 -118q-78 -58 -193 -68q-35 -5 -64 -5q-28 0 -66 5q-207 22 -312 168q-98 135 -98 357
q0 120 29 218.5zM339.5 355.5q17.5 -69.5 51.5 -119.5q33 -52 84 -79.5t116 -27.5q75 0 134 25q75 32 118 98q53 81 60 207v97q-11 190 -115 275q-77 62 -197 62q-67 0 -118 -28.5t-85 -81.5q-33 -51 -49.5 -121t-16.5 -153q0 -84 17.5 -153.5z" />
    <glyph glyph-name="Dcroat" unicode="&#x110;" horiz-adv-x="1567" 
d="M1439 1001.5q49 -128.5 49 -293.5q0 -160 -46.5 -292.5t-136.5 -228.5q-93 -98 -229 -151t-310 -53q-10 0 -56 2l-77 3q-58 2 -89 4l-92 4l-85 3q-27 1 -69 1h-141q10 186 14 291q3 81 3 162v199l-49 -2l-115 -6v138q73 -6 164 -9v170q0 118 -11 301q-3 54 -11 136h175
q55 0 127 4l85 4l87 3q75 4 138 4q168 0 303 -45t229 -132q94 -88 143 -216.5zM1161 458.5q37 108.5 37 245.5q0 116 -26.5 217t-80.5 174q-125 166 -369 166l-275 -4v-489q135 0 275 6q79 4 118 7v-139l-118 7q-114 7 -275 8v-204q0 -67 4 -179q1 -15 1 -43q1 -24 2 -50.5
t3 -54.5l267 -4q97 -1 182.5 37.5t150.5 113.5q67 77 104 185.5z" />
    <glyph glyph-name="dcroat" unicode="&#x111;" horiz-adv-x="1314" 
d="M1338 1268v-133q-22 1 -89 5q-30 2 -99 4q-2 -100 -2 -165v-608q0 -137 8 -267l9 -104h-279l3 45q1 9 2 22t2 32l3 73q-44 -76 -100 -118q-78 -58 -193 -68q-35 -5 -64 -5q-28 0 -66 5q-207 22 -312 168q-98 135 -98 357q0 120 29 218.5t87 169.5q125 150 368 150
q136 0 231 -65q75 -52 125 -140v136q0 64 -2 164q-26 0 -66 -2l-21 -1l-86 -4v131q55 -5 170 -8l-3 64q-3 62 -6 96l-3 33h279q-8 -94 -11 -194l95 4q37 1 89 5zM903 556q-11 190 -115 275q-77 62 -197 62q-67 0 -118 -28.5t-85 -81.5q-33 -51 -49.5 -121t-16.5 -153
q0 -84 17.5 -153.5t51.5 -119.5q33 -52 84 -79.5t116 -27.5q75 0 134 25q75 32 118 98q53 81 60 207v97z" />
    <glyph glyph-name="Emacron" unicode="&#x112;" horiz-adv-x="1169" 
d="M162 934q0 162 -12 306q-4 58 -11 140h908v-155q-130 13 -347 22q-112 4 -260 6v-464q264 6 372 10l68 3l89 5v-155q-185 10 -325 15q-125 4 -204 5l1 -547q233 4 440 17q96 4 176 12v-154h-912q10 180 14 284q3 80 3 163v487zM322 1661q86 -8 143 -12q46 -2 64 -2h149
q48 0 126 8l69 8v-131h-551v129z" />
    <glyph glyph-name="emacron" unicode="&#x113;" horiz-adv-x="1209" 
d="M331 460q4 -93 33.5 -162t78.5 -115q45 -42 102 -63.5t119 -21.5q83 0 192 48q39 17 71 36.5t46 31.5l42 -104q-22 -22 -58 -44.5t-81 -41.5q-115 -47 -218 -48q-126 0 -233 32t-185 96q-82 67 -126.5 167t-44.5 231q0 186 87 314q79 115 219 177q126 56 290 56
q108 0 202 -31q120 -39 187 -112q82 -89 82 -221q0 -117 -83 -169.5t-262 -53.5zM824 872q-31 26 -71 40t-82 15q-58 0 -115.5 -21.5t-103.5 -63.5q-50 -45 -81.5 -111t-37.5 -152l421 -1q54 0 91 25q49 33 49 101q0 106 -70 168zM378 1325q86 -8 143 -12q46 -2 64 -2h149
q48 0 126 8l69 8v-131h-551v129z" />
    <glyph glyph-name="Ebreve" unicode="&#x114;" horiz-adv-x="1169" 
d="M162 934q0 162 -12 306q-4 58 -11 140h908v-155q-130 13 -347 22q-112 4 -260 6v-464q264 6 372 10l68 3l89 5v-155q-185 10 -325 15q-125 4 -204 5l1 -547q233 4 440 17q96 4 176 12v-154h-912q10 180 14 284q3 80 3 163v487zM416 1800q4 -65 57 -103q24 -18 57 -27.5
t70 -9.5q94 0 140 40q39 32 51 100l83 -11q-8 -127 -77 -198q-71 -73 -197 -73q-57 0 -105 18t-83 52q-77 73 -78 201z" />
    <glyph glyph-name="ebreve" unicode="&#x115;" horiz-adv-x="1209" 
d="M331 460q4 -93 33.5 -162t78.5 -115q45 -42 102 -63.5t119 -21.5q83 0 192 48q39 17 71 36.5t46 31.5l42 -104q-22 -22 -58 -44.5t-81 -41.5q-115 -47 -218 -48q-126 0 -233 32t-185 96q-82 67 -126.5 167t-44.5 231q0 186 87 314q79 115 219 177q126 56 290 56
q108 0 202 -31q120 -39 187 -112q82 -89 82 -221q0 -117 -83 -169.5t-262 -53.5zM824 872q-31 26 -71 40t-82 15q-58 0 -115.5 -21.5t-103.5 -63.5q-50 -45 -81.5 -111t-37.5 -152l421 -1q54 0 91 25q49 33 49 101q0 106 -70 168zM475 1474q4 -65 57 -103q24 -18 57 -27.5
t70 -9.5q94 0 140 40q39 32 51 100l83 -11q-8 -127 -77 -198q-71 -73 -197 -73q-57 0 -105 18t-83 52q-77 73 -78 201z" />
    <glyph glyph-name="Edotaccent" unicode="&#x116;" horiz-adv-x="1169" 
d="M162 934q0 162 -12 306q-4 58 -11 140h908v-155q-130 13 -347 22q-112 4 -260 6v-464q264 6 372 10l68 3l89 5v-155q-185 10 -325 15q-125 4 -204 5l1 -547q233 4 440 17q96 4 176 12v-154h-912q10 180 14 284q3 80 3 163v487zM548.5 1758.5q41.5 34.5 123.5 34.5
q79 0 119 -35q36 -33 36 -89q0 -52 -36 -85q-41 -36 -119 -36q-81 0 -125 36q-40 31 -40 85q0 55 41.5 89.5z" />
    <glyph glyph-name="edotaccent" unicode="&#x117;" horiz-adv-x="1209" 
d="M331 460q4 -93 33.5 -162t78.5 -115q45 -42 102 -63.5t119 -21.5q83 0 192 48q39 17 71 36.5t46 31.5l42 -104q-22 -22 -58 -44.5t-81 -41.5q-115 -47 -218 -48q-126 0 -233 32t-185 96q-82 67 -126.5 167t-44.5 231q0 186 87 314q79 115 219 177q126 56 290 56
q108 0 202 -31q120 -39 187 -112q82 -89 82 -221q0 -117 -83 -169.5t-262 -53.5zM824 872q-31 26 -71 40t-82 15q-58 0 -115.5 -21.5t-103.5 -63.5q-50 -45 -81.5 -111t-37.5 -152l421 -1q54 0 91 25q49 33 49 101q0 106 -70 168zM562.5 1415.5q41.5 34.5 123.5 34.5
q79 0 119 -35q36 -33 36 -89q0 -52 -36 -85q-41 -36 -119 -36q-81 0 -125 36q-40 31 -40 85q0 55 41.5 89.5z" />
    <glyph glyph-name="Eogonek" unicode="&#x118;" horiz-adv-x="1169" 
d="M875 -189q-13 -30 -13 -66q0 -46 30 -69q24 -19 66 -24q7 -1 23 -1q31 0 74 8l1 -133q-7 -7 -40 -13q-31 -6 -75 -6q-108 0 -178 41q-93 54 -93 167q0 96 67 173q49 57 136 103l19 9h-747q10 180 14 284q3 80 3 163v487q0 162 -12 306q-4 58 -11 140h908v-155
q-130 13 -347 22q-112 4 -260 6v-464q264 6 372 10l68 3l89 5v-155q-185 10 -325 15q-125 4 -204 5l1 -547q233 4 440 17q96 4 176 12v-154h-2l-22 -13q-40 -26 -83 -67q-52 -49 -75 -109z" />
    <glyph glyph-name="eogonek" unicode="&#x119;" horiz-adv-x="1209" 
d="M1053 515.5q-83 -52.5 -262 -53.5l-460 -2q4 -93 33.5 -162t78.5 -115q45 -42 102 -63.5t119 -21.5q83 0 192 48q39 17 71 36.5t46 31.5l42 -104q-31 -32 -90 -63l-16 -15q-52 -49 -75 -109q-13 -30 -13 -66q0 -46 30 -69q24 -19 66 -24q7 -1 23 -1q31 0 74 8l1 -133
q-7 -7 -40 -13q-32 -6 -75 -6q-108 0 -178 41q-93 54 -93 167q0 81 49 150q-7 -1 -20 -1q-126 0 -233 32t-185 96q-82 67 -126.5 167t-44.5 231q0 186 87 314q79 115 219 177q126 56 290 56q108 0 202 -31q120 -39 187 -112q82 -89 82 -221q0 -117 -83 -169.5zM754 578
q54 0 91 25q49 33 49 101q0 106 -70 168q-31 26 -71 40t-82 15q-58 0 -115.5 -21.5t-103.5 -63.5q-50 -45 -81.5 -111t-37.5 -152z" />
    <glyph glyph-name="Ecaron" unicode="&#x11a;" horiz-adv-x="1169" 
d="M162 934q0 162 -12 306q-4 58 -11 140h908v-155q-130 13 -347 22q-112 4 -260 6v-464q264 6 372 10l68 3l89 5v-155q-185 10 -325 15q-125 4 -204 5l1 -547q233 4 440 17q96 4 176 12v-154h-912q10 180 14 284q3 80 3 163v487zM528 1531l-31 44q-13 18 -24 32l-41 55
l-155 190h169l195 -188l201 188h104l-157 -190q-20 -25 -62 -87l-28 -44h-171z" />
    <glyph glyph-name="ecaron" unicode="&#x11b;" horiz-adv-x="1209" 
d="M331 460q4 -93 33.5 -162t78.5 -115q45 -42 102 -63.5t119 -21.5q83 0 192 48q39 17 71 36.5t46 31.5l42 -104q-22 -22 -58 -44.5t-81 -41.5q-115 -47 -218 -48q-126 0 -233 32t-185 96q-82 67 -126.5 167t-44.5 231q0 186 87 314q79 115 219 177q126 56 290 56
q108 0 202 -31q120 -39 187 -112q82 -89 82 -221q0 -117 -83 -169.5t-262 -53.5zM824 872q-31 26 -71 40t-82 15q-58 0 -115.5 -21.5t-103.5 -63.5q-50 -45 -81.5 -111t-37.5 -152l421 -1q54 0 91 25q49 33 49 101q0 106 -70 168zM565 1199l-31 44q-13 18 -24 32l-41 55
l-155 190h169l195 -188l201 188h104l-157 -190q-20 -25 -62 -87l-28 -44h-171z" />
    <glyph glyph-name="Gcircumflex" unicode="&#x11c;" horiz-adv-x="1507" 
d="M1240 1185l-39 20q-81 39 -190 65q-64 14 -125 14q-122 0 -219.5 -44.5t-165.5 -125.5q-66 -78 -101 -184.5t-35 -227.5q0 -124 36.5 -233t104.5 -191q67 -83 159 -131t199 -52q159 0 287 71q-7 59 -12 202q-6 132 -6 303h248v-273q0 -119 6 -215q3 -48 7 -73
q-63 -40 -139 -69t-175 -51q-98 -22 -227 -22q-158 0 -296.5 52t-242.5 148q-106 98 -165 232.5t-59 295.5q0 252 128 425q114 156 311 231q156 59 334 59q37 0 55 -1q112 -9 252 -40l91 -24q30 -9 43 -14zM901 1871l31 -44l31 -42l33 -44l157 -189h-171l-194 186l-201 -186
h-103l155 189q20 25 62 86l28 44h172z" />
    <glyph glyph-name="gcircumflex" unicode="&#x11d;" horiz-adv-x="1308" 
d="M98.5 741q29.5 96 87.5 164q125 144 355 144q151 0 248 -65q66 -44 113 -126l-4 47l-1 77q-1 11 -1 28q-2 16 -2 15h277q-4 -9 -7 -52q-6 -91 -8 -224q-1 -44 -1 -125v-527q0 -246 -158 -355q-129 -90 -360 -90h-31q-110 1 -227 36q-110 32 -174 81l49 119
q49 -43 150 -75q102 -34 195 -34q74 0 136 23q74 27 120 92q53 75 53 194v128q-42 -82 -116 -132q-102 -69 -249 -69q-115 0 -203.5 37t-149.5 106q-60 67 -90.5 161.5t-30.5 209.5q0 116 29.5 212zM344.5 380.5q17.5 -67.5 51.5 -115.5q34 -50 84.5 -77t115.5 -27
q130 0 209 71q103 94 103 305q0 204 -105 295q-43 36 -97 52t-111 16q-133 0 -203 -107q-65 -99 -65 -264q0 -81 17.5 -148.5zM745 1518l31 -44l31 -42l33 -44l157 -189h-171l-194 186l-201 -186h-103l155 189q20 25 62 86l28 44h172z" />
    <glyph glyph-name="Gbreve" unicode="&#x11e;" horiz-adv-x="1507" 
d="M1240 1185l-39 20q-81 39 -190 65q-64 14 -125 14q-122 0 -219.5 -44.5t-165.5 -125.5q-66 -78 -101 -184.5t-35 -227.5q0 -124 36.5 -233t104.5 -191q67 -83 159 -131t199 -52q159 0 287 71q-7 59 -12 202q-6 132 -6 303h248v-273q0 -119 6 -215q3 -48 7 -73
q-63 -40 -139 -69t-175 -51q-98 -22 -227 -22q-158 0 -296.5 52t-242.5 148q-106 98 -165 232.5t-59 295.5q0 252 128 425q114 156 311 231q156 59 334 59q37 0 55 -1q112 -9 252 -40l91 -24q30 -9 43 -14zM624 1813q4 -65 57 -103q24 -18 57 -27.5t70 -9.5q94 0 140 40
q39 32 51 100l83 -11q-8 -127 -77 -198q-71 -73 -197 -73q-57 0 -105 18t-83 52q-77 73 -78 201z" />
    <glyph glyph-name="gbreve" unicode="&#x11f;" horiz-adv-x="1308" 
d="M98.5 741q29.5 96 87.5 164q125 144 355 144q151 0 248 -65q66 -44 113 -126l-4 47l-1 77q-1 11 -1 28q-2 16 -2 15h277q-4 -9 -7 -52q-6 -91 -8 -224q-1 -44 -1 -125v-527q0 -246 -158 -355q-129 -90 -360 -90h-31q-110 1 -227 36q-110 32 -174 81l49 119
q49 -43 150 -75q102 -34 195 -34q74 0 136 23q74 27 120 92q53 75 53 194v128q-42 -82 -116 -132q-102 -69 -249 -69q-115 0 -203.5 37t-149.5 106q-60 67 -90.5 161.5t-30.5 209.5q0 116 29.5 212zM344.5 380.5q17.5 -67.5 51.5 -115.5q34 -50 84.5 -77t115.5 -27
q130 0 209 71q103 94 103 305q0 204 -105 295q-43 36 -97 52t-111 16q-133 0 -203 -107q-65 -99 -65 -264q0 -81 17.5 -148.5zM465 1477q4 -65 57 -103q24 -18 57 -27.5t70 -9.5q94 0 140 40q39 32 51 100l83 -11q-8 -127 -77 -198q-71 -73 -197 -73q-57 0 -105 18t-83 52
q-77 73 -78 201z" />
    <glyph glyph-name="Gdotaccent" unicode="&#x120;" horiz-adv-x="1507" 
d="M1240 1185l-39 20q-81 39 -190 65q-64 14 -125 14q-122 0 -219.5 -44.5t-165.5 -125.5q-66 -78 -101 -184.5t-35 -227.5q0 -124 36.5 -233t104.5 -191q67 -83 159 -131t199 -52q159 0 287 71q-7 59 -12 202q-6 132 -6 303h248v-273q0 -119 6 -215q3 -48 7 -73
q-63 -40 -139 -69t-175 -51q-98 -22 -227 -22q-158 0 -296.5 52t-242.5 148q-106 98 -165 232.5t-59 295.5q0 252 128 425q114 156 311 231q156 59 334 59q37 0 55 -1q112 -9 252 -40l91 -24q30 -9 43 -14zM759.5 1780.5q41.5 34.5 123.5 34.5q79 0 119 -35q36 -33 36 -89
q0 -52 -36 -85q-41 -36 -119 -36q-81 0 -125 36q-40 31 -40 85q0 55 41.5 89.5z" />
    <glyph glyph-name="gdotaccent" unicode="&#x121;" horiz-adv-x="1308" 
d="M98.5 741q29.5 96 87.5 164q125 144 355 144q151 0 248 -65q66 -44 113 -126l-4 47l-1 77q-1 11 -1 28q-2 16 -2 15h277q-4 -9 -7 -52q-6 -91 -8 -224q-1 -44 -1 -125v-527q0 -246 -158 -355q-129 -90 -360 -90h-31q-110 1 -227 36q-110 32 -174 81l49 119
q49 -43 150 -75q102 -34 195 -34q74 0 136 23q74 27 120 92q53 75 53 194v128q-42 -82 -116 -132q-102 -69 -249 -69q-115 0 -203.5 37t-149.5 106q-60 67 -90.5 161.5t-30.5 209.5q0 116 29.5 212zM344.5 380.5q17.5 -67.5 51.5 -115.5q34 -50 84.5 -77t115.5 -27
q130 0 209 71q103 94 103 305q0 204 -105 295q-43 36 -97 52t-111 16q-133 0 -203 -107q-65 -99 -65 -264q0 -81 17.5 -148.5zM543.5 1405.5q41.5 34.5 123.5 34.5q79 0 119 -35q36 -33 36 -89q0 -52 -36 -85q-41 -36 -119 -36q-81 0 -125 36q-40 31 -40 85q0 55 41.5 89.5z
" />
    <glyph glyph-name="Gcommaaccent" unicode="&#x122;" horiz-adv-x="1507" 
d="M1240 1185l-39 20q-81 39 -190 65q-64 14 -125 14q-122 0 -219.5 -44.5t-165.5 -125.5q-66 -78 -101 -184.5t-35 -227.5q0 -124 36.5 -233t104.5 -191q67 -83 159 -131t199 -52q159 0 287 71q-7 59 -12 202q-6 132 -6 303h248v-273q0 -119 6 -215q3 -48 7 -73
q-63 -40 -139 -69t-175 -51q-98 -22 -227 -22q-158 0 -296.5 52t-242.5 148q-106 98 -165 232.5t-59 295.5q0 252 128 425q114 156 311 231q156 59 334 59q37 0 55 -1q112 -9 252 -40l91 -24q30 -9 43 -14zM724 -177q39 29 114 29q66 0 104 -31q47 -39 47 -119
q0 -72 -30 -144q-24 -56 -68 -110q-43 -54 -97 -94l-72 37q94 94 129 178q15 36 15 64q-5 -1 -24 -1q-39 0 -79 13q-45 13 -67 48q-11 19 -11 45q0 56 39 85z" />
    <glyph glyph-name="gcommaaccent" unicode="&#x123;" horiz-adv-x="1308" 
d="M753.5 1212.5q-39.5 -29.5 -113.5 -29.5q-66 0 -104 31q-47 39 -47 120q0 69 31 143q23 54 66 110q47 57 98 94l72 -37q-96 -96 -130 -178q-15 -37 -14 -64q5 1 25 1q35 0 78 -12q45 -13 67 -48q11 -20 11 -45q0 -56 -39.5 -85.5zM98.5 741q29.5 96 87.5 164
q125 144 355 144q151 0 248 -65q66 -44 113 -126l-4 47l-1 77q-1 11 -1 28q-2 16 -2 15h277q-4 -9 -7 -52q-6 -91 -8 -224q-1 -44 -1 -125v-527q0 -246 -158 -355q-129 -90 -360 -90h-31q-110 1 -227 36q-110 32 -174 81l49 119q49 -43 150 -75q102 -34 195 -34q74 0 136 23
q74 27 120 92q53 75 53 194v128q-42 -82 -116 -132q-102 -69 -249 -69q-115 0 -203.5 37t-149.5 106q-60 67 -90.5 161.5t-30.5 209.5q0 116 29.5 212zM344.5 380.5q17.5 -67.5 51.5 -115.5q34 -50 84.5 -77t115.5 -27q130 0 209 71q103 94 103 305q0 204 -105 295
q-43 36 -97 52t-111 16q-133 0 -203 -107q-65 -99 -65 -264q0 -81 17.5 -148.5z" />
    <glyph glyph-name="Hcircumflex" unicode="&#x124;" horiz-adv-x="1658" 
d="M1483 451q0 -175 11 -309q6 -93 11 -142h-300v643q-87 4 -146 5l-63 1q-106 2 -164 2q-72 0 -186 -2l-55 -1q-54 -1 -138 -5v-196q0 -174 11 -306q6 -94 11 -141h-317q10 180 14 284q3 80 3 163v482q0 162 -12 308q-3 56 -11 142h301v-598q89 -4 140 -5l55 -1
q114 -2 186 -2q86 0 224 2q91 1 147 4v154q0 162 -12 306q-3 55 -11 141h318q-9 -119 -14 -284q-3 -81 -3 -163v-482zM911 1850l31 -44l31 -42l33 -44l157 -189h-171l-194 186l-201 -186h-103l155 189q20 25 62 86l28 44h172z" />
    <glyph glyph-name="hcircumflex" unicode="&#x125;" horiz-adv-x="1315" 
d="M1199 22l2 -22h-278q2 0 9 97q7 91 7 298v216q0 276 -224 276q-61 0 -117.5 -26t-101.5 -72t-70.5 -103.5t-26.5 -118.5v-196q0 -137 8 -267l9 -104h-279q9 113 14 221q3 68 3 150v616q0 178 -8 340q-3 60 -6 94l-3 32h279q-9 -98 -14 -254q-3 -76 -3 -166v-189
q55 84 152 139q113 64 257 64q204 0 297 -109q80 -94 80 -273v-255q0 -184 8 -316q3 -49 6 -72zM390 1870l31 -44l31 -42l33 -44l157 -189h-171l-194 186l-201 -186h-103l155 189q20 25 62 86l28 44h172z" />
    <glyph glyph-name="Hbar" unicode="&#x126;" horiz-adv-x="1658" 
d="M1205 0v643q-87 4 -146 5l-63 1q-106 2 -164 2q-72 0 -186 -2l-55 -1q-54 -1 -138 -5v-196q0 -174 11 -306q6 -94 11 -141h-317q10 180 14 284q3 80 3 163v482q0 162 -12 308q-3 56 -11 142h301v-197q59 -6 112 -9q46 -2 64 -2h395q46 0 126 8q29 4 47 5l-4 55
q-3 55 -11 141h318q-9 -119 -14 -284q-3 -81 -3 -163v-482q0 -175 11 -309q6 -93 11 -142h-300zM1205 779v154q0 42 -2 122h-750v-274q89 -4 140 -5l55 -1q114 -2 186 -2q86 0 224 2q91 1 147 4z" />
    <glyph glyph-name="hbar" unicode="&#x127;" horiz-adv-x="1315" 
d="M1199 22l2 -22h-278q2 0 9 97q7 91 7 298v216q0 276 -224 276q-61 0 -117.5 -26t-101.5 -72t-70.5 -103.5t-26.5 -118.5v-196q0 -137 8 -267l9 -104h-279q9 113 14 221q3 68 3 150v616q0 63 -2 161h-141v129q81 -8 138 -12l-3 62q-3 60 -6 94l-3 32h279q-8 -90 -12 -189
q37 1 89 7l69 8v-131h-162q-1 -36 -1 -115v-189q55 84 152 139q113 64 257 64q204 0 297 -109q80 -94 80 -273v-255q0 -184 8 -316q3 -49 6 -72z" />
    <glyph glyph-name="Itilde" unicode="&#x128;" horiz-adv-x="618" 
d="M171 940q0 134 -10 302l-9 138h314q-12 -128 -16 -279q-3 -78 -3 -161v-493q0 -155 9 -306q6 -92 10 -141h-314q10 130 16 284q3 80 3 163v493zM-41 1525q15 102 57 168q55 88 156 88q39 0 73 -12.5t95 -40.5q40 -19 72 -29.5t64 -10.5q16 0 31 3q34 4 55 34q12 17 22 50
h81q-15 -101 -56 -164q-59 -91 -161 -91q-38 0 -77.5 13t-90.5 37q-7 3 -12.5 5.5t-9.5 4.5q-46 22 -69.5 31t-42.5 9q-48 0 -74 -29q-18 -20 -35 -66h-78z" />
    <glyph glyph-name="itilde" unicode="&#x129;" horiz-adv-x="565" 
d="M159 610q0 129 -9 298l-3 47l-5 70h279q-10 -141 -13 -254q-3 -76 -3 -167v-233q0 -137 8 -267l3 -39l5 -65h-279q9 113 14 221q3 68 3 150v239zM-56 1160q15 102 57 168q55 88 156 88q39 0 73 -12.5t95 -40.5q40 -19 72 -29.5t64 -10.5q16 0 31 3q34 4 55 34
q12 17 22 50h81q-15 -101 -56 -164q-59 -91 -161 -91q-38 0 -77.5 13t-90.5 37q-7 3 -12.5 5.5t-9.5 4.5q-46 22 -69.5 31t-42.5 9q-48 0 -74 -29q-18 -20 -35 -66h-78z" />
    <glyph glyph-name="Imacron" unicode="&#x12a;" horiz-adv-x="618" 
d="M171 940q0 134 -10 302l-9 138h314q-12 -128 -16 -279q-3 -78 -3 -161v-493q0 -155 9 -306q6 -92 10 -141h-314q10 130 16 284q3 80 3 163v493zM37 1659q86 -8 143 -12q46 -2 64 -2h149q48 0 126 8l69 8v-131h-551v129z" />
    <glyph glyph-name="imacron" unicode="&#x12b;" horiz-adv-x="565" 
d="M159 610q0 129 -9 298l-3 47l-5 70h279q-10 -141 -13 -254q-3 -76 -3 -167v-233q0 -137 8 -267l3 -39l5 -65h-279q9 113 14 221q3 68 3 150v239zM14 1301q86 -8 143 -12q46 -2 64 -2h149q48 0 126 8l69 8v-131h-551v129z" />
    <glyph glyph-name="Ibreve" unicode="&#x12c;" horiz-adv-x="618" 
d="M171 940q0 134 -10 302l-9 138h314q-12 -128 -16 -279q-3 -78 -3 -161v-493q0 -155 9 -306q6 -92 10 -141h-314q10 130 16 284q3 80 3 163v493zM139 1804q4 -65 57 -103q24 -18 57 -27.5t70 -9.5q94 0 140 40q39 32 51 100l83 -11q-8 -127 -77 -198q-71 -73 -197 -73
q-57 0 -105 18t-83 52q-77 73 -78 201z" />
    <glyph glyph-name="ibreve" unicode="&#x12d;" horiz-adv-x="565" 
d="M159 610q0 129 -9 298l-3 47l-5 70h279q-10 -141 -13 -254q-3 -76 -3 -167v-233q0 -137 8 -267l3 -39l5 -65h-279q9 113 14 221q3 68 3 150v239zM108 1457q4 -65 57 -103q24 -18 57 -27.5t70 -9.5q94 0 140 40q39 32 51 100l83 -11q-8 -127 -77 -198q-71 -73 -197 -73
q-57 0 -105 18t-83 52q-77 73 -78 201z" />
    <glyph glyph-name="Iogonek" unicode="&#x12e;" horiz-adv-x="618" 
d="M285 -189q-13 -30 -13 -66q0 -46 30 -69q24 -19 66 -24q7 -1 23 -1q31 0 74 8l1 -133q-7 -7 -40 -13q-32 -6 -75 -6q-108 0 -178 41q-93 54 -93 167q0 96 67 173q49 57 136 103l19 9h-150q10 130 16 284q3 80 3 163v493q0 134 -10 302l-9 138h314q-12 -128 -16 -279
q-3 -78 -3 -161v-493q0 -155 9 -306q6 -92 10 -141h-1l-22 -13q-40 -26 -83 -67q-52 -49 -75 -109z" />
    <glyph glyph-name="iogonek" unicode="&#x12f;" horiz-adv-x="565" 
d="M460 1343q0 -55 -37 -88q-42 -37 -123 -37q-85 0 -128 37q-41 34 -41 88q0 57 41 92q43 37 128 37q81 0 123 -37q37 -34 37 -92zM348 -349q31 0 74 8l1 -133q-7 -7 -40 -13q-31 -6 -75 -6q-108 0 -178 41q-93 54 -93 167q0 96 67 173q49 57 136 103l19 9h-117
q9 113 14 221q3 68 3 150v239q0 129 -9 298l-3 47l-5 70h279q-10 -141 -13 -254q-3 -76 -3 -167v-233q0 -137 8 -267l3 -37q1 -24 5 -66l1 -1l-22 -13q-40 -26 -83 -67q-52 -49 -75 -109q-13 -30 -13 -66q0 -46 30 -69q24 -19 66 -24q7 -1 23 -1z" />
    <glyph glyph-name="Idotaccent" unicode="&#x130;" horiz-adv-x="618" 
d="M171 940q0 134 -10 302l-9 138h314q-12 -128 -16 -279q-3 -78 -3 -161v-493q0 -155 9 -306q6 -92 10 -141h-314q10 130 16 284q3 80 3 163v493zM196.5 1745.5q41.5 34.5 123.5 34.5q79 0 119 -35q36 -33 36 -89q0 -52 -36 -85q-41 -36 -119 -36q-81 0 -125 36
q-40 31 -40 85q0 55 41.5 89.5z" />
    <glyph glyph-name="dotlessi" unicode="&#x131;" horiz-adv-x="547" 
d="M151 610q0 129 -9 298l-3 47l-5 70h279q-10 -141 -13 -254q-3 -76 -3 -167v-233q0 -137 8 -267l3 -39l5 -65h-279q9 113 14 221q3 68 3 150v239z" />
    <glyph glyph-name="Jcircumflex" unicode="&#x134;" horiz-adv-x="663" 
d="M187 47q29 127 29 359v502q0 134 -8 318l-8 154h311l-1 -22q-4 -57 -8 -152q-2 -38 -3.5 -92.5t-2.5 -82.5l-1 -54q-2 -82 -2 -119v-501q0 -333 -126 -491q-109 -137 -320 -158q-26 -2 -38 -2q-69 0 -131 26q-28 10 -43 22q-15 10 -18 9l33 88q10 3 34 3q64 -2 128 9
q42 8 77 26q69 32 98 158zM441 1851l31 -44l31 -42l33 -44l157 -189h-171l-194 186l-201 -186h-103l155 189q20 25 62 86l28 44h172z" />
    <glyph glyph-name="jcircumflex" unicode="&#x135;" horiz-adv-x="595" 
d="M181 656q0 112 -9 263l-3 42l-5 64h283q-9 -71 -14 -210q-3 -69 -3 -159q0 -186 -1 -247v-91q-1 -33 -1 -72q-1 -16 -1 -37q-4 -145 -19.5 -239t-51.5 -154q-38 -63 -102 -93t-165 -30q-94 0 -162 31q-29 13 -52 32l52 101q16 -22 59 -34q22 -6 44 -6q51 0 79 34
q52 64 66 255q6 95 6 217v333zM395 1533l31 -44l31 -42l33 -44l157 -189h-171l-194 186l-201 -186h-103l155 189q20 25 62 86l28 44h172z" />
    <glyph glyph-name="Kcommaaccent" unicode="&#x136;" horiz-adv-x="1541" 
d="M1530 34l-5 -27q-28 -14 -99 -23q-38 -5 -80 -5q-123 0 -226 120q-95 110 -169 317q-42 97 -101 151q-41 37 -93 54q-17 5 -31 7h-16q-56 0 -110 -44l-29 -24l-109 -124q0 -166 11 -293q5 -76 12 -143h-331q8 108 15 287q3 80 3 163v479q0 162 -12 308q-4 74 -12 142h315
l-1 -740l456 511q61 69 128 151l63 78h207q-49 -40 -134 -128q-51 -55 -101 -115l-389 -440q36 20 76 36q56 21 124 21q45 0 92.5 -16t91.5 -50q103 -79 163 -226q54 -132 117 -235q50 -85 92 -128q48 -51 82 -64zM640 -166q39 29 114 29q66 0 104 -31q47 -39 47 -119
q0 -72 -30 -144q-24 -56 -68 -110q-43 -54 -97 -94l-72 37q94 94 129 178q15 36 15 64q-5 -1 -24 -1q-39 0 -79 13q-45 13 -67 48q-11 19 -11 45q0 56 39 85z" />
    <glyph glyph-name="kcommaaccent" unicode="&#x137;" horiz-adv-x="1330" 
d="M1295 58q6 0 16 2l-2 -61q-44 -15 -104 -20q-34 -3 -79 -3q-105 0 -198 81t-149 221q-50 104 -122 141q-39 20 -86 20q-36 0 -84 -31q-17 -12 -38 -31l1 1l-49 -47q1 -115 9 -227l9 -104h-282q8 74 15 222q3 68 3 150v663q0 127 -9 298l-9 120h282q-11 -118 -15 -258
q-3 -76 -3 -166v-509l337 340q43 45 86 107q28 40 41 60h286q-76 -57 -167 -135q-37 -32 -75 -68l-284 -276q21 8 49 15q37 8 76 8q88 0 167 -76q71 -69 145 -213q51 -90 102 -144q42 -46 78 -65q29 -15 53 -15zM517 -166q39 29 114 29q66 0 104 -31q47 -39 47 -119
q0 -72 -30 -144q-24 -56 -68 -110q-43 -54 -97 -94l-72 37q94 94 129 178q15 36 15 64q-5 -1 -24 -1q-39 0 -79 13q-45 13 -67 48q-11 19 -11 45q0 56 39 85z" />
    <glyph glyph-name="kgreenlandic" unicode="&#x138;" horiz-adv-x="1330" 
d="M1295 58q6 0 16 2l-2 -61q-44 -15 -104 -20q-34 -3 -79 -3q-105 0 -198 81t-149 221q-50 104 -122 141q-39 20 -86 20q-38 0 -84 -32q-13 -9 -39 -31l1 1l-48 -46q1 -115 9 -227l9 -104h-282q8 74 15 222q3 68 3 150v238q0 128 -9 299l-9 120h282q-11 -116 -15 -259
q-3 -78 -3 -166v-84l337 340q43 45 86 107q28 40 41 60h286q-76 -57 -167 -135q-37 -32 -75 -68l-284 -276q21 8 49 15q37 8 76 8q88 0 167 -76q71 -69 145 -213q51 -90 102 -144q42 -46 78 -65q29 -15 53 -15z" />
    <glyph glyph-name="Lacute" unicode="&#x139;" horiz-adv-x="1116" 
d="M171 916q0 139 -10 315l-9 149q84 -2 125 -2q63 0 189 2q-11 -151 -15 -298q-3 -82 -3 -166v-469q0 -96 3 -180l2 -79l3 -65q240 4 427 16q98 4 184 12v-151h-915q10 130 16 284q3 80 3 163v469zM693 1806q-61 -44 -120 -97q-20 -17 -52 -49l-125 -129h-167l129 149
q34 41 67 90q22 32 32 48z" />
    <glyph glyph-name="lacute" unicode="&#x13a;" horiz-adv-x="548" 
d="M149 1038q0 129 -9 298l-3 47l-5 70h279q-9 -98 -14 -254q-3 -76 -3 -166v-662q0 -137 8 -267l9 -104h-279q9 113 14 221q3 68 3 150v667zM669 1899q-61 -44 -120 -97q-20 -17 -52 -49l-125 -129h-167l129 149q34 41 67 90q22 32 32 48z" />
    <glyph glyph-name="Lcommaaccent" unicode="&#x13b;" horiz-adv-x="1116" 
d="M171 916q0 139 -10 315l-9 149q84 -2 125 -2q63 0 189 2q-11 -151 -15 -298q-3 -82 -3 -166v-469q0 -96 3 -180l2 -79l3 -65q240 4 427 16q98 4 184 12v-151h-915q10 130 16 284q3 80 3 163v469zM426 -166q39 29 114 29q66 0 104 -31q47 -39 47 -119q0 -72 -30 -144
q-24 -56 -68 -110q-43 -54 -97 -94l-72 37q94 94 129 178q15 36 15 64q-5 -1 -24 -1q-39 0 -79 13q-45 13 -67 48q-11 19 -11 45q0 56 39 85z" />
    <glyph glyph-name="lcommaaccent" unicode="&#x13c;" horiz-adv-x="548" 
d="M149 1038q0 129 -9 298l-3 47l-5 70h279q-9 -98 -14 -254q-3 -76 -3 -166v-662q0 -137 8 -267l9 -104h-279q9 113 14 221q3 68 3 150v667zM168 -169q39 29 114 29q66 0 104 -31q47 -39 47 -119q0 -72 -30 -144q-24 -56 -68 -110q-43 -54 -97 -94l-72 37q94 94 129 178
q15 36 15 64q-5 -1 -24 -1q-39 0 -79 13q-45 13 -67 48q-11 19 -11 45q0 56 39 85z" />
    <glyph glyph-name="Lcaron" unicode="&#x13d;" horiz-adv-x="1116" 
d="M171 916q0 139 -10 315l-9 149q84 -2 125 -2q63 0 189 2q-11 -151 -15 -298q-3 -82 -3 -166v-469q0 -96 3 -180l2 -79l3 -65q240 4 427 16q98 4 184 12v-151h-915q10 130 16 284q3 80 3 163v469zM219 1528l-31 44q-13 18 -24 32l-41 55l-155 190h169l195 -188l201 188
h104l-157 -190q-20 -25 -62 -87l-28 -44h-171z" />
    <glyph glyph-name="lcaron" unicode="&#x13e;" horiz-adv-x="665" 
d="M765 1325q0 -62 -25 -124q-21 -49 -59 -94q-39 -48 -83 -81l-62 32q80 80 111 153q13 33 13 55q-5 -1 -21 -1q-35 0 -68 11q-39 11 -57 41q-10 16 -10 39q0 49 33.5 73.5t98.5 24.5q56 0 89 -26q40 -33 40 -103zM394 1033v-662q0 -137 8 -267l9 -104h-279q9 113 14 221
q3 68 3 150v667q0 129 -9 298l-3 47l-5 70h279q-9 -98 -14 -254q-3 -76 -3 -166z" />
    <glyph glyph-name="Ldot" unicode="&#x13f;" horiz-adv-x="1116" 
d="M171 916q0 139 -10 315l-9 149q84 -2 125 -2q63 0 189 2q-11 -151 -15 -298q-3 -82 -3 -166v-469q0 -96 3 -180l2 -79l3 -65q240 4 427 16q98 4 184 12v-151h-915q10 130 16 284q3 80 3 163v469zM674.5 895.5q41.5 34.5 123.5 34.5q79 0 119 -35q36 -33 36 -89
q0 -52 -36 -85q-41 -36 -119 -36q-81 0 -125 36q-40 31 -40 85q0 55 41.5 89.5z" />
    <glyph glyph-name="ldot" unicode="&#x140;" horiz-adv-x="867" 
d="M576.5 597.5q41.5 34.5 123.5 34.5q79 0 119 -35q36 -33 36 -89q0 -52 -36 -85q-41 -36 -119 -36q-81 0 -125 36q-40 31 -40 85q0 55 41.5 89.5zM149 1038q0 129 -9 298l-3 47l-5 70h279q-9 -98 -14 -254q-3 -76 -3 -166v-662q0 -137 8 -267l9 -104h-279q9 113 14 221
q3 68 3 150v667z" />
    <glyph glyph-name="Lslash" unicode="&#x141;" horiz-adv-x="1113" 
d="M1064 151v-151h-915q10 130 16 284q3 80 3 163v137q-96 -52 -161 -89l-56 118q95 42 217 100v203q0 139 -10 315l-9 149q84 -2 125 -2q63 0 189 2q-11 -151 -15 -298q-3 -82 -3 -166v-64q51 27 75 40l112 62l58 -121q-97 -42 -230 -103l-15 -7v-276q0 -96 3 -180l2 -79
l3 -65q240 4 427 16q98 4 184 12z" />
    <glyph glyph-name="lslash" unicode="&#x142;" horiz-adv-x="548" 
d="M512 708v-337q0 -137 8 -267l9 -104h-279q9 113 14 221q3 68 3 150v214q-90 -48 -184 -101l-57 118l114 52l127 59v325q0 129 -9 298l-3 47l-5 70h279q-9 -98 -14 -254q-3 -76 -3 -166v-198l85 46l111 62l57 -121q-107 -46 -229 -103z" />
    <glyph glyph-name="Nacute" unicode="&#x143;" horiz-adv-x="1523" 
d="M1246 0q-242 257 -416 436q-120 125 -216 221q-120 120 -188 183q-78 73 -121 101l8 -423q11 -231 23 -369q4 -69 9 -109l3 -40h-191q0 49 3 142l1 54q4 172 4 281v457q0 152 -7 329l-6 117h123q249 -267 423 -449q161 -171 319 -331q158 -162 204 -199l-10 461
q-10 232 -23 376l-3 36q-10 100 -11 106h192q0 -46 -1 -80l-6 -252q-2 -98 -2 -144v-457q0 -197 7 -330q3 -78 7 -117h-125zM1150 1808q-61 -44 -120 -97q-20 -17 -52 -49l-125 -129h-167l129 149q34 41 67 90q22 32 32 48z" />
    <glyph glyph-name="nacute" unicode="&#x144;" horiz-adv-x="1310" 
d="M154 586q0 208 -8 328q-7 111 -9 111h278l-3 -42q-1 -12 -5 -94q0 -13 -2 -55q22 38 58 75.5t83 66.5q116 71 252 71q181 0 278 -88q102 -93 102 -280v-284q0 -193 7 -303l5 -70l2 -22h-277q9 115 13 214q2 94 2 168v229q0 276 -223 276q-61 0 -116.5 -26t-98.5 -72
q-44 -46 -68.5 -103.5t-25.5 -118.5v-196q0 -137 8 -267l9 -104h-278q9 113 14 221q3 68 3 150v215zM1070 1475q-61 -44 -120 -97q-20 -17 -52 -49l-125 -129h-167l129 149q34 41 67 90q22 32 32 48z" />
    <glyph glyph-name="Ncommaaccent" unicode="&#x145;" horiz-adv-x="1523" 
d="M1246 0q-242 257 -416 436q-120 125 -216 221q-120 120 -188 183q-78 73 -121 101l8 -423q11 -231 23 -369q4 -69 9 -109l3 -40h-191q0 49 3 142l1 54q4 172 4 281v457q0 152 -7 329l-6 117h123q249 -267 423 -449q161 -171 319 -331q158 -162 204 -199l-10 461
q-10 232 -23 376l-3 36q-10 100 -11 106h192q0 -46 -1 -80l-6 -252q-2 -98 -2 -144v-457q0 -197 7 -330q3 -78 7 -117h-125zM629 -165q39 29 114 29q66 0 104 -31q47 -39 47 -119q0 -72 -30 -144q-24 -56 -68 -110q-43 -54 -97 -94l-72 37q94 94 129 178q15 36 15 64
q-5 -1 -24 -1q-39 0 -79 13q-45 13 -67 48q-11 19 -11 45q0 56 39 85z" />
    <glyph glyph-name="ncommaaccent" unicode="&#x146;" horiz-adv-x="1310" 
d="M154 586q0 208 -8 328q-7 111 -9 111h278l-3 -42q-1 -12 -5 -94q0 -13 -2 -55q22 38 58 75.5t83 66.5q116 71 252 71q181 0 278 -88q102 -93 102 -280v-284q0 -193 7 -303l5 -70l2 -22h-277q9 115 13 214q2 94 2 168v229q0 276 -223 276q-61 0 -116.5 -26t-98.5 -72
q-44 -46 -68.5 -103.5t-25.5 -118.5v-196q0 -137 8 -267l9 -104h-278q9 113 14 221q3 68 3 150v215zM554 -166q39 29 114 29q66 0 104 -31q47 -39 47 -119q0 -72 -30 -144q-24 -56 -68 -110q-43 -54 -97 -94l-72 37q94 94 129 178q15 36 15 64q-5 -1 -24 -1q-39 0 -79 13
q-45 13 -67 48q-11 19 -11 45q0 56 39 85z" />
    <glyph glyph-name="Ncaron" unicode="&#x147;" horiz-adv-x="1523" 
d="M1246 0q-242 257 -416 436q-120 125 -216 221q-120 120 -188 183q-78 73 -121 101l8 -423q11 -231 23 -369q4 -69 9 -109l3 -40h-191q0 49 3 142l1 54q4 172 4 281v457q0 152 -7 329l-6 117h123q249 -267 423 -449q161 -171 319 -331q158 -162 204 -199l-10 461
q-10 232 -23 376l-3 36q-10 100 -11 106h192q0 -46 -1 -80l-6 -252q-2 -98 -2 -144v-457q0 -197 7 -330q3 -78 7 -117h-125zM711 1532l-31 44q-13 18 -24 32l-41 55l-155 190h169l195 -188l201 188h104l-157 -190q-20 -25 -62 -87l-28 -44h-171z" />
    <glyph glyph-name="ncaron" unicode="&#x148;" horiz-adv-x="1310" 
d="M154 586q0 208 -8 328q-7 111 -9 111h278l-3 -42q-1 -12 -5 -94q0 -13 -2 -55q22 38 58 75.5t83 66.5q116 71 252 71q181 0 278 -88q102 -93 102 -280v-284q0 -193 7 -303l5 -70l2 -22h-277q9 115 13 214q2 94 2 168v229q0 276 -223 276q-61 0 -116.5 -26t-98.5 -72
q-44 -46 -68.5 -103.5t-25.5 -118.5v-196q0 -137 8 -267l9 -104h-278q9 113 14 221q3 68 3 150v215zM599 1199l-31 44q-13 18 -24 32l-41 55l-155 190h169l195 -188l201 188h104l-157 -190q-20 -25 -62 -87l-28 -44h-171z" />
    <glyph glyph-name="napostrophe" unicode="&#x149;" horiz-adv-x="1310" 
d="M-169 1351q39 29 114 29q66 0 104 -31q47 -39 47 -119q0 -73 -30 -143q-21 -50 -68 -110q-45 -56 -97 -95l-72 37q96 96 129 179q15 38 15 64q-5 -1 -21 -1q-43 0 -82 12q-78 25 -78 93q0 56 39 85zM154 586q0 208 -8 328q-7 111 -9 111h278l-3 -42q-1 -12 -5 -94
q0 -13 -2 -55q22 38 58 75.5t83 66.5q116 71 252 71q181 0 278 -88q102 -93 102 -280v-284q0 -193 7 -303l5 -70l2 -22h-277q9 115 13 214q2 94 2 168v229q0 276 -223 276q-61 0 -116.5 -26t-98.5 -72q-44 -46 -68.5 -103.5t-25.5 -118.5v-196q0 -137 8 -267l9 -104h-278
q9 113 14 221q3 68 3 150v215z" />
    <glyph glyph-name="Omacron" unicode="&#x14c;" 
d="M1146 1361.5q141 -50.5 244 -145.5q104 -95 160 -228t56 -293q0 -235 -109 -407q-100 -157 -278 -241q-167 -79 -371 -79q-167 0 -308 49.5t-244 143.5q-104 94 -160.5 226t-56.5 292q0 231 110 405q101 158 279 245q84 41 178 62t193 21q166 0 307 -50.5zM732.5 1267.5
q-57.5 -16.5 -110.5 -49.5q-118 -72 -187 -198q-78 -145 -78 -333q0 -123 33 -230t95 -187q64 -83 154 -128.5t201 -46.5q85 0 171 36.5t155 107.5q75 77 118.5 190.5t43.5 260.5q0 122 -33 230t-95 189q-64 83 -154 128.5t-200 46.5q-56 0 -113.5 -16.5zM572 1671
q86 -8 143 -12q46 -2 64 -2h149q48 0 126 8l69 8v-131h-551v129z" />
    <glyph glyph-name="omacron" unicode="&#x14d;" horiz-adv-x="1320" 
d="M1206.5 275q-44.5 -101 -127.5 -169q-80 -65 -188 -97.5t-235 -32.5q-117 0 -222.5 31.5t-184.5 94.5q-85 68 -132.5 171.5t-47.5 243.5q0 132 45 233t128 169q79 65 187 97.5t235 32.5q118 0 223 -31.5t184 -94.5q85 -68 132.5 -171.5t47.5 -243.5q0 -132 -44.5 -233z
M964 685q-27 79 -74 134q-47 53 -107 80.5t-122 27.5t-120 -23t-103 -69q-51 -51 -79.5 -129.5t-28.5 -182.5q0 -101 27.5 -181t75.5 -135q47 -54 107.5 -81.5t124.5 -27.5q63 0 120.5 23t101.5 69q49 52 76.5 131t27.5 185q0 100 -27 179zM410 1327q86 -8 143 -12
q46 -2 64 -2h149q48 0 126 8l69 8v-131h-551v129z" />
    <glyph glyph-name="Obreve" unicode="&#x14e;" 
d="M1146 1361.5q141 -50.5 244 -145.5q104 -95 160 -228t56 -293q0 -235 -109 -407q-100 -157 -278 -241q-167 -79 -371 -79q-167 0 -308 49.5t-244 143.5q-104 94 -160.5 226t-56.5 292q0 231 110 405q101 158 279 245q84 41 178 62t193 21q166 0 307 -50.5zM732.5 1267.5
q-57.5 -16.5 -110.5 -49.5q-118 -72 -187 -198q-78 -145 -78 -333q0 -123 33 -230t95 -187q64 -83 154 -128.5t201 -46.5q85 0 171 36.5t155 107.5q75 77 118.5 190.5t43.5 260.5q0 122 -33 230t-95 189q-64 83 -154 128.5t-200 46.5q-56 0 -113.5 -16.5zM669 1819
q4 -65 57 -103q24 -18 57 -27.5t70 -9.5q94 0 140 40q39 32 51 100l83 -11q-8 -127 -77 -198q-71 -73 -197 -73q-57 0 -105 18t-83 52q-77 73 -78 201z" />
    <glyph glyph-name="obreve" unicode="&#x14f;" horiz-adv-x="1320" 
d="M1206.5 275q-44.5 -101 -127.5 -169q-80 -65 -188 -97.5t-235 -32.5q-117 0 -222.5 31.5t-184.5 94.5q-85 68 -132.5 171.5t-47.5 243.5q0 132 45 233t128 169q79 65 187 97.5t235 32.5q118 0 223 -31.5t184 -94.5q85 -68 132.5 -171.5t47.5 -243.5q0 -132 -44.5 -233z
M964 685q-27 79 -74 134q-47 53 -107 80.5t-122 27.5t-120 -23t-103 -69q-51 -51 -79.5 -129.5t-28.5 -182.5q0 -101 27.5 -181t75.5 -135q47 -54 107.5 -81.5t124.5 -27.5q63 0 120.5 23t101.5 69q49 52 76.5 131t27.5 185q0 100 -27 179zM498 1469q4 -65 57 -103
q24 -18 57 -27.5t70 -9.5q94 0 140 40q39 32 51 100l83 -11q-8 -127 -77 -198q-71 -73 -197 -73q-57 0 -105 18t-83 52q-77 73 -78 201z" />
    <glyph glyph-name="Ohungarumlaut" unicode="&#x150;" 
d="M1146 1361.5q141 -50.5 244 -145.5q104 -95 160 -228t56 -293q0 -235 -109 -407q-100 -157 -278 -241q-167 -79 -371 -79q-167 0 -308 49.5t-244 143.5q-104 94 -160.5 226t-56.5 292q0 231 110 405q101 158 279 245q84 41 178 62t193 21q166 0 307 -50.5zM732.5 1267.5
q-57.5 -16.5 -110.5 -49.5q-118 -72 -187 -198q-78 -145 -78 -333q0 -123 33 -230t95 -187q64 -83 154 -128.5t201 -46.5q85 0 171 36.5t155 107.5q75 77 118.5 190.5t43.5 260.5q0 122 -33 230t-95 189q-64 83 -154 128.5t-200 46.5q-56 0 -113.5 -16.5zM1048 1823l-50 -39
q-48 -38 -95 -85l-146 -150h-144l132 159q38 48 61 81q24 34 26 38zM1354 1823q-58 -45 -95 -78q-25 -23 -49 -46l-146 -150h-144l131 159q-3 -4 34 43q29 37 54 76z" />
    <glyph glyph-name="ohungarumlaut" unicode="&#x151;" horiz-adv-x="1320" 
d="M1206.5 275q-44.5 -101 -127.5 -169q-80 -65 -188 -97.5t-235 -32.5q-117 0 -222.5 31.5t-184.5 94.5q-85 68 -132.5 171.5t-47.5 243.5q0 132 45 233t128 169q79 65 187 97.5t235 32.5q118 0 223 -31.5t184 -94.5q85 -68 132.5 -171.5t47.5 -243.5q0 -132 -44.5 -233z
M964 685q-27 79 -74 134q-47 53 -107 80.5t-122 27.5t-120 -23t-103 -69q-51 -51 -79.5 -129.5t-28.5 -182.5q0 -101 27.5 -181t75.5 -135q47 -54 107.5 -81.5t124.5 -27.5q63 0 120.5 23t101.5 69q49 52 76.5 131t27.5 185q0 100 -27 179zM860 1487l-50 -39
q-48 -38 -95 -85l-146 -150h-144l132 159q38 48 61 81q24 34 26 38zM1166 1487q-58 -45 -95 -78q-25 -23 -49 -46l-146 -150h-144l131 159q-3 -4 34 43q29 37 54 76z" />
    <glyph glyph-name="OE" unicode="&#x152;" horiz-adv-x="2341" 
d="M2228 154v-154h-831q8 104 14 261q-37 -61 -91 -115q-90 -88 -212 -133.5t-260 -45.5q-167 0 -308 49.5t-244 143.5q-104 94 -160.5 226t-56.5 292q0 232 110 406q100 156 279 245q167 82 371 82q160 0 287 -50.5t215 -144.5q41 -44 69 -92q-4 77 -7 116q-4 58 -11 140
h825v-155q-129 13 -346 22q-112 4 -260 6v-464q264 6 372 10l66 3l90 5v-155q-180 9 -324 15q-125 4 -204 5v-64q0 -47 2 -171l2 -91q1 -63 5 -219q256 4 436 16q81 4 172 11zM1284.5 428.5q43.5 113.5 43.5 260.5q0 123 -33 230.5t-95 188.5q-64 82 -153.5 128t-200.5 48
q-56 0 -113.5 -16.5t-110.5 -49.5q-56 -34 -104 -84.5t-83 -114.5q-78 -145 -78 -333q0 -122 33 -229.5t95 -187.5q64 -83 154 -128.5t201 -46.5q85 0 171 36.5t155 107.5q75 77 118.5 190.5z" />
    <glyph glyph-name="oe" unicode="&#x153;" horiz-adv-x="2198" 
d="M1843 1017q124 -42 195 -114q87 -90 87 -219q0 -65 -24 -108.5t-72 -68.5q-87 -45 -274 -45l-458 -2q10 -173 107 -270q45 -45 104 -68.5t126 -23.5q76 0 174 36q79 29 150 80l42 -104q-22 -19 -62 -42.5t-88 -42.5q-121 -48 -221 -48q-150 0 -278 57q-128 55 -200 164
q-73 -108 -201 -166q-124 -56 -275 -56q-130 0 -240 32t-191 96q-84 66 -129.5 166t-45.5 232q0 186 91 315q82 119 227 177q137 55 301 55q154 0 280 -57q124 -56 197 -165q73 107 201 165q126 57 275 57q102 0 202 -32zM451 191q46 -45 105 -68.5t123 -24.5q64 1 126 29
t110 81q49 54 77 133t28 178q0 206 -109 315q-45 45 -104 68t-123 25q-66 -2 -128 -30t-109 -80q-49 -54 -77 -133t-28 -178q0 -209 109 -315zM1524.5 904q-57.5 -22 -104.5 -63q-50 -45 -82 -111t-40 -151l467 -1q14 0 31.5 6t33.5 19q41 34 41 101q0 55 -20 98t-55 72
q-32 26 -73 39.5t-82 13.5q-59 -1 -116.5 -23z" />
    <glyph glyph-name="Racute" unicode="&#x154;" horiz-adv-x="1487" 
d="M1452 5q-23 -8 -46 -13q-38 -8 -78 -8q-41 0 -76 5q-116 27 -224 175q-45 61 -88 138.5t-91 176.5q-42 70 -78 101q-21 17 -48.5 27t-67.5 15q-64 -2 -97 -2h-108v-175q0 -172 11 -304q6 -94 11 -141h-315l2 21l8 138q3 70 7 217q1 39 1 118v431q0 161 -12 310
q-3 57 -11 145q174 0 307 5t235 5q553 0 553 -398q0 -125 -93 -213q-90 -84 -245 -123q78 -7 139 -46q73 -48 116 -149q65 -147 119 -236q52 -86 93 -129q46 -51 81 -64zM550 1268l-55 -4q-36 -2 -45 -2v-545q63 -3 82 -3q51 0 108 6q138 15 222 69q107 70 107 201
q0 282 -334 282q-23 0 -85 -4zM1011 1807q-61 -44 -120 -97q-20 -17 -52 -49l-125 -129h-167l129 149q34 41 67 90q22 32 32 48z" />
    <glyph glyph-name="racute" unicode="&#x155;" horiz-adv-x="840" 
d="M154 634q0 134 -9 287l-3 39l-5 65h281q-3 -31 -8 -133q-4 -59 -5 -111q39 108 101 174q89 94 208 94q62 0 110 -21q17 -7 37 -20l-79 -192q-24 19 -64 30q-25 5 -51 5q-102 0 -175 -88q-34 -40 -57 -93t-33 -110v-189q0 -137 8 -267l3 -39l5 -65h-281q9 113 14 221
q3 68 3 150v263zM662 1475q-61 -44 -120 -97q-20 -17 -52 -49l-125 -129h-167l129 149q34 41 67 90q22 32 32 48z" />
    <glyph glyph-name="Rcommaaccent" unicode="&#x156;" horiz-adv-x="1487" 
d="M1452 5q-23 -8 -46 -13q-38 -8 -78 -8q-41 0 -76 5q-116 27 -224 175q-45 61 -88 138.5t-91 176.5q-42 70 -78 101q-21 17 -48.5 27t-67.5 15q-64 -2 -97 -2h-108v-175q0 -172 11 -304q6 -94 11 -141h-315l2 21l8 138q3 70 7 217q1 39 1 118v431q0 161 -12 310
q-3 57 -11 145q174 0 307 5t235 5q553 0 553 -398q0 -125 -93 -213q-90 -84 -245 -123q78 -7 139 -46q73 -48 116 -149q65 -147 119 -236q52 -86 93 -129q46 -51 81 -64zM550 1268l-55 -4q-36 -2 -45 -2v-545q63 -3 82 -3q51 0 108 6q138 15 222 69q107 70 107 201
q0 282 -334 282q-23 0 -85 -4zM630 -140q39 29 114 29q66 0 104 -31q47 -39 47 -119q0 -72 -30 -144q-24 -56 -68 -110q-43 -54 -97 -94l-72 37q94 94 129 178q15 36 15 64q-5 -1 -24 -1q-39 0 -79 13q-45 13 -67 48q-11 19 -11 45q0 56 39 85z" />
    <glyph glyph-name="rcommaaccent" unicode="&#x157;" horiz-adv-x="840" 
d="M154 634q0 134 -9 287l-3 39l-5 65h281q-3 -31 -8 -133q-4 -59 -5 -111q39 108 101 174q89 94 208 94q62 0 110 -21q17 -7 37 -20l-79 -192q-24 19 -64 30q-25 5 -51 5q-102 0 -175 -88q-34 -40 -57 -93t-33 -110v-189q0 -137 8 -267l3 -39l5 -65h-281q9 113 14 221
q3 68 3 150v263zM171 -173q39 29 114 29q66 0 104 -31q47 -39 47 -119q0 -72 -30 -144q-24 -56 -68 -110q-43 -54 -97 -94l-72 37q94 94 129 178q15 36 15 64q-5 -1 -24 -1q-39 0 -79 13q-45 13 -67 48q-11 19 -11 45q0 56 39 85z" />
    <glyph glyph-name="Rcaron" unicode="&#x158;" horiz-adv-x="1487" 
d="M1452 5q-23 -8 -46 -13q-38 -8 -78 -8q-41 0 -76 5q-116 27 -224 175q-45 61 -88 138.5t-91 176.5q-42 70 -78 101q-21 17 -48.5 27t-67.5 15q-64 -2 -97 -2h-108v-175q0 -172 11 -304q6 -94 11 -141h-315l2 21l8 138q3 70 7 217q1 39 1 118v431q0 161 -12 310
q-3 57 -11 145q174 0 307 5t235 5q553 0 553 -398q0 -125 -93 -213q-90 -84 -245 -123q78 -7 139 -46q73 -48 116 -149q65 -147 119 -236q52 -86 93 -129q46 -51 81 -64zM550 1268l-55 -4q-36 -2 -45 -2v-545q63 -3 82 -3q51 0 108 6q138 15 222 69q107 70 107 201
q0 282 -334 282q-23 0 -85 -4zM543 1531l-31 44q-13 18 -24 32l-41 55l-155 190h169l195 -188l201 188h104l-157 -190q-20 -25 -62 -87l-28 -44h-171z" />
    <glyph glyph-name="rcaron" unicode="&#x159;" horiz-adv-x="840" 
d="M154 634q0 134 -9 287l-3 39l-5 65h281q-3 -31 -8 -133q-4 -59 -5 -111q39 108 101 174q89 94 208 94q62 0 110 -21q17 -7 37 -20l-79 -192q-24 19 -64 30q-25 5 -51 5q-102 0 -175 -88q-34 -40 -57 -93t-33 -110v-189q0 -137 8 -267l3 -39l5 -65h-281q9 113 14 221
q3 68 3 150v263zM317 1197l-31 44q-13 18 -24 32l-41 55l-155 190h169l195 -188l201 188h104l-157 -190q-20 -25 -62 -87l-28 -44h-171z" />
    <glyph glyph-name="Sacute" unicode="&#x15a;" horiz-adv-x="1219" 
d="M129 283q89 -87 229 -140q59 -23 116.5 -35.5t102.5 -12.5q73 0 133.5 17t103.5 48q42 30 64 70.5t22 85.5q0 51 -31 96t-88 88q-51 37 -123 76l-19 10q-177 93 -261 143q-148 88 -208 196q-32 57 -32 135q0 75 28 143q56 136 240 184q93 25 232 25q237 0 438 -110
l-63 -146q-24 21 -70 44t-101 42q-56 19 -110 30t-94 11q-110 0 -175 -42q-34 -22 -52 -56.5t-18 -79.5q0 -40 30.5 -75.5t88.5 -70.5q51 -32 122 -66q179 -87 280 -148q146 -92 208 -211q32 -66 32 -144q0 -98 -42.5 -176t-119.5 -133q-78 -56 -184 -84.5t-225 -28.5
q-130 0 -256 37q-151 45 -262 133zM1008 1821q-61 -44 -120 -97q-20 -17 -52 -49l-125 -129h-167l129 149q34 41 67 90q22 32 32 48z" />
    <glyph glyph-name="sacute" unicode="&#x15b;" horiz-adv-x="928" 
d="M86 205q92 -58 206 -90q60 -17 123 -17q88 0 144 33q63 37 63 108q0 32 -21 59t-61 52q-38 24 -85 47q-126 59 -194 99q-103 59 -145 141q-23 44 -23 98q0 83 37 143.5t103 100.5q59 36 132.5 53t149.5 17q108 0 214 -43q47 -20 81 -43l-51 -130q-47 51 -128 80
q-44 15 -100 15q-82 0 -133 -27q-29 -15 -45 -39t-16 -57q0 -28 21.5 -51.5t62.5 -47.5q36 -21 85 -43q118 -53 195 -98q101 -59 146 -145q23 -48 23 -104q0 -87 -38.5 -152t-107.5 -108q-64 -39 -147 -59t-172 -20q-122 0 -258 50q-64 24 -112 50zM781 1473
q-61 -44 -120 -97q-20 -17 -52 -49l-125 -129h-167l129 149q34 41 67 90q22 32 32 48z" />
    <glyph glyph-name="Scircumflex" unicode="&#x15c;" horiz-adv-x="1219" 
d="M129 283q89 -87 229 -140q59 -23 116.5 -35.5t102.5 -12.5q73 0 133.5 17t103.5 48q42 30 64 70.5t22 85.5q0 51 -31 96t-88 88q-51 37 -123 76l-19 10q-177 93 -261 143q-148 88 -208 196q-32 57 -32 135q0 75 28 143q56 136 240 184q93 25 232 25q237 0 438 -110
l-63 -146q-24 21 -70 44t-101 42q-56 19 -110 30t-94 11q-110 0 -175 -42q-34 -22 -52 -56.5t-18 -79.5q0 -40 30.5 -75.5t88.5 -70.5q51 -32 122 -66q179 -87 280 -148q146 -92 208 -211q32 -66 32 -144q0 -98 -42.5 -176t-119.5 -133q-78 -56 -184 -84.5t-225 -28.5
q-130 0 -256 37q-151 45 -262 133zM699 1867l31 -44l31 -42l33 -44l157 -189h-171l-194 186l-201 -186h-103l155 189q20 25 62 86l28 44h172z" />
    <glyph glyph-name="scircumflex" unicode="&#x15d;" horiz-adv-x="928" 
d="M86 205q92 -58 206 -90q60 -17 123 -17q88 0 144 33q63 37 63 108q0 32 -21 59t-61 52q-38 24 -85 47q-126 59 -194 99q-103 59 -145 141q-23 44 -23 98q0 83 37 143.5t103 100.5q59 36 132.5 53t149.5 17q108 0 214 -43q47 -20 81 -43l-51 -130q-47 51 -128 80
q-44 15 -100 15q-82 0 -133 -27q-29 -15 -45 -39t-16 -57q0 -28 21.5 -51.5t62.5 -47.5q36 -21 85 -43q118 -53 195 -98q101 -59 146 -145q23 -48 23 -104q0 -87 -38.5 -152t-107.5 -108q-64 -39 -147 -59t-172 -20q-122 0 -258 50q-64 24 -112 50zM578 1517l31 -44l31 -42
l33 -44l157 -189h-171l-194 186l-201 -186h-103l155 189q20 25 62 86l28 44h172z" />
    <glyph glyph-name="Scedilla" unicode="&#x15e;" horiz-adv-x="1219" 
d="M1154 390q0 -98 -42.5 -176t-119.5 -133q-70 -51 -163 -79t-198 -33l-30 -100l64 3q78 2 125 -34q52 -39 52 -109q0 -68 -49 -112q-42 -39 -109 -58q-57 -17 -106 -17q-67 0 -131 16q-29 8 -50 16l39 88q31 -14 77 -22q20 -4 47 -4q53 0 89 20q40 23 40 67
q-1 38 -27.5 56.5t-71.5 18.5q-16 0 -24 -1l-80 -5l59 176q-106 4 -218 37q-151 45 -262 133l64 145q89 -87 229 -140q59 -23 116.5 -35.5t102.5 -12.5q73 0 133.5 17t103.5 48q42 30 64 70.5t22 85.5q0 51 -31 96t-88 88q-51 37 -123 76l-19 10q-177 93 -261 143
q-148 88 -208 196q-32 57 -32 135q0 75 28 143q56 136 240 184q93 25 232 25q237 0 438 -110l-63 -146q-24 21 -70 44t-101 42q-56 19 -110 30t-94 11q-110 0 -175 -42q-34 -22 -52 -56.5t-18 -79.5q0 -40 30.5 -75.5t88.5 -70.5q51 -32 122 -66q179 -87 280 -148
q146 -92 208 -211q32 -66 32 -144z" />
    <glyph glyph-name="scedilla" unicode="&#x15f;" horiz-adv-x="928" 
d="M870 316q0 -87 -38.5 -152t-107.5 -108q-90 -55 -214 -72l-34 -115l64 3q78 2 125 -34q52 -39 52 -109q0 -68 -49 -112q-42 -39 -109 -58q-57 -17 -106 -17q-67 0 -131 16q-29 8 -50 16l39 88q31 -14 77 -22q20 -4 47 -4q53 0 89 20q40 23 40 67q-1 38 -27.5 56.5
t-71.5 18.5q-16 0 -24 -1l-80 -5l62 185h-18q-122 0 -258 50q-64 24 -112 50l51 128q92 -58 206 -90q60 -17 123 -17q88 0 144 33q63 37 63 108q0 32 -21 59t-61 52q-38 24 -85 47q-126 59 -194 99q-103 59 -145 141q-23 44 -23 98q0 83 37 143.5t103 100.5q59 36 132.5 53
t149.5 17q108 0 214 -43q47 -20 81 -43l-51 -130q-47 51 -128 80q-44 15 -100 15q-82 0 -133 -27q-29 -15 -45 -39t-16 -57q0 -28 21.5 -51.5t62.5 -47.5q36 -21 85 -43q118 -53 195 -98q101 -59 146 -145q23 -48 23 -104z" />
    <glyph glyph-name="Scaron" unicode="&#x160;" horiz-adv-x="1219" 
d="M129 283q89 -87 229 -140q59 -23 116.5 -35.5t102.5 -12.5q73 0 133.5 17t103.5 48q42 30 64 70.5t22 85.5q0 51 -31 96t-88 88q-51 37 -123 76l-19 10q-177 93 -261 143q-148 88 -208 196q-32 57 -32 135q0 75 28 143q56 136 240 184q93 25 232 25q237 0 438 -110
l-63 -146q-24 21 -70 44t-101 42q-56 19 -110 30t-94 11q-110 0 -175 -42q-34 -22 -52 -56.5t-18 -79.5q0 -40 30.5 -75.5t88.5 -70.5q51 -32 122 -66q179 -87 280 -148q146 -92 208 -211q32 -66 32 -144q0 -98 -42.5 -176t-119.5 -133q-78 -56 -184 -84.5t-225 -28.5
q-130 0 -256 37q-151 45 -262 133zM542 1542l-31 44q-13 18 -24 32l-41 55l-155 190h169l195 -188l201 188h104l-157 -190q-20 -25 -62 -87l-28 -44h-171z" />
    <glyph glyph-name="scaron" unicode="&#x161;" horiz-adv-x="928" 
d="M86 205q92 -58 206 -90q60 -17 123 -17q88 0 144 33q63 37 63 108q0 32 -21 59t-61 52q-38 24 -85 47q-126 59 -194 99q-103 59 -145 141q-23 44 -23 98q0 83 37 143.5t103 100.5q59 36 132.5 53t149.5 17q108 0 214 -43q47 -20 81 -43l-51 -130q-47 51 -128 80
q-44 15 -100 15q-82 0 -133 -27q-29 -15 -45 -39t-16 -57q0 -28 21.5 -51.5t62.5 -47.5q36 -21 85 -43q118 -53 195 -98q101 -59 146 -145q23 -48 23 -104q0 -87 -38.5 -152t-107.5 -108q-64 -39 -147 -59t-172 -20q-122 0 -258 50q-64 24 -112 50zM397 1197l-31 44
q-13 18 -24 32l-41 55l-155 190h169l195 -188l201 188h104l-157 -190q-20 -25 -62 -87l-28 -44h-171z" />
    <glyph glyph-name="uni0162" unicode="&#x162;" horiz-adv-x="1128" 
d="M425 1261q-128 -6 -278 -22q-34 -4 -50 -5l-78 -9v155h1089v-155q-99 14 -252 27l-155 9v-816q0 -136 8 -304l9 -141h-310q10 178 14 284q3 80 3 161v816zM440 -166q39 29 114 29q66 0 104 -31q47 -39 47 -119q0 -72 -30 -144q-24 -56 -68 -110q-43 -54 -97 -94l-72 37
q94 94 129 178q15 36 15 64q-5 -1 -24 -1q-39 0 -79 13q-45 13 -67 48q-11 19 -11 45q0 56 39 85z" />
    <glyph glyph-name="uni0163" unicode="&#x163;" horiz-adv-x="842" 
d="M43 987q23 20 72 31q27 5 69 6q0 108 35 223q15 46 25 64q11 23 12 22h177q0 -49 -1 -80q-2 -104 -2 -229h105q65 0 95 1h80h61v-66q-1 -21 -1 -65q-8 2 -40 3q-57 4 -189 9l-112 4v-368q0 -131 6 -211t23 -131q18 -56 54 -83t97 -28q57 0 107 18q38 14 55 29l3 -105
q-17 -18 -45.5 -30.5t-72.5 -21.5q-43 -10 -111 -10q-119 0 -191 34t-110 106q-35 66 -47.5 167.5t-12.5 261.5v375h-142zM309 -166q39 29 114 29q66 0 104 -31q47 -39 47 -119q0 -72 -30 -144q-24 -56 -68 -110q-43 -54 -97 -94l-72 37q94 94 129 178q15 36 15 64
q-5 -1 -24 -1q-39 0 -79 13q-45 13 -67 48q-11 19 -11 45q0 56 39 85z" />
    <glyph glyph-name="Tcaron" unicode="&#x164;" horiz-adv-x="1128" 
d="M425 1261q-128 -6 -278 -22q-34 -4 -50 -5l-78 -9v155h1089v-155q-99 14 -252 27l-155 9v-816q0 -136 8 -304l9 -141h-310q10 178 14 284q3 80 3 161v816zM478 1532l-31 44q-13 18 -24 32l-41 55l-155 190h169l195 -188l201 188h104l-157 -190q-20 -25 -62 -87l-28 -44
h-171z" />
    <glyph glyph-name="tcaron" unicode="&#x165;" horiz-adv-x="842" 
d="M859 1377q29 22 83 22q50 0 78 -24q34 -31 34 -92q0 -101 -76 -193q-35 -43 -76 -74l-54 29q77 76 103 140q11 30 11 50q-13 -1 -33.5 0t-40.5 8q-58 19 -58 70q0 42 29 64zM43 987q23 20 72 31q27 5 69 6q0 108 35 223q15 46 25 64q11 23 12 22h177q0 -49 -1 -80
q-2 -104 -2 -229h105q65 0 95 1h80h61v-66q-1 -21 -1 -65q-8 2 -40 3q-57 4 -189 9l-112 4v-368q0 -131 6 -211t23 -131q18 -56 54 -83t97 -28q57 0 107 18q38 14 55 29l3 -105q-17 -18 -45.5 -30.5t-72.5 -21.5q-43 -10 -111 -10q-119 0 -191 34t-110 106
q-35 66 -47.5 167.5t-12.5 261.5v375h-142z" />
    <glyph glyph-name="Tbar" unicode="&#x166;" horiz-adv-x="1128" 
d="M1108 1380v-155q-99 14 -252 27l-155 9v-444q60 4 85 7l69 9v-129h-154v-259q0 -136 8 -304l9 -141h-310q10 178 14 284q3 80 3 161v259h-153v127q16 -2 23 -2q43 -5 118 -11q8 0 12 -1v444q-128 -6 -278 -22q-34 -4 -50 -5l-78 -9v155h1089z" />
    <glyph glyph-name="tbar" unicode="&#x167;" horiz-adv-x="842" 
d="M774 31q-17 -18 -45.5 -30.5t-72.5 -21.5q-43 -10 -111 -10q-119 0 -191 34t-110 106q-35 66 -47.5 167.5t-12.5 261.5v24h-136l1 74q37 21 109 32l26 3v242h-142l1 74q23 20 72 31q27 5 69 6q0 108 35 223q15 46 25 64q11 23 12 22h177q0 -49 -1 -80q-2 -104 -2 -229
h105q65 0 95 1h80h61v-66q-1 -21 -1 -65q-8 2 -40 3q-57 4 -189 9l-112 4v-236h108q101 0 150 1l2 -133q-71 11 -166 17q-45 3 -94 3v-20q0 -131 6 -211t23 -131q18 -56 54 -83t97 -28q57 0 107 18q38 14 55 29z" />
    <glyph glyph-name="Utilde" unicode="&#x168;" horiz-adv-x="1606" 
d="M429 687q0 -305 102 -448q101 -144 321 -144q207 0 319 129q126 145 127 455v247q0 135 -10 309l-9 145h184q-11 -143 -15 -291q-3 -81 -3 -163v-250q0 -371 -168 -547q-156 -162 -462 -162q-258 0 -409 88q-138 80 -195 232q-51 132 -51 329v305q0 114 -9 312l-8 147
h302q-10 -186 -13 -294q-3 -82 -3 -165v-234zM516 1537q15 102 57 168q55 88 156 88q39 0 73 -12.5t95 -40.5q40 -19 72 -29.5t64 -10.5q16 0 31 3q34 4 55 34q12 17 22 50h81q-15 -101 -56 -164q-59 -91 -161 -91q-38 0 -77.5 13t-90.5 37q-7 3 -12.5 5.5t-9.5 4.5
q-46 22 -69.5 31t-42.5 9q-48 0 -74 -29q-18 -20 -35 -66h-78z" />
    <glyph glyph-name="utilde" unicode="&#x169;" horiz-adv-x="1298" 
d="M1157 438q0 -176 8 -326q5 -68 9 -112h-278l3 42l3 58l3 89q-62 -104 -178 -161q-101 -50 -217 -50q-206 0 -300 114q-77 92 -77 253v285q0 155 -7 304l-5 69l-3 22h278q-1 0 -4 -46l-4 -49q-8 -102 -8 -288v-229q0 -276 224 -276q61 0 116.5 26t98.5 72q43 45 68 102.5
t26 117.5v199q0 116 -9 267l-3 42l-5 62h278q-9 -85 -14 -221q-3 -67 -3 -150v-216zM329 1191q15 102 57 168q55 88 156 88q39 0 73 -12.5t95 -40.5q40 -19 72 -29.5t64 -10.5q16 0 31 3q34 4 55 34q12 17 22 50h81q-15 -101 -56 -164q-59 -91 -161 -91q-38 0 -77.5 13
t-90.5 37q-7 3 -12.5 5.5t-9.5 4.5q-46 22 -69.5 31t-42.5 9q-48 0 -74 -29q-18 -20 -35 -66h-78z" />
    <glyph glyph-name="Umacron" unicode="&#x16a;" horiz-adv-x="1606" 
d="M429 687q0 -305 102 -448q101 -144 321 -144q207 0 319 129q126 145 127 455v247q0 135 -10 309l-9 145h184q-11 -143 -15 -291q-3 -81 -3 -163v-250q0 -371 -168 -547q-156 -162 -462 -162q-258 0 -409 88q-138 80 -195 232q-51 132 -51 329v305q0 114 -9 312l-8 147
h302q-10 -186 -13 -294q-3 -82 -3 -165v-234zM561 1660q86 -8 143 -12q46 -2 64 -2h149q48 0 126 8l69 8v-131h-551v129z" />
    <glyph glyph-name="umacron" unicode="&#x16b;" horiz-adv-x="1298" 
d="M1157 438q0 -176 8 -326q5 -68 9 -112h-278l3 42l3 58l3 89q-62 -104 -178 -161q-101 -50 -217 -50q-206 0 -300 114q-77 92 -77 253v285q0 155 -7 304l-5 69l-3 22h278q-1 0 -4 -46l-4 -49q-8 -102 -8 -288v-229q0 -276 224 -276q61 0 116.5 26t98.5 72q43 45 68 102.5
t26 117.5v199q0 116 -9 267l-3 42l-5 62h278q-9 -85 -14 -221q-3 -67 -3 -150v-216zM385 1325q86 -8 143 -12q46 -2 64 -2h149q48 0 126 8l69 8v-131h-551v129z" />
    <glyph glyph-name="Ubreve" unicode="&#x16c;" horiz-adv-x="1606" 
d="M429 687q0 -305 102 -448q101 -144 321 -144q207 0 319 129q126 145 127 455v247q0 135 -10 309l-9 145h184q-11 -143 -15 -291q-3 -81 -3 -163v-250q0 -371 -168 -547q-156 -162 -462 -162q-258 0 -409 88q-138 80 -195 232q-51 132 -51 329v305q0 114 -9 312l-8 147
h302q-10 -186 -13 -294q-3 -82 -3 -165v-234zM656 1804q4 -65 57 -103q24 -18 57 -27.5t70 -9.5q94 0 140 40q39 32 51 100l83 -11q-8 -127 -77 -198q-71 -73 -197 -73q-57 0 -105 18t-83 52q-77 73 -78 201z" />
    <glyph glyph-name="ubreve" unicode="&#x16d;" horiz-adv-x="1298" 
d="M1157 438q0 -176 8 -326q5 -68 9 -112h-278l3 42l3 58l3 89q-62 -104 -178 -161q-101 -50 -217 -50q-206 0 -300 114q-77 92 -77 253v285q0 155 -7 304l-5 69l-3 22h278q-1 0 -4 -46l-4 -49q-8 -102 -8 -288v-229q0 -276 224 -276q61 0 116.5 26t98.5 72q43 45 68 102.5
t26 117.5v199q0 116 -9 267l-3 42l-5 62h278q-9 -85 -14 -221q-3 -67 -3 -150v-216zM482 1469q4 -65 57 -103q24 -18 57 -27.5t70 -9.5q94 0 140 40q39 32 51 100l83 -11q-8 -127 -77 -198q-71 -73 -197 -73q-57 0 -105 18t-83 52q-77 73 -78 201z" />
    <glyph glyph-name="Uring" unicode="&#x16e;" horiz-adv-x="1606" 
d="M429 687q0 -305 102 -448q101 -144 321 -144q207 0 319 129q126 145 127 455v247q0 135 -10 309l-9 145h184q-11 -143 -15 -291q-3 -81 -3 -163v-250q0 -371 -168 -547q-156 -162 -462 -162q-258 0 -409 88q-138 80 -195 232q-51 132 -51 329v305q0 114 -9 312l-8 147
h302q-10 -186 -13 -294q-3 -82 -3 -165v-234zM751 1534q-49 14 -87 41q-41 29 -64 71.5t-23 98.5q0 114 90 177q38 26 87 39t99 13q53 0 102.5 -13.5t88.5 -40.5q41 -29 64.5 -72.5t23.5 -98.5q0 -116 -91 -177q-39 -26 -89 -39t-100 -13q-52 0 -101 14zM783 1657
q28 -29 70 -29q19 0 38 8t33 23q32 34 32 89q0 61 -34 95q-29 28 -71 28q-18 0 -36.5 -7.5t-33.5 -22.5q-32 -34 -32 -90q0 -60 34 -94z" />
    <glyph glyph-name="uring" unicode="&#x16f;" horiz-adv-x="1298" 
d="M1157 438q0 -176 8 -326q5 -68 9 -112h-278l3 42l3 58l3 89q-62 -104 -178 -161q-101 -50 -217 -50q-206 0 -300 114q-77 92 -77 253v285q0 155 -7 304l-5 69l-3 22h278q-1 0 -4 -46l-4 -49q-8 -102 -8 -288v-229q0 -276 224 -276q61 0 116.5 26t98.5 72q43 45 68 102.5
t26 117.5v199q0 116 -9 267l-3 42l-5 62h278q-9 -85 -14 -221q-3 -67 -3 -150v-216zM563 1200q-49 14 -87 41q-41 29 -64 71.5t-23 98.5q0 114 90 177q38 26 87 39t99 13q53 0 102.5 -13.5t88.5 -40.5q41 -29 64.5 -72.5t23.5 -98.5q0 -116 -91 -177q-39 -26 -89 -39
t-100 -13q-52 0 -101 14zM595 1323q28 -29 70 -29q19 0 38 8t33 23q32 34 32 89q0 61 -34 95q-29 28 -71 28q-18 0 -36.5 -7.5t-33.5 -22.5q-32 -34 -32 -90q0 -60 34 -94z" />
    <glyph glyph-name="Uhungarumlaut" unicode="&#x170;" horiz-adv-x="1606" 
d="M429 687q0 -305 102 -448q101 -144 321 -144q207 0 319 129q126 145 127 455v247q0 135 -10 309l-9 145h184q-11 -143 -15 -291q-3 -81 -3 -163v-250q0 -371 -168 -547q-156 -162 -462 -162q-258 0 -409 88q-138 80 -195 232q-51 132 -51 329v305q0 114 -9 312l-8 147
h302q-10 -186 -13 -294q-3 -82 -3 -165v-234zM1042 1808l-50 -39q-48 -38 -95 -85l-146 -150h-144l132 159q38 48 61 81q24 34 26 38zM1348 1808q-58 -45 -95 -78q-25 -23 -49 -46l-146 -150h-144l131 159q-3 -4 34 43q29 37 54 76z" />
    <glyph glyph-name="uhungarumlaut" unicode="&#x171;" horiz-adv-x="1298" 
d="M1157 438q0 -176 8 -326q5 -68 9 -112h-278l3 42l3 58l3 89q-62 -104 -178 -161q-101 -50 -217 -50q-206 0 -300 114q-77 92 -77 253v285q0 155 -7 304l-5 69l-3 22h278q-1 0 -4 -46l-4 -49q-8 -102 -8 -288v-229q0 -276 224 -276q61 0 116.5 26t98.5 72q43 45 68 102.5
t26 117.5v199q0 116 -9 267l-3 42l-5 62h278q-9 -85 -14 -221q-3 -67 -3 -150v-216zM851 1475l-50 -39q-48 -38 -95 -85l-146 -150h-144l132 159q38 48 61 81q24 34 26 38zM1157 1475q-58 -45 -95 -78q-25 -23 -49 -46l-146 -150h-144l131 159q-3 -4 34 43q29 37 54 76z" />
    <glyph glyph-name="Uogonek" unicode="&#x172;" horiz-adv-x="1606" 
d="M1463 1380q-11 -143 -15 -291q-3 -81 -3 -163v-250q0 -371 -168 -547q-109 -113 -291 -147q-36 -28 -58 -50q-52 -49 -75 -109q-13 -30 -13 -66q0 -46 30 -69q24 -19 66 -24q7 -1 23 -1q31 0 74 8l1 -133q-7 -7 -40 -13q-32 -6 -75 -6q-108 0 -178 41q-93 54 -93 167
q0 96 67 173q32 37 76 67q-240 4 -385 88q-138 80 -195 232q-51 132 -51 329v305q0 114 -9 312l-8 147h302q-10 -186 -13 -294q-3 -82 -3 -165v-234q0 -305 102 -448q101 -144 321 -144q207 0 319 129q126 145 127 455v247q0 135 -10 309l-9 145h184z" />
    <glyph glyph-name="uogonek" unicode="&#x173;" horiz-adv-x="1298" 
d="M1175 -474q-7 -7 -40 -13q-32 -6 -75 -6q-108 0 -178 41q-93 54 -93 167q0 96 67 173q49 57 136 103l19 9h-115l3 42l3 58l3 89q-62 -104 -178 -161q-101 -50 -217 -50q-206 0 -300 114q-77 92 -77 253v285q0 155 -7 304l-5 69l-3 22h278q-1 0 -4 -46l-4 -49
q-8 -102 -8 -288v-229q0 -276 224 -276q61 0 116.5 26t98.5 72q43 45 68 102.5t26 117.5v199q0 116 -9 267l-3 42l-5 62h278q-9 -85 -14 -221q-3 -67 -3 -150v-216q0 -176 8 -326q5 -68 9 -112l-22 -13q-40 -26 -83 -67q-52 -49 -75 -109q-13 -30 -13 -66q0 -46 30 -69
q24 -19 66 -24q7 -1 23 -1q31 0 74 8z" />
    <glyph glyph-name="Wcircumflex" unicode="&#x174;" horiz-adv-x="1979" 
d="M1340 0q-14 35 -26 75q-11 33 -13 40q-46 137 -69 203q-34 97 -64 172l-128 323l-128 -307q-74 -192 -113 -297q-52 -142 -78 -209h-257l-303 940q-58 181 -120 339q-32 76 -44 101h351q4 -19 14 -59l20 -77q23 -95 70 -254q3 -13 7 -23l92 -306l50 -166l69 -233l390 904
l115 1l354 -898l185 606q65 212 102 362l25 105l8 38h193q-43 -109 -107 -282l-57 -162l-167 -489q-54 -151 -108 -330l-24 -87l-8 -30h-231zM1140 1851l31 -44l31 -42l33 -44l157 -189h-171l-194 186l-201 -186h-103l155 189q20 25 62 86l28 44h172z" />
    <glyph glyph-name="wcircumflex" unicode="&#x175;" horiz-adv-x="1762" 
d="M1061 785q29 -71 96 -265q58 -167 106 -276l128 305q35 86 67 169q5 11 22 55q33 84 56 150l11 30l19 54l7 19h170q-43 -86 -132 -280q-34 -72 -69 -155l-253 -591h-195l-213 585l-222 -585h-197l-237 579q-73 175 -144 322q-23 48 -62 125h306l15 -46q35 -102 95 -263
q34 -92 78 -198l118 -283l192 548zM982 1519l31 -44l31 -42l33 -44l157 -189h-171l-194 186l-201 -186h-103l155 189q20 25 62 86l28 44h172z" />
    <glyph glyph-name="Ycircumflex" unicode="&#x176;" horiz-adv-x="1239" 
d="M744 676q0 -56 2 -186l1 -105q1 -131 7 -266l3 -66l1 -20q1 -30 4 -33h-300l2 20l8 136q3 67 7 212q1 39 1 116v159l-179 294q-115 188 -209 325q-56 81 -83 118h373q0 -4 22 -47q47 -100 152 -299q46 -88 120 -221l84 131l158 248q70 110 102 163q15 24 14 25h196
l-29 -38q-74 -98 -175 -242q-74 -106 -109 -161zM721 1857l31 -44l31 -42l33 -44l157 -189h-171l-194 186l-201 -186h-103l155 189q20 25 62 86l28 44h172z" />
    <glyph glyph-name="ycircumflex" unicode="&#x177;" horiz-adv-x="1096" 
d="M694 1517l31 -44l31 -42l33 -44l157 -189h-171l-194 186l-201 -186h-103l155 189q20 25 62 86l28 44h172zM142 -192q20 -25 53 -42q40 -21 72 -21q51 0 94 47q48 54 103 177l-247 608q-72 175 -145 324q-36 74 -64 124h308q0 -2 11 -37q30 -87 79 -215q55 -148 131 -329
q50 -120 76 -179q11 26 45 105q5 11 9 21.5t9 21.5q37 91 64 151q51 123 87 219l35 95l28 77l19 52l6 18h176q-44 -89 -111 -239l-18 -40q-39 -87 -68 -155l-252 -588q-45 -103 -86.5 -173.5t-84.5 -114.5q-44 -45 -93.5 -65t-107.5 -20q-56 0 -94.5 17t-80.5 52z" />
    <glyph glyph-name="Ydieresis" unicode="&#x178;" horiz-adv-x="1239" 
d="M744 676q0 -56 2 -186l1 -105q1 -131 7 -266l3 -66l1 -20q1 -30 4 -33h-300l2 20l8 136q3 67 7 212q1 39 1 116v159l-179 294q-115 188 -209 325q-56 81 -83 118h373q0 -4 22 -47q47 -100 152 -299q46 -88 120 -221l84 131l158 248q70 110 102 163q15 24 14 25h196
l-29 -38q-74 -98 -175 -242q-74 -106 -109 -161zM378 1742q38 38 109 38q69 0 101 -37q29 -35 29 -94q0 -57 -29 -90q-32 -38 -101 -38q-73 0 -109 38q-35 34 -35 90q0 58 35 93zM713 1742q36 38 107 38q70 0 104 -37q31 -35 31 -94q0 -56 -31 -90q-33 -38 -104 -38
q-72 0 -107 38q-32 33 -32 90q0 58 32 93z" />
    <glyph glyph-name="Zacute" unicode="&#x179;" horiz-adv-x="1263" 
d="M222 277q62 101 104 175l294 493q81 130 191 317q-277 -5 -529 -22q-101 -8 -171 -15v156q95 -1 252 -1h193q56 -1 147 -1h112h92h82q55 0 85 1h101q-63 -90 -152 -240q-51 -87 -108 -196l-275 -492q-118 -209 -182 -338q334 5 571 22q122 8 188 16v-154l-1171 2
q69 105 176 277zM1050 1808q-61 -44 -120 -97q-20 -17 -52 -49l-125 -129h-167l129 149q34 41 67 90q22 32 32 48z" />
    <glyph glyph-name="zacute" unicode="&#x17a;" horiz-adv-x="1032" 
d="M30 0q70 90 144 198q36 53 53 85l302 460q58 84 106 162q-212 -6 -392 -22l-34 -3q-96 -9 -109 -11v156h862q-57 -79 -108 -159q-23 -35 -76 -124l-287 -459q-41 -65 -53 -85l-49 -79q219 6 442 23l39 3q120 11 123 11v-156h-963zM899 1475q-61 -44 -120 -97
q-20 -17 -52 -49l-125 -129h-167l129 149q34 41 67 90q22 32 32 48z" />
    <glyph glyph-name="Zdotaccent" unicode="&#x17b;" horiz-adv-x="1263" 
d="M222 277q62 101 104 175l294 493q81 130 191 317q-277 -5 -529 -22q-101 -8 -171 -15v156q95 -1 252 -1h193q56 -1 147 -1h112h92h82q55 0 85 1h101q-63 -90 -152 -240q-51 -87 -108 -196l-275 -492q-118 -209 -182 -338q334 5 571 22q122 8 188 16v-154l-1171 2
q69 105 176 277zM566.5 1782.5q41.5 34.5 123.5 34.5q79 0 119 -35q36 -33 36 -89q0 -52 -36 -85q-41 -36 -119 -36q-81 0 -125 36q-40 31 -40 85q0 55 41.5 89.5z" />
    <glyph glyph-name="zdotaccent" unicode="&#x17c;" horiz-adv-x="1032" 
d="M30 0q70 90 144 198q36 53 53 85l302 460q58 84 106 162q-212 -6 -392 -22l-34 -3q-96 -9 -109 -11v156h862q-57 -79 -108 -159q-23 -35 -76 -124l-287 -459q-41 -65 -53 -85l-49 -79q219 6 442 23l39 3q120 11 123 11v-156h-963zM401.5 1397.5q41.5 34.5 123.5 34.5
q79 0 119 -35q36 -33 36 -89q0 -52 -36 -85q-41 -36 -119 -36q-81 0 -125 36q-40 31 -40 85q0 55 41.5 89.5z" />
    <glyph glyph-name="Zcaron" unicode="&#x17d;" horiz-adv-x="1263" 
d="M222 277q62 101 104 175l294 493q81 130 191 317q-277 -5 -529 -22q-101 -8 -171 -15v156q95 -1 252 -1h193q56 -1 147 -1h112h92h82q55 0 85 1h101q-63 -90 -152 -240q-51 -87 -108 -196l-275 -492q-118 -209 -182 -338q334 5 571 22q122 8 188 16v-154l-1171 2
q69 105 176 277zM552 1531l-31 44q-13 18 -24 32l-41 55l-155 190h169l195 -188l201 188h104l-157 -190q-20 -25 -62 -87l-28 -44h-171z" />
    <glyph glyph-name="zcaron" unicode="&#x17e;" horiz-adv-x="1032" 
d="M30 0q70 90 144 198q36 53 53 85l302 460q58 84 106 162q-212 -6 -392 -22l-34 -3q-96 -9 -109 -11v156h862q-57 -79 -108 -159q-23 -35 -76 -124l-287 -459q-41 -65 -53 -85l-49 -79q219 6 442 23l39 3q120 11 123 11v-156h-963zM465 1199l-31 44q-13 18 -24 32l-41 55
l-155 190h169l195 -188l201 188h104l-157 -190q-20 -25 -62 -87l-28 -44h-171z" />
    <glyph glyph-name="florin" unicode="&#x192;" horiz-adv-x="1006" 
d="M484 873q144 0 243 6q88 4 159 8l-23 -126l-378 1q1 -51 1 -150q0 -84 -7 -150q-16 -232 -69 -362q-27 -63 -63 -107.5t-84 -75.5q-44 -28 -99.5 -48.5t-131.5 -40.5l-22 88q80 40 122 113t57 178q12 87 12 191q0 84 -1 127l-1 137q0 67 1 100h-115v121q41 -5 121 -6
q7 86 18 140q33 184 128 280q109 112 311 112q95 0 199 -19q74 -14 143 -33l-31 -153q-35 28 -95 49q-32 11 -69 15q-74 26 -129 26q-61 0 -103 -33q-66 -52 -84 -196q-10 -72 -10 -192z" />
    <glyph glyph-name="AEacute" unicode="&#x1fc;" horiz-adv-x="1931" 
d="M923 396q-111 3 -194 3h-54q-135 -2 -178 -5q-13 -1 -73 -7l-231 -387h-173l16 22l43 60l61 88q54 77 150 221q10 16 16 23q12 18 26.5 40.5t31.5 48.5l539 878h905v-155q-140 13 -347 21q-86 3 -260 7v-462q215 4 372 11l68 3l89 5v-156q-189 10 -324 14q-125 4 -205 5
v-225q0 -178 9 -320q256 4 436 16q81 4 172 11v-156h-912zM731 514h118q36 0 74 2v212v158q0 83 -1 114t-1 82l-3 112l-412 -677q31 -3 159 -3h66zM1534 1807q-61 -44 -120 -97q-20 -17 -52 -49l-125 -129h-167l129 149q34 41 67 90q22 32 32 48z" />
    <glyph glyph-name="aeacute" unicode="&#x1fd;" horiz-adv-x="1956" 
d="M538.5 621q51.5 -3 72.5 -4l33 -2q83 -6 156 -14q1 9 1 25l-1 12l1 12q0 133 -63 207q-60 70 -165 70q-91 0 -179 -31q-68 -24 -122 -64l-48 118q175 99 379 99q144 0 241 -52q83 -46 129 -127q79 88 192 133q115 46 247 46q106 0 206 -32q121 -39 195 -111
q86 -88 86 -213q0 -71 -24 -116.5t-72 -70.5q-45 -24 -111.5 -33.5t-162.5 -10.5l-458 -2q3 -85 30 -153t73 -115q45 -46 104.5 -70t127.5 -24q81 0 181 38q83 31 145 78l41 -104q-77 -60 -175 -97q-99 -37 -193 -37q-197 0 -345 78q-146 77 -211 208q-7 -21 -25 -49
t-45 -58q-74 -79 -157 -121q-114 -57 -238 -57q-64 0 -122 17t-102 52q-48 39 -75 101t-27 149q0 61 20.5 118t63.5 103q104 107 314 107q31 0 82.5 -3zM1624.5 802.5q-19.5 42.5 -54.5 70.5q-32 26 -72.5 40t-81.5 14q-58 0 -116 -22t-107 -64q-52 -45 -84.5 -111.5
t-37.5 -150.5l468 -1q14 0 31 6t33 19q41 34 41 101q0 56 -19.5 98.5zM797 461l-2 28l-33 4q-51 5 -108 8q-63 3 -102 3l-37 -3q-121 -9 -167 -84q-29 -47 -29 -117q0 -87 68 -139q28 -21 60.5 -32.5t60.5 -11.5q60 0 112 17.5t92 50.5q39 33 62 76.5t27 93.5zM1400 1473
q-61 -44 -120 -97q-20 -17 -52 -49l-125 -129h-167l129 149q34 41 67 90q22 32 32 48z" />
    <glyph glyph-name="Oslashacute" unicode="&#x1fe;" 
d="M1234 1814q-61 -44 -120 -97q-20 -17 -52 -49l-125 -129h-167l129 149q34 41 67 90q22 32 32 48zM1032 1390l16 45q15 44 23 63l157 -11q-7 -18 -37 -78l-26 -55q100 -39 182 -102t139 -147q119 -175 119 -410t-109 -407q-100 -157 -278 -241q-167 -79 -371 -79
q-131 0 -245 33q-11 -28 -13 -36q-5 -19 -9 -28l-8 -24l-157 12l21 45l17 37l17 37q-185 86 -286 247q-106 168 -106 388q0 231 110 405q101 158 279 245q84 41 178 62t193 21q107 0 194 -22zM738.5 1269.5q-54.5 -14.5 -106.5 -43.5q-117 -65 -184 -175q-82 -132 -89 -298
q-1 -12 -1 -37q0 -43 5 -96q14 -124 63 -226.5t127 -171.5q100 233 229 539l92 218l40 98q45 111 72 185q-73 22 -141 22q-52 0 -106.5 -14.5zM744 372q-52 -122 -96 -237q91 -40 191 -40q85 0 171 36.5t155 107.5q75 77 118.5 190.5t43.5 260.5q0 161 -62 294
q-63 133 -175 206q-25 -56 -34 -79q-16 -40 -36 -84z" />
    <glyph glyph-name="oslashacute" unicode="&#x1ff;" horiz-adv-x="1320" 
d="M1004 1487q-61 -44 -120 -97q-20 -17 -52 -49l-125 -129h-167l129 149q34 41 67 90q22 32 32 48zM114 751q45 100 128 168q80 64 189.5 97t237.5 33q55 0 116 -14q34 99 70 213l21 72h157q-26 -58 -63 -151l-11 -27l-52 -132q156 -51 245 -171q99 -133 99 -333
q0 -132 -45 -232t-128 -168q-80 -65 -189 -97.5t-238 -32.5q-63 0 -114 13l-54 -166q1 2 -10 -33l-21 -72h-158q30 66 72 173q20 49 48 122q-158 54 -245 172q-100 134 -100 334q0 132 45 232zM371 330q40 -85 106 -136l117 310l117 310l38 100q-54 13 -85 13
q-63 0 -121.5 -23.5t-103.5 -69.5q-50 -52 -79.5 -127t-29.5 -171q0 -118 41 -206zM951 696q-36 79 -106 136l-231 -612l-20 -54l-21 -55q34 -13 91 -13q63 0 121 23t102 69q49 51 76.5 125.5t27.5 173.5q0 117 -40 207z" />
    <glyph glyph-name="Scommaaccent" unicode="&#x218;" horiz-adv-x="1219" 
d="M129 283q89 -87 229 -140q59 -23 116.5 -35.5t102.5 -12.5q73 0 133.5 17t103.5 48q42 30 64 70.5t22 85.5q0 51 -31 96t-88 88q-51 37 -123 76l-19 10q-177 93 -261 143q-148 88 -208 196q-32 57 -32 135q0 75 28 143q56 136 240 184q93 25 232 25q237 0 438 -110
l-63 -146q-24 21 -70 44t-101 42q-56 19 -110 30t-94 11q-110 0 -175 -42q-34 -22 -52 -56.5t-18 -79.5q0 -40 30.5 -75.5t88.5 -70.5q51 -32 122 -66q179 -87 280 -148q146 -92 208 -211q32 -66 32 -144q0 -98 -42.5 -176t-119.5 -133q-78 -56 -184 -84.5t-225 -28.5
q-130 0 -256 37q-151 45 -262 133zM511 -195q39 29 114 29q66 0 104 -31q47 -39 47 -119q0 -72 -30 -144q-24 -56 -68 -110q-43 -54 -97 -94l-72 37q94 94 129 178q15 36 15 64q-5 -1 -24 -1q-39 0 -79 13q-45 13 -67 48q-11 19 -11 45q0 56 39 85z" />
    <glyph glyph-name="scommaaccent" unicode="&#x219;" horiz-adv-x="928" 
d="M86 205q92 -58 206 -90q60 -17 123 -17q88 0 144 33q63 37 63 108q0 32 -21 59t-61 52q-38 24 -85 47q-126 59 -194 99q-103 59 -145 141q-23 44 -23 98q0 83 37 143.5t103 100.5q59 36 132.5 53t149.5 17q108 0 214 -43q47 -20 81 -43l-51 -130q-47 51 -128 80
q-44 15 -100 15q-82 0 -133 -27q-29 -15 -45 -39t-16 -57q0 -28 21.5 -51.5t62.5 -47.5q36 -21 85 -43q118 -53 195 -98q101 -59 146 -145q23 -48 23 -104q0 -87 -38.5 -152t-107.5 -108q-64 -39 -147 -59t-172 -20q-122 0 -258 50q-64 24 -112 50zM367 -166q39 29 114 29
q66 0 104 -31q47 -39 47 -119q0 -72 -30 -144q-24 -56 -68 -110q-43 -54 -97 -94l-72 37q94 94 129 178q15 36 15 64q-5 -1 -24 -1q-39 0 -79 13q-45 13 -67 48q-11 19 -11 45q0 56 39 85z" />
    <glyph glyph-name="uni021A" unicode="&#x21a;" horiz-adv-x="1128" 
d="M425 1261q-128 -6 -278 -22q-34 -4 -50 -5l-78 -9v155h1089v-155q-99 14 -252 27l-155 9v-816q0 -136 8 -304l9 -141h-310q10 178 14 284q3 80 3 161v816zM431 -166q39 29 114 29q66 0 104 -31q47 -39 47 -119q0 -72 -30 -144q-24 -56 -68 -110q-43 -54 -97 -94l-72 37
q94 94 129 178q15 36 15 64q-5 -1 -24 -1q-39 0 -79 13q-45 13 -67 48q-11 19 -11 45q0 56 39 85z" />
    <glyph glyph-name="uni021B" unicode="&#x21b;" horiz-adv-x="842" 
d="M43 987q23 20 72 31q27 5 69 6q0 108 35 223q15 46 25 64q11 23 12 22h177q0 -49 -1 -80q-2 -104 -2 -229h105q65 0 95 1h80h61v-66q-1 -21 -1 -65q-8 2 -40 3q-57 4 -189 9l-112 4v-368q0 -131 6 -211t23 -131q18 -56 54 -83t97 -28q57 0 107 18q38 14 55 29l3 -105
q-17 -18 -45.5 -30.5t-72.5 -21.5q-43 -10 -111 -10q-119 0 -191 34t-110 106q-35 66 -47.5 167.5t-12.5 261.5v375h-142zM359 -162.5q34 25.5 100 25.5q57 0 92 -28q41 -34 41 -106q0 -116 -88 -226q-38 -47 -87 -85l-64 34q87 87 117 161q13 32 13 57q-5 -1 -21 -1
q-35 0 -68 11q-40 13 -59 43q-10 16 -10 39q0 50 34 75.5z" />
    <glyph glyph-name="uni0237" unicode="&#x237;" horiz-adv-x="595" 
d="M181 656q0 112 -9 263l-3 42l-5 64h283q-9 -71 -14 -210q-3 -69 -3 -159q0 -186 -1 -247v-91q-1 -33 -1 -72q-1 -16 -1 -37q-4 -145 -19.5 -239t-51.5 -154q-38 -63 -102 -93t-165 -30q-94 0 -162 31q-29 13 -52 32l52 101q16 -22 59 -34q22 -6 44 -6q51 0 79 34
q52 64 66 255q6 95 6 217v333z" />
    <glyph glyph-name="circumflex" unicode="&#x2c6;" horiz-adv-x="858" 
d="M537 1411l31 -44l31 -42l33 -44l157 -189h-171l-194 186l-201 -186h-103l155 189q20 25 62 86l28 44h172z" />
    <glyph glyph-name="caron" unicode="&#x2c7;" horiz-adv-x="603" 
d="M371 1107l-31 44q-13 18 -24 32l-41 55l-155 190h169l195 -188l201 188h104l-157 -190q-20 -25 -62 -87l-28 -44h-171z" />
    <glyph glyph-name="uni02C9" unicode="&#x2c9;" horiz-adv-x="681" 
d="M633 1324q-47 4 -74 7q-86 8 -132 8h-150q-38 0 -126 -9l-69 -8v132h551v-130z" />
    <glyph glyph-name="breve" unicode="&#x2d8;" horiz-adv-x="610" 
d="M88 1388q4 -65 57 -103q24 -18 57 -27.5t70 -9.5q94 0 140 40q39 32 51 100l83 -11q-8 -127 -77 -198q-71 -73 -197 -73q-57 0 -105 18t-83 52q-77 73 -78 201z" />
    <glyph glyph-name="dotaccent" unicode="&#x2d9;" horiz-adv-x="437" 
d="M99.5 1419.5q41.5 34.5 123.5 34.5q79 0 119 -35q36 -33 36 -89q0 -52 -36 -85q-41 -36 -119 -36q-81 0 -125 36q-40 31 -40 85q0 55 41.5 89.5z" />
    <glyph glyph-name="ring" unicode="&#x2da;" horiz-adv-x="673" 
d="M233 1115q-49 14 -87 41q-41 29 -64 71.5t-23 98.5q0 114 90 177q38 26 87 39t99 13q53 0 102.5 -13.5t88.5 -40.5q41 -29 64.5 -72.5t23.5 -98.5q0 -116 -91 -177q-39 -26 -89 -39t-100 -13q-52 0 -101 14zM265 1238q28 -29 70 -29q19 0 38 8t33 23q32 34 32 89
q0 61 -34 95q-29 28 -71 28q-18 0 -36.5 -7.5t-33.5 -22.5q-32 -34 -32 -90q0 -60 34 -94z" />
    <glyph glyph-name="ogonek" unicode="&#x2db;" horiz-adv-x="613" 
d="M544 -474q-7 -7 -40 -13q-31 -6 -75 -6q-108 0 -178 41q-93 54 -93 167q0 96 67 173q49 57 136 103q33 16 61.5 25t44.5 9q29 -1 54 -13q11 -4 22 -12l-22 -13q-40 -26 -83 -67q-52 -49 -75 -109q-13 -30 -13 -66q0 -46 30 -69q24 -19 66 -24q7 -1 23 -1q31 0 74 8z" />
    <glyph glyph-name="tilde" unicode="&#x2dc;" horiz-adv-x="789" 
d="M29 1102q15 102 57 168q55 88 156 88q39 0 73 -12.5t95 -40.5q40 -19 72 -29.5t64 -10.5q16 0 31 3q34 4 55 34q12 17 22 50h81q-15 -101 -56 -164q-59 -91 -161 -91q-38 0 -77.5 13t-90.5 37q-7 3 -12.5 5.5t-9.5 4.5q-46 22 -69.5 31t-42.5 9q-48 0 -74 -29
q-18 -20 -35 -66h-78z" />
    <glyph glyph-name="hungarumlaut" unicode="&#x2dd;" horiz-adv-x="851" 
d="M491 1369l-50 -39q-48 -38 -95 -85l-146 -150h-144l132 159q38 48 61 81q24 34 26 38zM797 1369q-58 -45 -95 -78q-25 -23 -49 -46l-146 -150h-144l131 159q-3 -4 34 43q29 37 54 76z" />
    <glyph glyph-name="tonos" unicode="&#x384;" horiz-adv-x="255" 
d="M219 1307q-9 -50 -17 -121l-8 -65l-12 -123l-113 -1l-13 122q-4 46 -7 66l-7 60l-8 62h185z" />
    <glyph glyph-name="dieresistonos" unicode="&#x385;" horiz-adv-x="611" 
d="M384 1377q-12 -54 -23 -122q-7 -38 -8 -66l-5 -122h-115l-7 122q-5 75 -15 125q-3 25 -11 62zM1 1228q29 29 86 29q54 0 79 -30q22 -26 22 -74q0 -46 -24 -73.5t-77 -27.5q-57 0 -86 28t-29 73q0 46 29 75zM421 1228.5q26 28.5 83 28.5q54 0 80.5 -28.5t26.5 -75.5
q0 -45 -26.5 -73t-80.5 -28q-57 0 -83 27.5t-26 73.5q0 47 26 75.5z" />
    <glyph glyph-name="Alphatonos" unicode="&#x386;" horiz-adv-x="1472" 
d="M847 1380l372 -908q79 -193 151 -336q41 -81 70 -136h-360q2 0 -6 26q-13 46 -54 169l-40 120q-15 3 -85 8q-53 4 -169 4h-178q-97 0 -142 -4l-77 -6l-40 -99q-30 -71 -68 -169l-19 -49h-182l12 24q38 73 78 156q44 90 108 229l51 113l371 858h207zM377 447q48 -3 85 -3
h76h190q153 0 208 4l-276 691zM219 1352q-9 -50 -17 -121l-8 -65l-12 -123l-113 -1l-13 122q-4 46 -7 66l-7 60l-8 62h185z" />
    <glyph glyph-name="Epsilontonos" unicode="&#x388;" horiz-adv-x="1251" 
d="M150 1383q-9 -50 -17 -121l-8 -65l-12 -123l-113 -1l-13 122q-4 46 -7 66l-7 60l-8 62h185zM238 934q0 162 -12 306q-4 58 -11 140h908v-155q-130 13 -347 22q-112 4 -260 6v-464q264 6 372 10l68 3l89 5v-155q-185 10 -325 15q-125 4 -204 5l1 -547q233 4 440 17
q96 4 176 12v-154h-912q10 180 14 284q3 80 3 163v487z" />
    <glyph glyph-name="Etatonos" unicode="&#x389;" horiz-adv-x="1753" 
d="M171 1381q-9 -50 -17 -121l-8 -65l-12 -123l-113 -1l-13 122q-4 46 -7 66l-7 60l-8 62h185zM1564 451q0 -175 11 -309q6 -93 11 -142h-300v643q-87 4 -146 5l-63 1q-106 2 -164 2q-72 0 -186 -2l-55 -1q-54 -1 -138 -5v-196q0 -174 11 -306q6 -94 11 -141h-317
q10 180 14 284q3 80 3 163v482q0 162 -12 308q-3 56 -11 142h301v-598q89 -4 140 -5l55 -1q114 -2 186 -2q86 0 224 2q91 1 147 4v154q0 162 -12 306q-3 55 -11 141h318q-9 -119 -14 -284q-3 -81 -3 -163v-482z" />
    <glyph glyph-name="Iotatonos" unicode="&#x38a;" horiz-adv-x="743" 
d="M284 940q0 134 -10 302l-9 138h314q-12 -128 -16 -279q-3 -78 -3 -161v-493q0 -155 9 -306q6 -92 10 -141h-314q10 130 16 284q3 80 3 163v493zM157 1380q-9 -50 -17 -121l-8 -65l-12 -123l-113 -1l-13 122q-4 46 -7 66l-7 60l-8 62h185z" />
    <glyph glyph-name="Omicrontonos" unicode="&#x38c;" 
d="M1146 1361.5q141 -50.5 244 -145.5q104 -95 160 -228t56 -293q0 -235 -109 -407q-100 -157 -278 -241q-167 -79 -371 -79q-167 0 -308 49.5t-244 143.5q-104 94 -160.5 226t-56.5 292q0 231 110 405q101 158 279 245q84 41 178 62t193 21q166 0 307 -50.5zM732.5 1267.5
q-57.5 -16.5 -110.5 -49.5q-118 -72 -187 -198q-78 -145 -78 -333q0 -123 33 -230t95 -187q64 -83 154 -128.5t201 -46.5q85 0 171 36.5t155 107.5q75 77 118.5 190.5t43.5 260.5q0 122 -33 230t-95 189q-64 83 -154 128.5t-200 46.5q-56 0 -113.5 -16.5zM149 1376
q-9 -50 -17 -121l-8 -65l-12 -123l-113 -1l-13 122q-4 46 -7 66l-7 60l-8 62h185z" />
    <glyph glyph-name="Upsilontonos" unicode="&#x38e;" horiz-adv-x="1239" 
d="M744 676q0 -56 2 -186l1 -105q1 -131 7 -266l3 -66l1 -20q1 -30 4 -33h-300l2 20l8 136q3 67 7 212q1 39 1 116v159l-179 294q-115 188 -209 325q-56 81 -83 118h373q0 -4 22 -47q47 -100 152 -299q46 -88 120 -221l84 131l158 248q70 110 102 163q15 24 14 25h196
l-29 -38q-74 -98 -175 -242q-74 -106 -109 -161zM1065 1778q-61 -44 -120 -97q-20 -17 -52 -49l-125 -129h-167l129 149q34 41 67 90q22 32 32 48z" />
    <glyph glyph-name="Omegatonos" unicode="&#x38f;" horiz-adv-x="1451" 
d="M1404 243l-3 -243h-559l-27 94q82 98 142 207q61 108 98 225q45 140 45 275q0 198 -61 314q-52 97 -144 137q-70 30 -167 30q-73 0 -139.5 -28.5t-118.5 -85.5q-118 -131 -118 -370q0 -133 45 -266q37 -115 98 -225q60 -111 142 -213h1v-1l-27 -93h-560l-1 243
q128 -25 289 -36q49 -5 105 -6l-91 100q-69 75 -116 133.5t-82 117.5q-41 69 -63 139t-22 148q0 197 99 333q89 121 245 183q141 56 315 56t313 -50q158 -59 243 -175q97 -136 97 -338q0 -148 -83 -291q-36 -62 -83.5 -123t-112.5 -133l-90 -100q136 4 254 20q86 12 137 22z
M75 1381q-9 -50 -17 -121l-8 -65l-12 -123l-113 -1l-13 122q-4 46 -7 66l-7 60l-8 62h185z" />
    <glyph glyph-name="iotadieresistonos" unicode="&#x390;" horiz-adv-x="669" 
d="M408 1505q-12 -54 -23 -122q-7 -38 -8 -66l-5 -122h-115l-7 122q-5 75 -15 125q-3 25 -11 62zM25 1356q29 29 86 29q54 0 79 -30q22 -26 22 -74q0 -46 -24 -73.5t-77 -27.5q-57 0 -86 28t-29 73q0 46 29 75zM445 1356.5q26 28.5 83 28.5q54 0 80.5 -28.5t26.5 -75.5
q0 -45 -26.5 -73t-80.5 -28q-57 0 -83 27.5t-26 73.5q0 47 26 75.5zM646 37q-35 -37 -115 -57q-42 -11 -103 -11q-131 0 -189 71q-26 31 -39.5 77t-18.5 108q-4 62 -4 100l1 163v189q0 122 -10 248l-9 100h281l-2 -37q-6 -79 -11 -230q-3 -73 -3 -144v-156q0 -110 3 -175.5
t11 -107.5q8 -46 25 -67t47 -21q40 0 82 26q18 10 33 27z" />
    <glyph glyph-name="Alpha" unicode="&#x391;" horiz-adv-x="1472" 
d="M847 1380l372 -908q79 -193 151 -336q41 -81 70 -136h-360q2 0 -6 26q-13 46 -54 169l-40 120q-15 3 -85 8q-53 4 -169 4h-178q-97 0 -142 -4l-77 -6l-40 -99q-30 -71 -68 -169l-19 -49h-182l12 24q38 73 78 156q44 90 108 229l51 113l371 858h207zM377 447q48 -3 85 -3
h76h190q153 0 208 4l-276 691z" />
    <glyph glyph-name="Beta" unicode="&#x392;" horiz-adv-x="1308" 
d="M175 932q0 163 -12 307q-3 55 -11 141h125q47 0 133 2t127 2t61 1q80 2 126 2q20 0 72 -2q76 -8 141.5 -35t113.5 -70q48 -44 74.5 -100t26.5 -120q0 -63 -25.5 -115.5t-73.5 -92.5q-97 -79 -260 -97q203 -19 309 -91q132 -91 132 -262q0 -93 -38.5 -170t-112.5 -131
q-76 -56 -185.5 -84t-248.5 -25q-208 8 -311 8h-180q10 180 14 284q3 80 3 163v485zM468 1273l-17 1v-483h30q8 -1 29 -1q10 0 17 1h23q14 0 21 1h15q20 0 49.5 5.5t60.5 16.5q78 28 126 82q58 67 57 166q-4 109 -75 164q-69 52 -189 52q-33 0 -52 -1q-41 -3 -78 -3z
M878 591q-62 54 -174 77q-81 15 -185 15h-68v-201v-106q0 -55 2 -145l1 -49l3 -75q28 0 82 -2q32 -2 49 -2l36 1q332 8 332 299q0 120 -78 188z" />
    <glyph glyph-name="Gamma" unicode="&#x393;" horiz-adv-x="1089" 
d="M171 930q0 137 -10 307l-9 143h926v-157q-167 13 -376 22q-79 3 -233 7q-7 -138 -7 -322v-464q0 -156 9 -316l9 -150q-132 2 -196 2q-40 0 -132 -2q10 139 16 300q3 83 3 166v464z" />
    <glyph glyph-name="Epsilon" unicode="&#x395;" horiz-adv-x="1169" 
d="M162 934q0 162 -12 306q-4 58 -11 140h908v-155q-130 13 -347 22q-112 4 -260 6v-464q264 6 372 10l68 3l89 5v-155q-185 10 -325 15q-125 4 -204 5l1 -547q233 4 440 17q96 4 176 12v-154h-912q10 180 14 284q3 80 3 163v487z" />
    <glyph glyph-name="Zeta" unicode="&#x396;" horiz-adv-x="1263" 
d="M222 277q62 101 104 175l294 493q81 130 191 317q-277 -5 -529 -22q-101 -8 -171 -15v156q95 -1 252 -1h193q56 -1 147 -1h112h92h82q55 0 85 1h101q-63 -90 -152 -240q-51 -87 -108 -196l-275 -492q-118 -209 -182 -338q334 5 571 22q122 8 188 16v-154l-1171 2
q69 105 176 277z" />
    <glyph glyph-name="Eta" unicode="&#x397;" horiz-adv-x="1658" 
d="M1483 451q0 -175 11 -309q6 -93 11 -142h-300v643q-87 4 -146 5l-63 1q-106 2 -164 2q-72 0 -186 -2l-55 -1q-54 -1 -138 -5v-196q0 -174 11 -306q6 -94 11 -141h-317q10 180 14 284q3 80 3 163v482q0 162 -12 308q-3 56 -11 142h301v-598q89 -4 140 -5l55 -1
q114 -2 186 -2q86 0 224 2q91 1 147 4v154q0 162 -12 306q-3 55 -11 141h318q-9 -119 -14 -284q-3 -81 -3 -163v-482z" />
    <glyph glyph-name="Theta" unicode="&#x398;" 
d="M1146 1361.5q141 -50.5 244 -145.5q104 -95 160 -228t56 -293q0 -235 -109 -407q-100 -157 -278 -241q-167 -79 -371 -79q-167 0 -308 49.5t-244 143.5q-104 94 -160.5 226t-56.5 292q0 231 110 405q101 158 279 245q84 41 178 62t193 21q166 0 307 -50.5zM732.5 1267.5
q-57.5 -16.5 -110.5 -49.5q-118 -72 -187 -198q-78 -145 -78 -333q0 -123 33 -230t95 -187q64 -83 154 -128.5t201 -46.5q85 0 171 36.5t155 107.5q75 77 118.5 190.5t43.5 260.5q0 122 -33 230t-95 189q-64 83 -154 128.5t-200 46.5q-56 0 -113.5 -16.5zM511 781
q80 -9 206 -14q62 -3 131 -3q108 0 234 8l103 9v-162q-92 10 -211 16q-62 3 -127 3q-116 0 -238 -8l-39 -3l-59 -5v159z" />
    <glyph glyph-name="Iota" unicode="&#x399;" horiz-adv-x="618" 
d="M171 940q0 134 -10 302l-9 138h314q-12 -128 -16 -279q-3 -78 -3 -161v-493q0 -155 9 -306q6 -92 10 -141h-314q10 130 16 284q3 80 3 163v493z" />
    <glyph glyph-name="Kappa" unicode="&#x39a;" horiz-adv-x="1545" 
d="M1544 34l-5 -27q-28 -14 -99 -23q-38 -5 -80 -5q-123 0 -226 120q-95 110 -169 317q-42 97 -101 151q-41 37 -93 54q-17 5 -31 7h-16q-56 0 -110 -44l-29 -24l-109 -124q0 -166 11 -293q5 -76 12 -143h-331q8 108 15 287q3 80 3 163v479q0 162 -12 308q-4 74 -12 142h315
l-1 -740l456 511q61 69 128 151l63 78h207q-49 -40 -134 -128q-51 -55 -101 -115l-389 -440q36 20 76 36q56 21 124 21q45 0 92.5 -16t91.5 -50q103 -79 163 -226q54 -132 117 -235q50 -85 92 -128q48 -51 82 -64z" />
    <glyph glyph-name="Lambda" unicode="&#x39b;" horiz-adv-x="1472" 
d="M847 1380l372 -908q82 -197 152 -336q41 -81 70 -136h-360l-6 23l-47 151q-40 124 -80 235l-46 128l-242 607l-285 -693q-47 -115 -117 -305q-18 -44 -40 -105l-15 -41h-182l12 24q17 32 32 63l45 93q47 95 109 228q34 75 50 114l371 858h207z" />
    <glyph glyph-name="Mu" unicode="&#x39c;" horiz-adv-x="1944" 
d="M1495 165v106q-1 37 -1 117l-3 119l-12 320l-3 64q-2 92 -4 132l-3 55l-34 -70q-22 -43 -39 -82l-42 -86l-39 -82l-334 -758h-190l-355 857q-29 65 -51 123l-44 103l-1 -28l-3 -54l-6 -98l-12 -466q-2 -84 -2 -125q0 -73 2 -173q0 -76 1 -101l1 -38h-181l3 24
q7 80 13 167l4 62l12 186l6 125l11 339q4 113 4 252v69l-3 156h363q11 -65 78 -251q42 -114 137 -355l13 -33l29 -72l27 -67.5t33 -81.5l91 -227l264 616q46 112 126 322q19 49 40 108q15 41 14 41h353q-7 -79 -7 -198l-1 -88q0 -103 4 -192l18 -455q3 -115 19 -306
q7 -90 13 -141h-311l1 21v58q0 53 1 86z" />
    <glyph glyph-name="Nu" unicode="&#x39d;" horiz-adv-x="1523" 
d="M1246 0q-242 257 -416 436q-120 125 -216 221q-120 120 -188 183q-78 73 -121 101l8 -423q11 -231 23 -369q4 -69 9 -109l3 -40h-191q0 49 3 142l1 54q4 172 4 281v457q0 152 -7 329l-6 117h123q249 -267 423 -449q161 -171 319 -331q158 -162 204 -199l-10 461
q-10 232 -23 376l-3 36q-10 100 -11 106h192q0 -46 -1 -80l-6 -252q-2 -98 -2 -144v-457q0 -197 7 -330q3 -78 7 -117h-125z" />
    <glyph glyph-name="Xi" unicode="&#x39e;" horiz-adv-x="1031" 
d="M945 1139q-82 14 -246 25q-88 5 -186 5q-166 0 -320 -15q-63 -7 -108 -15l12 241h836zM176 796q81 -12 205 -16q62 -3 138 -3q138 0 248 9l96 9v-198q-82 12 -205 19q-63 3 -140 3q-128 0 -248 -10l-94 -9v196zM53 251q107 -24 271 -35q85 -6 193 -6q190 0 335 20
q68 9 122 21l-19 -251h-883z" />
    <glyph glyph-name="Omicron" unicode="&#x39f;" 
d="M1146 1361.5q141 -50.5 244 -145.5q104 -95 160 -228t56 -293q0 -235 -109 -407q-100 -157 -278 -241q-167 -79 -371 -79q-167 0 -308 49.5t-244 143.5q-104 94 -160.5 226t-56.5 292q0 231 110 405q101 158 279 245q84 41 178 62t193 21q166 0 307 -50.5zM732.5 1267.5
q-57.5 -16.5 -110.5 -49.5q-118 -72 -187 -198q-78 -145 -78 -333q0 -123 33 -230t95 -187q64 -83 154 -128.5t201 -46.5q85 0 171 36.5t155 107.5q75 77 118.5 190.5t43.5 260.5q0 122 -33 230t-95 189q-64 83 -154 128.5t-200 46.5q-56 0 -113.5 -16.5z" />
    <glyph glyph-name="Pi" unicode="&#x3a0;" horiz-adv-x="1658" 
d="M1483 451q0 -175 11 -309q6 -93 11 -142h-300v933q0 189 -11 315q-171 20 -356 20h-35q-107 0 -191 -4q-114 -5 -159 -9v-808q0 -174 11 -306q6 -94 11 -141h-317q10 180 14 284q3 80 3 163v482q0 163 -12 309q-3 56 -11 142h1348q-9 -119 -14 -284q-3 -81 -3 -163v-482z
" />
    <glyph glyph-name="Rho" unicode="&#x3a1;" horiz-adv-x="1298" 
d="M452 440q0 -151 9 -302q5 -89 10 -138h-311q0 28 3 79l10 251q2 96 2 144v445q0 162 -12 313q-4 61 -11 148h187q99 0 176 7t154 7q273 0 419 -114q67 -54 101 -130.5t34 -170.5q0 -145 -113 -240q-104 -88 -284 -124q-107 -22 -233 -22q-57 0 -141 7v-160zM549 1273
q-53 -5 -97 -5v-572q40 -2 78 -2q116 0 213 30q120 37 172 130q28 49 28 122q0 296 -312 302q-30 0 -82 -5z" />
    <glyph glyph-name="Sigma" unicode="&#x3a3;" horiz-adv-x="981" 
d="M551 700l-563 680h908v-154q-125 16 -320 29q-75 5 -217 10l430 -525l-477 -548q261 9 443 33q75 9 152 25v-250h-921z" />
    <glyph glyph-name="Tau" unicode="&#x3a4;" horiz-adv-x="1128" 
d="M425 1261q-128 -6 -278 -22q-34 -4 -50 -5l-78 -9v155h1089v-155q-99 14 -252 27l-155 9v-816q0 -136 8 -304l9 -141h-310q10 178 14 284q3 80 3 161v816z" />
    <glyph glyph-name="Upsilon" unicode="&#x3a5;" horiz-adv-x="1239" 
d="M744 676q0 -56 2 -186l1 -105q1 -131 7 -266l3 -66l1 -20q1 -30 4 -33h-300l2 20l8 136q3 67 7 212q1 39 1 116v159l-179 294q-115 188 -209 325q-56 81 -83 118h373q0 -4 22 -47q47 -100 152 -299q46 -88 120 -221l84 131l158 248q70 110 102 163q15 24 14 25h196
l-29 -38q-74 -98 -175 -242q-74 -106 -109 -161z" />
    <glyph glyph-name="Phi" unicode="&#x3a6;" horiz-adv-x="1841" 
d="M1681 390q-92 -118 -256 -183q-155 -61 -347 -69q2 -74 5 -100l3 -38h-324l3 38l3 44l3 58q-152 4 -283 44.5t-227 112.5q-98 73 -151 172.5t-53 220.5q0 178 102 309q91 117 261 184q151 60 350 68l-6 93q-2 26 -2 36h324l-2 -36l-2 -41l-3 -53q150 -5 279.5 -46
t223.5 -112q95 -74 147 -173.5t52 -219.5q0 -180 -100 -309zM781 929q0 88 -6 226q-106 -13 -198 -64q-101 -55 -162 -150q-68 -105 -68 -246q0 -90 30 -170.5t86 -142.5q58 -65 137 -103.5t176 -45.5q5 107 5 214v482zM1463 864q-29 80 -83 142q-56 63 -134 101.5
t-173 47.5q-5 -115 -5 -226v-482q0 -55 2 -153l1 -59q107 15 195 66q102 57 160 150q66 106 66 244q0 89 -29 169z" />
    <glyph glyph-name="Chi" unicode="&#x3a7;" horiz-adv-x="1444" 
d="M591 699l-162 228q-110 155 -246 328q-58 74 -101 125h385l23 -41q56 -99 160 -264q52 -84 123 -190q82 107 172 231q102 141 134 187q23 31 39 56l14 21h229q-86 -101 -121 -145l-118 -145q-60 -72 -129 -161l-134 -173l4 -5q1 -3 4 -6.5t6 -7.5l23 -31l99 -139l87 -123
q132 -188 243 -324q67 -82 100 -120h-383q-1 2 -7.5 13t-21.5 36q-46 79 -192 304q-82 128 -142 215q-92 -115 -199 -258l-125 -166l-38 -51l-50 -68l-18 -25h-230l16 18l106 122q69 80 162 194l87 108z" />
    <glyph glyph-name="Psi" unicode="&#x3a8;" horiz-adv-x="1735" 
d="M1716 1344q-4 0 -13 -4q-10 -4 -25 -18q-43 -41 -78 -115q-52 -109 -90 -278q-52 -220 -195 -332q-129 -100 -316 -103v-49q0 -136 8 -304l9 -141h-310q8 105 15 284q3 80 3 161v49q-187 2 -316 103q-144 113 -195 332q-38 169 -90 278q-34 72 -77 115q-18 14 -26 18
q-9 4 -14 4l5 28q26 13 85 24q28 5 59 5q50 0 101.5 -29.5t95.5 -86.5q47 -60 81 -149t51 -202q28 -142 88 -220q44 -58 99 -79q21 -7 36 -9l17 -1v305q0 117 -9 308l-9 142h310q-9 -118 -14 -286q-3 -81 -3 -164v-305l18 1q34 2 82 35q59 41 101 141q21 48 38 132
q17 113 51.5 202t81.5 149q44 57 95 86.5t102 29.5t105 -15q20 -5 39 -14z" />
    <glyph glyph-name="Iotadieresis" unicode="&#x3aa;" horiz-adv-x="618" 
d="M171 940q0 134 -10 302l-9 138h314q-12 -128 -16 -279q-3 -78 -3 -161v-493q0 -155 9 -306q6 -92 10 -141h-314q10 130 16 284q3 80 3 163v493zM35 1735q38 38 109 38q69 0 101 -37q29 -35 29 -94q0 -57 -29 -90q-32 -38 -101 -38q-73 0 -109 38q-35 34 -35 90
q0 58 35 93zM370 1735q36 38 107 38q70 0 104 -37q31 -35 31 -94q0 -56 -31 -90q-33 -38 -104 -38q-72 0 -107 38q-32 33 -32 90q0 58 32 93z" />
    <glyph glyph-name="Upsilondieresis" unicode="&#x3ab;" horiz-adv-x="1239" 
d="M744 676q0 -56 2 -186l1 -105q1 -131 7 -266l3 -66l1 -20q1 -30 4 -33h-300l2 20l8 136q3 67 7 212q1 39 1 116v159l-179 294q-115 188 -209 325q-56 81 -83 118h373q0 -4 22 -47q47 -100 152 -299q46 -88 120 -221l84 131l158 248q70 110 102 163q15 24 14 25h196
l-29 -38q-74 -98 -175 -242q-74 -106 -109 -161zM402 1742q38 38 109 38q69 0 101 -37q29 -35 29 -94q0 -57 -29 -90q-32 -38 -101 -38q-73 0 -109 38q-35 34 -35 90q0 58 35 93zM737 1742q36 38 107 38q70 0 104 -37q31 -35 31 -94q0 -56 -31 -90q-33 -38 -104 -38
q-72 0 -107 38q-32 33 -32 90q0 58 32 93z" />
    <glyph glyph-name="alphatonos" unicode="&#x3ac;" horiz-adv-x="1382" 
d="M1377 15q-31 -26 -107 -39q-38 -7 -102 -7q-132 0 -192 63q-28 28 -43.5 70.5t-21.5 101.5q-43 -90 -108 -142q-106 -86 -271 -86q-118 0 -207.5 39.5t-149.5 113.5q-58 71 -87 168.5t-29 213.5q0 119 29 218t87 170q60 73 149.5 111.5t207.5 38.5q165 0 274 -80
q83 -62 129 -167l2 -4l16 67q23 86 51 161l244 -1q-23 -80 -50 -190q-25 -109 -34 -167q-15 -93 -15 -153v-57q0 -105 4 -172.5t15 -110.5q11 -45 30 -66.5t49 -21.5q44 0 80 21q18 10 29 21zM874 325q29 76 29 182q0 107 -27 186t-75 131q-43 46 -97.5 69t-110.5 23
q-134 0 -204 -122q-32 -55 -48 -128t-16 -157t17.5 -155t51.5 -124q34 -54 84.5 -83.5t115.5 -29.5q52 0 105.5 20.5t96.5 62.5q49 49 78 125zM719 1509q-9 -50 -17 -121l-8 -65l-12 -123l-113 -1l-13 122q-4 46 -7 66l-7 60l-8 62h185z" />
    <glyph glyph-name="epsilontonos" unicode="&#x3ad;" horiz-adv-x="1058" 
d="M653 1507q-9 -50 -17 -121l-8 -65l-12 -123l-113 -1l-13 122q-4 46 -7 66l-7 60l-8 62h185zM1043 98q-16 -18 -61 -40t-104 -42q-63 -21 -125.5 -34t-111.5 -13q-129 0 -236 20.5t-184 60.5q-79 40 -121 99.5t-42 135.5q0 62 36 109t98 79q51 27 115 42.5t126 18.5
q-131 11 -215 65q-50 31 -78 76t-28 102q0 137 137 205.5t401 68.5v0h1v0q110 0 239 -39q51 -15 100 -38l-43 -132q-78 44 -177 68q-54 12 -116 12q-103 0 -175 -36q-39 -20 -61.5 -51.5t-22.5 -74.5q0 -67 65 -107q51 -32 138 -44q60 -10 126 -10h29q19 0 28 1l30 2v-137
q-23 0 -61 2h-22q-85 0 -132 -5q-106 -11 -167 -44q-82 -44 -82 -126q0 -94 99 -145q44 -23 101.5 -34.5t121.5 -11.5q90 0 206 45q41 16 76 33.5t54 29.5z" />
    <glyph glyph-name="etatonos" unicode="&#x3ae;" horiz-adv-x="1310" 
d="M154 586q0 208 -8 328q-7 111 -9 111h278l-3 -42q-1 -12 -5 -94q0 -13 -2 -55q21 37 54 71.5t74 62.5q91 62 204 72q30 3 59 3q32 0 65 -3q169 -17 247 -118q70 -91 70 -243v-714q0 -191 7 -301q3 -60 7 -89h-277q9 112 13 211q2 94 2 166v659q0 276 -223 276
q-61 0 -116.5 -26t-98.5 -72q-44 -46 -68.5 -103.5t-25.5 -118.5v-196q0 -137 8 -267l9 -104h-278q9 113 14 221q3 68 3 150v215zM778 1505q-9 -50 -17 -121l-8 -65l-12 -123l-113 -1l-13 122q-4 46 -7 66l-7 60l-8 62h185z" />
    <glyph glyph-name="iotatonos" unicode="&#x3af;" horiz-adv-x="669" 
d="M403 1505q-12 -59 -19 -122l-8 -65l-13 -123l-122 -1l-14 122q-5 51 -15 127l-8 62h199zM646 37q-35 -37 -115 -57q-42 -11 -103 -11q-131 0 -189 71q-26 31 -39.5 77t-18.5 108q-4 62 -4 100l1 163v189q0 122 -10 248l-9 100h281l-2 -37q-6 -79 -11 -230q-3 -73 -3 -144
v-156q0 -110 3 -175.5t11 -107.5q8 -46 25 -67t47 -21q40 0 82 26q18 10 33 27z" />
    <glyph glyph-name="upsilondieresistonos" unicode="&#x3b0;" horiz-adv-x="1185" 
d="M385 480q24 -205 99 -300q63 -79 160 -79q85 0 147 35q85 48 134 158q58 134 58 358q0 126 -41 265q-19 65 -40 110l154 -2q35 -101 54 -223q10 -61 10 -132q0 -186 -39 -320.5t-110 -219.5q-67 -79 -156.5 -117t-192.5 -38q-229 0 -351 125q-117 120 -141 359l-30 256
q-11 91 -33 209l-21 102h298q-2 -54 -2 -86q0 -119 7 -183zM686 1509q-12 -54 -23 -122q-7 -38 -8 -66l-5 -122h-115l-7 122q-5 75 -15 125q-3 25 -11 62zM303 1360q29 29 86 29q54 0 79 -30q22 -26 22 -74q0 -46 -24 -73.5t-77 -27.5q-57 0 -86 28t-29 73q0 46 29 75z
M723 1360.5q26 28.5 83 28.5q54 0 80.5 -28.5t26.5 -75.5q0 -45 -26.5 -73t-80.5 -28q-57 0 -83 27.5t-26 73.5q0 47 26 75.5z" />
    <glyph glyph-name="alpha" unicode="&#x3b1;" horiz-adv-x="1382" 
d="M1377 15q-31 -26 -107 -39q-38 -7 -102 -7q-132 0 -192 63q-28 28 -43.5 70.5t-21.5 101.5q-43 -90 -108 -142q-106 -86 -271 -86q-118 0 -207.5 39.5t-149.5 113.5q-58 71 -87 168.5t-29 213.5q0 119 29 218t87 170q60 73 149.5 111.5t207.5 38.5q165 0 274 -80
q83 -62 129 -167l2 -4l16 67q23 86 51 161l244 -1q-23 -80 -50 -190q-25 -109 -34 -167q-15 -93 -15 -153v-57q0 -105 4 -172.5t15 -110.5q11 -45 30 -66.5t49 -21.5q44 0 80 21q18 10 29 21zM874 325q29 76 29 182q0 107 -27 186t-75 131q-43 46 -97.5 69t-110.5 23
q-134 0 -204 -122q-32 -55 -48 -128t-16 -157t17.5 -155t51.5 -124q34 -54 84.5 -83.5t115.5 -29.5q52 0 105.5 20.5t96.5 62.5q49 49 78 125z" />
    <glyph glyph-name="beta" unicode="&#x3b2;" horiz-adv-x="1305" 
d="M1250 398q0 -219 -146 -330q-63 -47 -142.5 -70t-165.5 -23q-149 0 -249 54t-149 169v-282q0 -134 8 -252l9 -89h-279q9 113 14 221q3 67 3 150l2 859v211q0 92 32 171t94 138q65 61 161 94.5t221 33.5q123 0 217 -27.5t158 -77.5q61 -48 92 -115.5t31 -147.5
q0 -171 -131 -245q-64 -36 -160 -50q126 -16 211 -64q169 -97 169 -328zM397 843q169 0 252 4q131 6 201 63q76 62 76 173q0 129 -73 197q-73 67 -199 67q-49 0 -94 -17t-79 -56q-84 -96 -84 -292v-139zM969 286.5q23 56.5 23 129.5q0 145 -81 224.5t-236 90.5l-112 7l-38 2
q-8 0 -12 1l-116 -2l1 -240q1 -190 99 -284q39 -38 87.5 -57.5t98.5 -23.5q23 -3 44 -3q106 0 177 62q42 37 65 93.5z" />
    <glyph glyph-name="gamma" unicode="&#x3b3;" horiz-adv-x="1060" 
d="M283 1025q13 -30 48 -122q4 -11 7.5 -21.5l6.5 -19.5q29 -77 51 -146q19 -57 45 -129l10 -29l117 -326q57 69 96 122q70 98 117 189q62 117 74 205q4 25 4 69q0 86 -16 154q-7 33 -20 54h158q16 -38 21 -119q2 -36 2 -55q0 -32 -2 -76q-10 -158 -128 -352
q-94 -152 -258 -329q53 -167 60 -303l1 -32q0 -135 -52 -214q-67 -101 -224 -101q-106 0 -173 62q-30 27 -46 63.5t-16 75.5q0 81 42 170q32 67 88 144q29 38 75 90q-12 28 -24 64q-11 34 -24 65q-47 128 -99 275q-56 157 -96.5 261t-74.5 170l-73 141h303zM443 -415
q22 26 29 73q3 19 3 42q0 95 -46 213q-59 -73 -95 -133q-47 -77 -47 -128q0 -47 27 -71t73 -22q34 0 56 26z" />
    <glyph glyph-name="delta" unicode="&#x3b4;" horiz-adv-x="1307" 
d="M1247 485q0 -124 -47 -221.5t-132 -165.5q-80 -64 -187 -97t-227 -33q-158 0 -285 49q-144 56 -221 163q-87 122 -87 301q0 85 28.5 162.5t80.5 141.5q42 52 95.5 92.5t114.5 66.5l-59 18q-116 37 -159 109q-24 38 -24 95q0 107 84 181q75 67 203 101q122 32 252 32
q92 0 163 -6.5t131 -22.5q125 -33 228 -113l-123 -144q-56 74 -154 113.5t-234 39.5q-46 0 -96.5 -9t-93.5 -29q-108 -50 -108 -145q0 -37 34 -60.5t100 -42.5q53 -16 137 -34q181 -39 315 -101q165 -78 234 -237q37 -83 37 -204zM962 332q26 75 24 165q0 159 -88 252
q-74 78 -210 121q-34 11 -94 26q-117 -44 -191 -154q-38 -57 -57.5 -123.5t-19.5 -134.5q0 -199 110 -302q45 -42 103 -61.5t121 -19.5q64 0 123.5 26.5t104.5 76.5q48 53 74 128z" />
    <glyph glyph-name="epsilon" unicode="&#x3b5;" horiz-adv-x="1058" 
d="M1043 98q-16 -18 -61 -40t-104 -42q-63 -21 -125.5 -34t-111.5 -13q-129 0 -236 20.5t-184 60.5q-79 40 -121 99.5t-42 135.5q0 62 36 109t98 79q51 27 115 42.5t126 18.5q-131 11 -215 65q-50 31 -78 76t-28 102q0 137 137 205.5t401 68.5v0h1v0q110 0 239 -39
q51 -15 100 -38l-43 -132q-78 44 -177 68q-54 12 -116 12q-103 0 -175 -36q-39 -20 -61.5 -51.5t-22.5 -74.5q0 -67 65 -107q51 -32 138 -44q60 -10 126 -10h29q19 0 28 1l30 2v-137q-23 0 -61 2h-22q-85 0 -132 -5q-106 -11 -167 -44q-82 -44 -82 -126q0 -94 99 -145
q44 -23 101.5 -34.5t121.5 -11.5q90 0 206 45q41 16 76 33.5t54 29.5z" />
    <glyph glyph-name="zeta" unicode="&#x3b6;" horiz-adv-x="975" 
d="M934 -94q0 -64 -62 -131q-48 -51 -133 -96q-69 -36 -124 -52l-40 101q39 15 67 27.5t50 28.5q57 41 57 96q0 48 -37 72q-34 21 -90 21l-78 -1q-231 -2 -350 91q-128 98 -128 296q0 89 30 175t88 176q49 78 119 160t172 188q59 63 181 189q-2 -2 64 67l22 24
q-226 -5 -407 -21q-113 -10 -205 -21v158h787v-99q-81 -108 -156 -201q-167 -205 -260 -338q-111 -160 -151 -305q-21 -76 -21 -158q0 -104 56 -167q45 -51 124 -70q59 -16 124 -14l84 2q106 2 159 -44q58 -50 58 -154z" />
    <glyph glyph-name="eta" unicode="&#x3b7;" horiz-adv-x="1310" 
d="M154 586q0 208 -8 328q-7 111 -9 111h278l-3 -42q-1 -12 -5 -94q0 -13 -2 -55q21 37 54 71.5t74 62.5q91 62 204 72q30 3 59 3q32 0 65 -3q169 -17 247 -118q70 -91 70 -243v-714q0 -191 7 -301q3 -60 7 -89h-277q9 112 13 211q2 94 2 166v659q0 276 -223 276
q-61 0 -116.5 -26t-98.5 -72q-44 -46 -68.5 -103.5t-25.5 -118.5v-196q0 -137 8 -267l9 -104h-278q9 113 14 221q3 68 3 150v215z" />
    <glyph glyph-name="theta" unicode="&#x3b8;" horiz-adv-x="1233" 
d="M385.5 21.5q-100.5 44.5 -171.5 133.5q-75 92 -114.5 231t-39.5 323q0 181 42 320.5t119 235.5q74 91 176 137t223 46q126 0 227 -43t173 -130q151 -186 151 -547q0 -254 -85 -432q-76 -160 -209 -243q-123 -76 -267 -76q-124 0 -224.5 44.5zM498.5 1285.5
q-53.5 -39.5 -94.5 -112.5t-66.5 -172.5t-32.5 -217.5q42 -4 132 -6l51 -1q82 -2 127 -2q37 0 117 2l57 1q73 2 103 4l33 1q-7 287 -105 429q-41 59 -94.5 86t-111.5 28q-62 0 -115.5 -39.5zM731 139.5q54 39.5 95 112.5q41 72 66 171t31 216l-56 3q-71 4 -165 6
q-31 1 -88 1q-95 0 -178 -3l-86 -4q-36 -2 -46 -2q6 -207 56 -333q43 -111 118 -164q59 -43 137 -43q62 0 116 39.5z" />
    <glyph glyph-name="iota" unicode="&#x3b9;" horiz-adv-x="669" 
d="M183.5 1419.5q41.5 34.5 123.5 34.5q79 0 119 -35q36 -33 36 -89q0 -52 -36 -85q-41 -36 -119 -36q-81 0 -125 36q-40 31 -40 85q0 55 41.5 89.5zM646 37q-35 -37 -115 -57q-42 -11 -103 -11q-131 0 -189 71q-26 31 -39.5 77t-18.5 108q-4 62 -4 100l1 163v189
q0 122 -10 248l-9 100h281l-2 -37q-6 -79 -11 -230q-3 -73 -3 -144v-156q0 -110 3 -175.5t11 -107.5q8 -46 25 -67t47 -21q40 0 82 26q18 10 33 27z" />
    <glyph glyph-name="kappa" unicode="&#x3ba;" horiz-adv-x="1330" 
d="M1295 58q6 0 16 2l-2 -61q-44 -15 -104 -20q-34 -3 -79 -3q-105 0 -198 81t-149 221q-50 104 -122 141q-39 20 -86 20q-38 0 -84 -32q-13 -9 -39 -31l1 1l-48 -46q1 -115 9 -227l9 -104h-282q8 74 15 222q3 68 3 150v238q0 128 -9 299l-9 120h282q-11 -116 -15 -259
q-3 -78 -3 -166v-84l337 340q43 45 86 107q28 40 41 60h286q-76 -57 -167 -135q-37 -32 -75 -68l-284 -276q21 8 49 15q37 8 76 8q88 0 167 -76q71 -69 145 -213q51 -90 102 -144q42 -46 78 -65q29 -15 53 -15z" />
    <glyph glyph-name="lambda" unicode="&#x3bb;" horiz-adv-x="1069" 
d="M289 1227q-27 117 -25 226h151q-2 -22 -2 -48q0 -31 4 -63q14 -106 58 -210q61 -146 176 -289q79 -98 136 -165q67 -81 113.5 -154.5t75.5 -149.5q31 -81 35 -179q1 -20 1 -54q0 -43 -8 -91l-10 -50h-148q17 38 22 79t4 98q-1 91 -57 207q-42 87 -121 199l-67 89
q-29 35 -61 78l-179 -479q-25 -73 -52 -181l-21 -91h-316q1 0 15 24q24 43 86 184q34 81 62 153l240 606q-77 109 -112 261z" />
    <glyph glyph-name="uni03BC" unicode="&#x3bc;" horiz-adv-x="1380" 
d="M1217 -2h-278l3 43l3 59l3 89q-39 -66 -75.5 -108t-76.5 -67q-40 -24 -86 -35t-104 -11q-76 0 -122 23q-40 20 -61 54q0 -163 8 -337q3 -65 6 -102q1 -33 3 -35h-278q9 113 14 221q3 67 3 150v627q0 166 -9 339l-3 40q-1 32 -5 77h278q-1 0 -3 -32q-7 -71 -11 -231
q-3 -82 -3 -184v-165q0 -140 59 -219q61 -81 167 -81q60 0 115.5 31t99.5 84q42 51 66.5 114t25.5 125v187q0 116 -9 267l-3 42l-5 62h278q-9 -85 -14 -221q-3 -67 -3 -150v-216q0 -208 8 -328q7 -112 9 -112z" />
    <glyph glyph-name="nu" unicode="&#x3bd;" horiz-adv-x="1084" 
d="M447 0l-237 579q-61 148 -146 322q-37 76 -65 125h307l15 -44q34 -105 118 -321q45 -116 108 -258l27 -59l24 -60l138 317q48 115 111 290q31 84 47 135h171q-61 -124 -134 -280q-38 -81 -68 -155l-253 -591h-163z" />
    <glyph glyph-name="xi" unicode="&#x3be;" horiz-adv-x="1069" 
d="M880 820h-72q-24 -1 -71 -1q-76 0 -154 -24q-114 -35 -180 -106q-86 -94 -86 -247q0 -68 29.5 -128.5t81.5 -106.5t120 -71.5t144 -25.5q85 0 141.5 -5.5t96.5 -21.5q46 -19 69.5 -56.5t23.5 -99.5q0 -89 -66 -158q-48 -50 -139 -93q-45 -21 -125 -46l-32 86
q75 30 116 65q56 48 56 104q0 32 -10 51t-31 29q-19 8 -47 11t-70 3q-7 1 -33 1q-31 0 -48 1q-36 0 -54 1q-35 0 -50 1q-85 8 -162 39.5t-135 84.5q-62 55 -96 131t-34 169q0 213 128 335q110 104 308 129q-127 18 -195 74q-81 65 -81 186q0 84 80 145q73 56 211 86
q-172 -6 -291 -24q-42 -6 -84 -16v131h186t185 1h370v-94q-38 2 -62 2q-58 0 -107 -7q-100 -16 -153 -61q-67 -56 -67 -159q0 -84 57 -136q43 -40 127 -57q61 -13 137 -13h68v-109z" />
    <glyph glyph-name="omicron" unicode="&#x3bf;" horiz-adv-x="1320" 
d="M1206.5 275q-44.5 -101 -127.5 -169q-80 -65 -188 -97.5t-235 -32.5q-117 0 -222.5 31.5t-184.5 94.5q-85 68 -132.5 171.5t-47.5 243.5q0 132 45 233t128 169q79 65 187 97.5t235 32.5q118 0 223 -31.5t184 -94.5q85 -68 132.5 -171.5t47.5 -243.5q0 -132 -44.5 -233z
M964 685q-27 79 -74 134q-47 53 -107 80.5t-122 27.5t-120 -23t-103 -69q-51 -51 -79.5 -129.5t-28.5 -182.5q0 -101 27.5 -181t75.5 -135q47 -54 107.5 -81.5t124.5 -27.5q63 0 120.5 23t101.5 69q49 52 76.5 131t27.5 185q0 100 -27 179z" />
    <glyph glyph-name="pi" unicode="&#x3c0;" horiz-adv-x="1335" 
d="M1327 13q-38 -24 -118 -37q-41 -7 -104 -7q-67 0 -112 14.5t-73 44.5q-27 28 -40.5 68.5t-19.5 97.5q-5 62 -4 117v137v100q0 105 -7 320l-2 44q-78 2 -118 2h-156q-44 0 -122 -2l-5 -98q0 -26 -1 -39q-3 -78 -3 -173v-203q0 -145 8 -287l9 -112h-281q9 82 15 238
q3 74 3 161v170q0 168 -8 326l-8 -1q-110 -11 -173 -19v150h1293v-150q-126 14 -191 19l-3 -76q-4 -113 -6 -243q-1 -41 -1 -113q0 -106 4 -174.5t15 -111.5q11 -45 30 -66.5t49 -21.5q47 0 80 19q16 9 29 20z" />
    <glyph glyph-name="rho" unicode="&#x3c1;" horiz-adv-x="1310" 
d="M1212 288q-33 -99 -95 -169q-62 -69 -148.5 -106t-190.5 -38q-160 0 -263 68q-86 57 -122 155v-282q0 -134 8 -252l9 -89h-279q9 113 14 221q3 67 3 150v578q0 115 37 211t109 166q74 71 181 109t242 38q119 0 217 -39t168 -111q70 -73 106.5 -172t36.5 -217
q0 -122 -33 -221zM966 683.5q-21 76.5 -60 131.5q-39 54 -94.5 82.5t-123.5 28.5q-50 0 -100.5 -21t-92.5 -65q-102 -111 -102 -325q0 -206 107 -308q44 -42 98.5 -61.5t110.5 -19.5q65 1 116.5 29.5t88.5 80.5q36 51 54.5 121.5t18.5 154.5q0 95 -21 171.5z" />
    </font>
</defs>
</svg>
